<svg width="72" height="26" viewBox="0 0 72 26" fill="none" xmlns="http://www.w3.org/2000/svg">
<path fill-rule="evenodd" clip-rule="evenodd" d="M36.0114 26C55.6099 26 71.5 20.1923 71.5 13.011C71.5 5.8297 55.6099 0 36.0114 0C16.3901 0 0.5 5.8297 0.5 13.011C0.5 20.1927 16.3901 26 36.0114 26Z" fill="#425E99"/>
<path fill-rule="evenodd" clip-rule="evenodd" d="M36.0129 24.6698C17.1927 24.6698 1.89844 19.483 1.89844 13.0107C1.89844 6.56089 17.1927 1.30762 36.0129 1.30762C54.879 1.30762 70.1501 6.56089 70.1501 13.0107C70.1501 19.483 54.879 24.6698 36.0129 24.6698Z" fill="white"/>
<path fill-rule="evenodd" clip-rule="evenodd" d="M36.0112 23.7614C54.2591 23.7614 69.0722 18.9516 69.0722 13.0109C69.0722 7.09304 54.2591 2.2832 36.0112 2.2832C17.7405 2.2832 2.97266 7.09304 2.97266 13.0109C2.97304 18.9516 17.7405 23.7614 36.0112 23.7614Z" fill="#425E99"/>
<path fill-rule="evenodd" clip-rule="evenodd" d="M44.6671 15.1608C46.2238 13.7424 47.0932 12.2574 49.3376 12.2794C50.6882 12.3015 51.0313 13.3434 51.2601 13.7868L54.2138 8.95493H56.0225L51.1231 17.3556C51.0313 17.5327 50.8021 17.8652 50.8252 18.1312C50.8719 18.5522 51.421 18.4416 51.215 18.4416C52.1994 18.3972 54.0077 16.5797 54.443 16.1366C54.5341 16.0253 54.695 15.8262 54.7861 15.8262C54.8779 15.8262 55.0612 15.9147 55.0612 16.0477C55.0612 16.1366 54.8551 16.4687 54.695 16.6682C53.7789 17.7766 52.2681 19.4832 50.5508 19.5276C49.7038 19.5276 49.3827 19.1951 49.2685 18.5526C48.8795 18.8847 47.5513 19.4611 46.2006 19.4611C45.0784 19.4391 44.6204 18.7961 44.3919 18.2866C44.1858 17.8655 44.094 17.245 44.2542 16.6245C43.6359 16.935 43.0637 16.979 42.2394 16.957C41.2774 16.9346 40.6819 16.5136 40.3848 15.4272C39.2857 17.378 39.2394 17.4442 38.118 19.4835H36.1719L38.6675 15.3831C38.9886 14.8287 39.1487 14.3856 39.2626 13.9205C39.3317 13.6542 39.1256 13.4102 38.8277 13.3886C38.5074 13.3886 37.9814 13.699 37.477 14.1641C37.477 14.1641 36.1951 15.4941 35.2562 16.846C34.3629 18.1319 32.8293 19.5945 31.158 19.5945C29.9443 19.5945 28.8453 18.9519 28.6165 17.7105C28.6165 17.7105 28.5018 17.9985 27.4256 18.597C27.3341 18.6411 27.1053 18.7741 27.037 18.73C26.8305 18.5529 26.7163 18.331 26.6931 18.1756C26.7618 18.198 26.8992 18.0871 27.3341 17.7546C28.1812 17.1341 28.3645 16.6458 28.3645 16.6458C28.5702 16.2248 28.9371 15.5598 29.1887 15.0943C29.876 13.7644 31.0661 12.4124 33.0122 12.3459C33.3329 12.3459 33.4243 12.4789 33.493 12.5899C33.676 12.7229 33.6076 12.9888 33.6076 12.9888C32.2339 13.1883 31.2954 13.9639 30.7227 14.7178C30.3796 15.2053 30.013 16.0033 29.9443 16.5793C29.8069 17.5768 30.2878 18.2414 30.9974 18.3968C32.3253 18.5963 33.4243 17.6653 34.2945 16.2248C34.5238 15.8479 34.6839 14.8724 34.6839 14.3405C34.6839 13.8085 34.386 13.2545 34.1572 13.0326C34.1572 12.656 34.4088 12.412 34.7063 12.412C34.7978 12.412 34.8896 12.412 34.9811 12.5006C35.4391 12.944 35.6911 13.7864 35.6911 14.429C35.6911 14.6509 35.6911 14.8724 35.6452 15.0943C36.6068 13.9639 37.8201 12.501 38.7594 12.2129C38.9423 12.1244 39.1256 12.1244 39.3085 12.1244C41.0257 12.0799 40.7969 13.5873 40.7969 13.5873C41.7123 12.5678 42.3536 12.1909 43.2007 12.235C44.1168 12.2794 44.4371 12.9003 44.4371 13.3878C44.4139 13.9639 43.9798 14.6289 43.2246 14.6509C42.5597 14.6509 42.1707 14.3405 41.9646 13.7644C41.5297 13.9198 41.324 14.2078 41.2322 14.7839C41.0944 15.5154 41.6671 16.0918 42.3995 16.0918C43.6591 16.0922 44.209 15.5598 44.6671 15.1608ZM46.0405 5.60803C46.0405 6.31746 43.4758 7.66944 41.3005 7.66944C37.9123 7.66944 34.3864 6.09555 32.7614 5.74102C30.9982 5.34204 29.3956 5.00956 28.136 5.00956C23.7171 5.00956 21.7479 6.84943 21.8397 8.53391C21.8856 9.22092 22.4575 9.66436 23.305 9.50895C24.2211 9.35391 25.503 8.51149 25.8237 7.78003C25.8924 7.62499 26.0757 7.60258 26.1444 7.64703C26.2818 7.75798 26.2358 7.91302 26.2358 7.91302C26.1212 8.77748 24.7474 11.1714 22.3665 11.1714C21.0386 11.1714 20.1456 9.97443 20.1684 8.79953C20.1912 6.60512 22.5038 4.38867 28.2047 4.38867C29.2806 4.38867 30.4942 4.47721 31.8225 4.69911C33.356 4.9651 37.1795 5.58562 40.2933 5.63008C41.4386 5.63008 42.9039 5.67453 44.0944 5.49708C45.3536 5.29759 45.0788 5.25314 45.5828 5.25314C46.0405 5.25314 46.0405 5.43058 46.0405 5.60803Z" fill="white"/>
<path fill-rule="evenodd" clip-rule="evenodd" d="M49.4311 13.3214C48.6292 13.2328 47.6216 13.8978 46.7977 14.8732C46.3856 15.3607 45.9507 16.2917 45.8816 16.8457C45.7905 17.4001 45.9507 17.9541 46.1568 18.1092C46.3628 18.2642 47.2789 18.7297 48.6983 17.3336C49.4994 16.5577 50.2777 15.2942 50.2777 15.2942L50.0258 15.2274C50.5066 14.3633 50.4144 13.432 49.4311 13.3214Z" fill="#425E99"/>
<path fill-rule="evenodd" clip-rule="evenodd" d="M32.6918 10.7059C32.6918 10.9499 33.0349 11.1494 33.3328 11.1718C33.2641 11.4153 33.2869 11.5263 33.1727 11.5042C32.4858 11.5042 32.211 10.8613 32.211 10.8613C31.2956 11.0164 30.4027 11.1273 28.5936 11.3048C24.0373 18.442 22.618 19.6169 19.8245 19.6169C17.8325 19.6169 16.0697 18.3534 16.0238 16.0925C16.0006 14.7185 17.1456 13.0337 19.275 12.5237C19.527 12.5237 19.6184 12.6127 19.6184 12.7456C19.6184 12.8346 19.527 12.9451 19.3205 13.0337C18.7023 13.2556 17.6264 14.4301 17.6264 15.5165C17.6264 16.3365 18.1532 17.2454 19.0457 17.4445C19.2977 17.5114 19.527 17.489 19.7558 17.489C21.9766 17.489 24.4722 15.073 27.1739 11.3937C26.739 11.4157 24.8844 11.6156 24.4263 12.1251C24.2206 12.2802 24.0832 12.1916 24.0373 12.0142C24.0373 11.9697 24.106 11.8147 24.1751 11.7258C24.9075 10.9278 27.1056 10.7507 27.6319 10.6842C29.6926 7.62537 32.3484 5.719 32.8979 5.74141C32.9894 5.74141 33.1958 5.8744 33.104 6.09594C33.0808 6.14039 32.852 6.38397 32.7609 6.45046C32.3028 6.84945 30.7457 7.82486 29.0517 10.5953C30.4254 10.5288 32.0281 10.2628 32.0281 10.2628C32.0281 10.2628 31.9366 9.97481 31.9366 9.73087C32.0053 8.77786 32.5776 8.20143 33.3104 8.31238C33.7229 8.37888 33.9973 8.71137 33.9973 9.0659C33.9973 9.44284 33.6998 9.99686 33.4019 10.2628C33.1954 10.4175 32.9662 10.5729 32.6918 10.7059Z" fill="white"/>
<path fill-rule="evenodd" clip-rule="evenodd" d="M32.5773 10.2184C32.5773 10.2184 32.8065 10.2409 33.1496 9.86391C33.287 9.73092 33.5162 9.33194 33.4703 9.06595C33.4471 8.93295 33.3788 8.77792 33.2187 8.79996C32.8748 8.86682 32.6688 9.02186 32.5773 9.35435C32.4631 9.70887 32.509 9.95282 32.5773 10.2184Z" fill="#425E99"/>
</svg>
