<svg width="36" height="35" viewBox="0 0 36 35" fill="none" xmlns="http://www.w3.org/2000/svg">
<g clip-path="url(#clip0_214_1951)">
<path d="M18 0C8.33528 0 0.5 7.83528 0.5 17.5C0.5 27.1647 8.33528 35 18 35C27.6647 35 35.5 27.1647 35.5 17.5C35.5 7.83528 27.6647 0 18 0ZM34.362 17.5C34.362 26.536 27.0371 33.862 18 33.862C8.96293 33.862 1.63799 26.536 1.63799 17.5C1.63799 8.46396 8.96396 1.13799 18 1.13799C27.036 1.13799 34.362 8.46396 34.362 17.5Z" fill="black"/>
<path d="M18.0008 7.12207V7.69107C23.4089 7.69107 27.8096 12.0908 27.8096 17.4998H28.3786C28.3786 11.7687 23.7319 7.12207 18.0008 7.12207ZM18.0008 27.3086C12.5928 27.3086 8.19204 22.9089 8.19204 17.4998H7.62305C7.62305 23.231 12.2697 27.8776 18.0008 27.8776" fill="black"/>
<path d="M26.4814 10.0754C26.7191 10.3306 27.0617 10.7421 27.2541 10.9922L30.7977 8.74294C30.6208 8.51143 30.3388 8.15954 30.1279 7.91156L27.8838 9.39528L27.7305 9.52698L27.8447 9.36029L28.8356 7.3827L28.1349 6.682L26.1562 7.67285L25.9896 7.78706L26.1223 7.63375L27.607 5.39069C27.3457 5.16844 27.0946 4.96472 26.7746 4.71777L24.5254 8.25831C24.8104 8.47747 25.186 8.79953 25.4257 9.01869L27.5432 7.9198L27.6791 7.81999L27.5792 7.95581L26.4814 10.0754Z" fill="black"/>
<path d="M18.4405 5.58787L19.4087 3.41889L19.4704 3.22648L19.4529 3.42712L19.5548 6.32561C19.8943 6.35751 20.2452 6.40484 20.5909 6.46246L20.4335 2.16977C19.9499 2.11627 19.4684 2.0782 18.9868 2.05762L18.033 4.42518L17.999 4.60113L17.9651 4.42518L17.0123 2.05762C16.5308 2.0782 16.0492 2.11627 15.5656 2.16977L15.4082 6.46246C15.7539 6.40484 16.1048 6.35853 16.4443 6.32561L16.5462 3.42712L16.5287 3.22648L16.5904 3.41889L17.5587 5.58787H18.4405Z" fill="black"/>
<path d="M10.6097 9.00916C11.1694 8.41958 11.4863 7.73843 10.9266 7.08815C10.622 6.73523 10.1106 6.65806 9.68671 6.83195L9.64453 6.84841L9.6579 6.81137C9.72067 6.64366 9.76079 6.10861 9.30498 5.73923C9.08273 5.55917 8.80389 5.49229 8.52197 5.5211C7.99618 5.5746 7.59182 5.9337 6.49086 7.16121C6.15852 7.53162 5.67492 8.11605 5.38477 8.4947L8.40878 11.3633C9.41096 10.2542 9.81944 9.84156 10.6097 9.00916ZM6.66372 8.30743C7.27285 7.56249 7.92004 6.88648 8.21329 6.61896C8.30589 6.53459 8.40673 6.45022 8.52917 6.41729C8.72775 6.36276 8.93251 6.50372 8.97881 6.70745C9.02511 6.91221 8.8965 7.10667 8.75347 7.26719C8.43142 7.6304 7.25021 8.86614 7.25021 8.86614L6.66372 8.30743ZM7.84802 9.43102C7.84802 9.43102 8.99836 8.21483 9.37392 7.82589C9.52311 7.67155 9.6188 7.57792 9.7217 7.5275C9.85443 7.46268 9.99951 7.44931 10.1292 7.53574C10.2567 7.62114 10.3154 7.76827 10.2835 7.91438C10.2454 8.08827 10.1034 8.25393 9.98613 8.38049C9.82768 8.55026 8.46332 10.0103 8.46126 10.0124L7.84802 9.43102Z" fill="black"/>
<path d="M18.0008 7.12207V17.4998H7.62305C7.62305 11.7646 12.2656 7.12207 18.0008 7.12207Z" fill="#0066B1"/>
<path d="M28.3778 17.5C28.3778 23.2352 23.7352 27.8778 18 27.8778V17.5H28.3778Z" fill="#0066B1"/>
</g>
<defs>
<clipPath id="clip0_214_1951">
<rect width="35" height="35" fill="white" transform="translate(0.5)"/>
</clipPath>
</defs>
</svg>
