<svg width="34" height="27" viewBox="0 0 34 27" fill="none" xmlns="http://www.w3.org/2000/svg">
<path d="M17.0015 17.7629C16.6464 17.7629 16.2889 17.7816 16.0072 17.819C14.6696 17.9967 14.1677 18.3405 13.6966 19.2174C13.3912 19.7833 12.778 21.4974 12.288 23.6815C11.3286 23.6484 10.3697 23.6016 9.41162 23.5412C9.07782 20.4732 8.30842 7.70276 8.28711 3.32046C8.82924 3.28538 9.40452 3.23861 10.039 3.21289C10.4225 5.23801 11.7009 12.2955 12.7473 14.5147C13.2113 15.5039 14.0209 15.8406 15.0129 15.9155C16.3385 15.9833 17.6668 15.9833 18.9924 15.9155C19.982 15.8406 20.7917 15.5039 21.2557 14.5147C22.2997 12.2955 23.5781 5.24035 23.964 3.21289C24.5984 3.24095 25.1761 3.28538 25.7158 3.32046C25.6945 7.7051 24.9275 20.4732 24.589 23.5412C23.732 23.5974 22.7424 23.6441 21.7126 23.6815C21.2225 21.4951 20.6094 19.7833 20.304 19.2174C19.8352 18.3405 19.3334 17.9967 17.9934 17.819C17.6643 17.7795 17.333 17.7607 17.0015 17.7629Z" fill="black"/>
<path d="M17.0013 27C14.3333 27 8.23488 26.8386 6.22733 26.4668C4.09431 26.0716 2.65494 24.8626 1.94946 22.8749C1.34577 21.1795 0.900705 18.032 0.626088 13.5187C0.455635 10.6915 0.458003 8.15191 0.63319 5.97714C0.936216 2.27533 2.66678 0.799758 6.28652 0.395202C8.70599 0.128616 14.1131 0 17.0013 0C19.8895 0 25.2967 0.128616 27.7114 0.39754C31.3311 0.802096 33.0641 2.27767 33.3647 5.97947C33.5423 8.15425 33.5446 10.6938 33.3742 13.521C33.1019 18.0343 32.6569 21.1819 32.0532 22.8773C31.3453 24.865 29.9083 26.0716 27.7706 26.4692C25.7701 26.8386 19.6694 27 17.0013 27ZM27.4676 24.858C28.1495 24.7311 28.7866 24.4318 29.3164 23.9891C29.8463 23.5465 30.2509 22.9757 30.4907 22.3324C30.8695 21.2637 31.3927 18.8528 31.7218 13.4182C31.8898 10.6658 31.8875 8.2057 31.7147 6.10575C31.5111 3.59423 30.2279 2.3221 27.5267 2.02044C25.1736 1.75853 19.854 1.63693 17.0013 1.63693C14.1486 1.63693 8.82909 1.75853 6.47354 2.02278C3.77471 2.32444 2.49159 3.59657 2.28563 6.10809C2.11518 8.20804 2.11517 10.6681 2.28089 13.4205C2.60996 18.8551 3.13315 21.2637 3.51194 22.3347C3.87651 23.359 4.89449 24.554 6.53273 24.8603C8.22068 25.1713 13.7675 25.3654 17.0013 25.3654C20.2352 25.3654 25.7796 25.1713 27.4676 24.858Z" fill="black"/>
</svg>
