<svg width="40" height="21" viewBox="0 0 40 21" fill="none" xmlns="http://www.w3.org/2000/svg">
<path d="M28.5196 14.9196L20 3.37802L11.4804 14.9196C8.60335 14.6381 3.65922 12.752 3.65922 9.40214C3.65922 5.17962 10.9218 1.23861 20.0279 1.23861C29.6089 1.23861 36.3966 5.17962 36.3966 9.40214C36.3966 12.7802 31.4246 14.6662 28.5754 14.8914M20 0C8.21229 0 0 4.64477 0 10.6407C0 13.4558 1.78771 16.6086 5.58659 18.5228C9.13408 20.2962 14.1061 20.9156 14.8045 21L20 5.71448L25.1955 21C28.3734 20.6412 31.4803 19.8063 34.4134 18.5228C38.2123 16.6086 40 13.4558 40 10.6407C39.9721 4.61662 31.7877 0 20 0Z" fill="black"/>
</svg>
