<svg width="58" height="24" viewBox="0 0 58 24" fill="none" xmlns="http://www.w3.org/2000/svg">
<path fill-rule="evenodd" clip-rule="evenodd" d="M40.2443 3.65767C40.2443 3.65767 40.2309 5.07846 39.7594 6.37079C39.3102 7.60106 38.3256 9.12746 36.9553 10.4318C34.9994 12.2945 32.7109 13.9352 31.2544 14.7813C29.7979 15.6274 27.4443 16.7496 26.5341 17.0519C25.6574 17.3428 23.4851 17.8906 22.2261 17.6562C20.5973 17.3536 20.5272 16.1453 21.0127 14.5133C21.4979 12.8815 24.4105 2.78809 24.4105 2.78809C13.2719 3.60332 5.06641 7.37965 5.06641 11.9873C5.06641 17.1884 15.8026 21.4045 29.0471 21.4045C42.291 21.4045 53.0278 17.1884 53.0278 11.9873C53.0275 8.37491 47.8468 5.23749 40.2443 3.65767ZM36.6664 16.7101C36.6664 16.7101 35.1842 16.7023 34.5313 16.7243C33.9131 16.745 34.3853 17.2536 35.4316 17.8514C36.0225 18.1895 36.0225 18.7114 35.9391 19.0464C35.864 19.3454 35.248 19.7014 34.5809 19.8222C33.924 19.9414 32.1631 20.1004 31.1918 20.1612C30.2211 20.2214 28.1524 20.2227 26.9994 20.2227C25.8465 20.2227 23.9641 20.0386 22.8114 19.9179C21.7698 19.8086 19.5773 19.4467 19.5773 19.4467L19.8365 18.4631C19.8365 18.4631 20.6342 18.6583 22.0299 18.8396C23.4253 19.0208 24.8014 19.0884 26.9858 19.1085C28.7482 19.1249 30.4366 18.7024 31.1453 18.2612C31.7455 17.8872 31.7495 17.3462 31.3276 17.0522C30.6967 16.6125 30.3067 16.5714 30.4174 16.1456C30.5634 15.5802 31.1682 15.4282 31.8735 15.4202C32.7837 15.41 36.6685 15.4165 36.6685 15.4165L36.6664 16.7101Z" fill="#2D509F"/>
<path fill-rule="evenodd" clip-rule="evenodd" d="M28.9998 0C12.9835 0 0 5.37252 0 12C0 18.6275 12.9835 24 28.9998 24C45.0162 24 58 18.6275 58 12C58 5.37252 45.0162 0 28.9998 0ZM29.002 22.8892C13.637 22.8892 1.18147 18.0151 1.18147 12.0025C1.18147 6.36716 12.1405 1.7367 26.1709 1.17715C25.8854 2.11559 23.2317 11.3262 22.7099 13.0623C21.9312 15.6537 22.7081 16.0468 24.3654 14.883C25.8498 13.8405 27.1004 12.6729 28.2574 11.2005C29.4385 9.69789 30.1578 8.21163 30.3813 7.1509C30.6327 5.95924 30.5465 4.47267 29.9339 3.05991C29.6069 2.30458 29.1325 1.39022 28.9921 1.12095C44.3624 1.12095 56.8223 5.98981 56.8223 12.0022C56.8223 18.0145 44.367 22.8892 29.002 22.8892Z" fill="#2D509F"/>
</svg>
