<svg width="25" height="25" viewBox="0 0 25 25" fill="none" xmlns="http://www.w3.org/2000/svg">
<path d="M2.34375 5.46875H3.90625V21.4688C3.90831 22.1975 4.1987 22.8957 4.71398 23.411C5.22926 23.9263 5.92754 24.2167 6.65625 24.2188H18.375C19.0983 24.2085 19.7886 23.9145 20.2971 23.4001C20.8057 22.8857 21.0918 22.1921 21.0938 21.4688V5.46875H22.6562C22.8635 5.46875 23.0622 5.38644 23.2087 5.23993C23.3552 5.09341 23.4375 4.8947 23.4375 4.6875C23.4375 4.4803 23.3552 4.28159 23.2087 4.13507C23.0622 3.98856 22.8635 3.90625 22.6562 3.90625H17.1875V2.34375C17.1876 1.93603 17.0284 1.54441 16.7438 1.25248C16.4591 0.960552 16.0717 0.791443 15.6641 0.78125H9.375C8.9606 0.78125 8.56317 0.94587 8.27015 1.2389C7.97712 1.53192 7.8125 1.92935 7.8125 2.34375V3.90625H2.34375C2.13655 3.90625 1.93784 3.98856 1.79132 4.13507C1.64481 4.28159 1.5625 4.4803 1.5625 4.6875C1.5625 4.8947 1.64481 5.09341 1.79132 5.23993C1.93784 5.38644 2.13655 5.46875 2.34375 5.46875ZM9.375 2.34375H15.625V3.90625H9.375V2.34375ZM7.8125 5.46875H19.5312V21.4688C19.5312 21.7837 19.4061 22.0857 19.1834 22.3084C18.9607 22.5311 18.6587 22.6562 18.3438 22.6562H6.625C6.3155 22.6481 6.02143 22.5194 5.80544 22.2976C5.58946 22.0758 5.46864 21.7784 5.46875 21.4688V5.46875H7.8125Z" fill="#58529B"/>
<path d="M9.90625 19.5312C10.1135 19.5312 10.3122 19.4489 10.4587 19.3024C10.6052 19.1559 10.6875 18.9572 10.6875 18.75V9.375C10.6875 9.1678 10.6052 8.96909 10.4587 8.82257C10.3122 8.67606 10.1135 8.59375 9.90625 8.59375C9.69905 8.59375 9.50034 8.67606 9.35382 8.82257C9.20731 8.96909 9.125 9.1678 9.125 9.375V18.75C9.125 18.9572 9.20731 19.1559 9.35382 19.3024C9.50034 19.4489 9.69905 19.5312 9.90625 19.5312ZM15.0937 19.5312C15.301 19.5312 15.4997 19.4489 15.6462 19.3024C15.7927 19.1559 15.875 18.9572 15.875 18.75V9.375C15.875 9.1678 15.7927 8.96909 15.6462 8.82257C15.4997 8.67606 15.301 8.59375 15.0937 8.59375C14.8865 8.59375 14.6878 8.67606 14.5413 8.82257C14.3948 8.96909 14.3125 9.1678 14.3125 9.375V18.75C14.3125 18.9572 14.3948 19.1559 14.5413 19.3024C14.6878 19.4489 14.8865 19.5312 15.0937 19.5312Z" fill="#58529B"/>
</svg>
