<svg width="22" height="23" viewBox="0 0 22 23" fill="none" xmlns="http://www.w3.org/2000/svg">
<path d="M17.2198 6.33223C16.6985 5.30455 15.9272 4.4244 14.9768 3.77268C14.0265 3.12097 12.9275 2.71859 11.781 2.60254C11.2621 2.55045 10.7393 2.55045 10.2204 2.60254C9.07397 2.71878 7.97511 3.12123 7.02477 3.77292C6.07444 4.42462 5.3031 5.30467 4.7816 6.33223C4.12542 7.64341 3.8719 9.11944 4.05296 10.5744C4.23403 12.0294 4.84158 13.3983 5.7991 14.5087L10.47 20.1874C10.5345 20.2657 10.6155 20.3288 10.7073 20.3721C10.799 20.4155 10.8993 20.4379 11.0007 20.4379C11.1022 20.4379 11.2024 20.4155 11.2942 20.3721C11.3859 20.3288 11.467 20.2657 11.5315 20.1874L16.2017 14.5087C17.1593 13.3984 17.767 12.0295 17.9482 10.5745C18.1293 9.11955 17.8759 7.64348 17.2198 6.33223ZM11.0007 12.1877C10.4568 12.1877 9.92514 12.0264 9.47291 11.7242C9.02067 11.422 8.6682 10.9925 8.46005 10.49C8.25191 9.98755 8.19745 9.43462 8.30356 8.90117C8.40967 8.36772 8.67159 7.87772 9.05618 7.49312C9.44077 7.10853 9.93078 6.84662 10.4642 6.74051C10.9977 6.6344 11.5506 6.68886 12.0531 6.897C12.5556 7.10514 12.9851 7.45761 13.2873 7.90985C13.5894 8.36208 13.7507 8.89377 13.7507 9.43767C13.7498 10.1667 13.4598 10.8657 12.9443 11.3812C12.4287 11.8967 11.7298 12.1868 11.0007 12.1877Z" fill="black"/>
</svg>
