<svg width="36" height="35" viewBox="0 0 36 35" fill="none" xmlns="http://www.w3.org/2000/svg">
<path d="M25.9943 18.6292C25.5815 18.7644 25.3129 18.6479 25.1128 18.456C24.9112 18.2642 23.2699 16.2907 22.7439 15.687C22.4782 15.3824 22.2786 14.688 23.0779 14.3913C23.7339 14.1536 24.9112 13.7746 25.2379 13.6037C25.5638 13.4307 25.7358 13.2535 25.7673 12.9192C25.7927 12.5821 25.7959 12.2051 25.7974 12.0795C25.8002 11.9521 25.9642 11.8514 26.0478 12.0003C26.1051 12.1051 26.4003 12.6797 26.7597 13.344C27.2953 14.3411 27.9732 15.5883 28.1949 16.124C28.4023 16.6371 28.3005 17.027 27.9824 17.4201C27.5523 17.9525 26.2963 18.5303 25.9943 18.6292ZM32.2379 30.0795C31.6799 28.4097 29.4229 24.2191 27.6483 21.8606C27.2643 21.3466 27.4075 21.0824 27.6134 20.9166C27.8175 20.7501 28.4782 20.1801 29.2585 19.2861C30.0477 18.3838 30.2379 17.3639 29.6804 15.8877C29.1252 14.4261 27.2904 10.95 26.9054 9.79954C26.4639 8.47133 26.4195 7.88096 26.6846 7.15717C26.9995 6.30598 27.4562 6.26976 27.8023 6.27546C27.9872 6.27905 28.1246 6.47419 28.1261 6.56333C28.1362 6.9398 28.1547 7.40277 28.5198 8.37273C29.1051 9.91702 30.6063 10.9257 31.0793 11.1295C31.4095 11.2719 31.4678 11.0172 31.4391 10.8937C31.4095 10.7713 30.9207 8.85715 30.5547 7.41852C30.1711 5.91046 29.9785 5.58337 29.6374 5.2644C29.0932 4.74893 28.2685 4.4723 27.5701 4.49905C26.0115 4.55972 25.323 6.06544 25.2379 6.2052C25.1644 6.32991 25.1343 6.41763 24.9757 6.30815C24.5294 5.99642 23.2298 4.90968 23.1098 4.22911C23.0392 3.82748 22.969 3.77109 22.5667 3.61493C21.0024 3.0055 19.6488 2.46852 18.1496 2.20376C17.5476 2.09775 17.5161 2.04636 16.8146 2.17653C15.6231 2.39896 14.8935 2.67342 13.9976 3.14285C13.5055 3.40444 13.4472 3.57906 13.3517 3.704C13.2771 3.80102 13.1969 3.91738 13.0191 3.97635C12.7215 4.07236 11.6164 4.48447 11.2375 4.70401C11.0014 4.8426 10.872 4.98688 10.9934 5.25417C11.2055 5.72554 11.8415 6.70732 12.119 6.95438C12.2872 7.10343 12.7105 7.20621 12.8104 7.22767C12.9102 7.25254 12.9809 7.28159 13.0191 7.20621C13.0602 7.12442 13.0755 7.00377 13.2729 6.86554C13.5695 6.6577 14.1219 6.51359 14.4157 6.48689C14.6408 6.4682 14.7774 6.46085 14.8935 6.54446C15.0086 6.62948 15.2743 6.91258 15.3669 7.19804C15.4591 7.48332 15.4014 7.59056 15.2422 7.65771C15.0817 7.72409 14.6035 7.83321 14.0478 7.87813C13.494 7.92282 13.3374 7.76942 13.2981 7.73485C13.2685 7.70374 13.1955 7.657 13.1396 7.7315C13.0459 7.86073 12.9064 7.94452 12.6904 8.05229C12.5677 8.11203 12.5022 8.24244 12.6178 8.44646C12.9713 9.05571 13.4357 9.74027 13.8672 9.87051C14.2088 9.97699 14.3932 9.86457 14.7783 9.58934C15.1243 9.3404 15.3488 9.34163 15.4434 9.4116C15.5466 9.48951 15.754 9.66531 15.7014 9.84134C15.6097 10.1474 14.9929 10.8769 14.8739 11.0274C14.763 11.1698 14.6579 11.2453 14.4582 11.1503C14.1668 11.0107 9.73867 8.71357 9.14764 8.48303C8.50318 8.23526 8.07984 8.17488 7.44484 8.14595C6.93179 8.1232 6.2471 8.17294 5.81854 8.25061C5.50556 8.30811 5.32782 8.45604 5.03637 8.72527C4.63549 9.09581 4.21169 9.57023 4.17253 9.96482C4.14337 10.2491 4.46016 10.8295 4.49362 10.8698C4.52896 10.9133 4.58628 10.9938 4.75832 10.9746C4.93312 10.9548 5.37174 10.7274 5.89491 10.818C6.3684 10.8997 6.41526 11.2719 6.44107 11.5574C6.44389 11.6068 6.50363 11.7174 6.63792 11.7148C6.8266 11.7126 7.12234 11.7188 7.46254 11.882C7.88252 12.0817 8.71431 12.7252 8.84237 12.8681C8.94562 12.9842 8.93939 13.0895 8.74107 13.1088C7.6852 13.2021 6.07889 13.5165 5.33546 13.7603C4.808 13.9326 4.18547 14.1701 3.96516 14.5523C3.7158 14.9844 3.40142 15.6798 3.31111 16.1765C3.2208 16.67 3.74873 17.2826 3.89066 17.4187C3.98574 17.5114 4.05018 17.5687 4.21886 17.477C4.47645 17.3284 5.10134 16.9439 5.69953 16.9084C6.06172 16.8872 6.20688 17.2286 6.29437 17.3544C6.3818 17.4778 6.46588 17.392 6.79079 17.3041C7.366 17.1497 10.5786 17.2085 11.7129 17.262C12.2318 17.284 12.9537 17.361 13.4845 17.6541C14.012 17.9445 14.9685 18.8464 14.9685 18.8464C14.9685 18.8464 13.6981 20.9748 13.0153 22.2362C12.3827 23.402 11.9202 24.2773 11.6928 24.7843C11.4826 25.2481 11.3116 25.9056 11.3493 26.4235C11.4071 27.1812 11.4262 27.5706 11.4167 27.9138C11.4081 28.2157 11.1257 28.2491 10.7263 28.3466C10.1763 28.4865 9.07891 28.5874 8.18979 28.8068C7.38087 29.0083 7.07984 29.198 6.93367 29.8235C6.82043 30.3093 6.65368 31.519 6.63404 32.079C6.62405 32.3055 6.62069 32.4163 6.90686 32.357C7.07166 32.3246 7.54762 32.2558 8.1534 32.2113C8.90352 32.1536 9.71626 32.166 10.3445 32.164C11.4989 32.1574 14.9112 32.357 15.1401 32.379C15.4319 32.4077 15.4902 32.3723 15.4701 32.1688C15.4434 31.9003 15.3947 31.0427 15.3813 30.5315C15.3669 30.0188 15.2896 29.499 15.7526 29.0001C16.2117 28.5005 19.6881 24.6237 19.881 24.425C20.0493 24.2567 20.1615 24.0771 20.4209 24.3131C20.6814 24.553 23.5432 26.6161 24.1238 27.038C24.7067 27.4598 25.2465 27.6032 25.9087 27.6127C26.3813 27.6204 26.5131 28.445 26.1103 28.5219C25.6994 28.6017 25.0702 28.7303 24.6321 28.8296C23.9542 28.9878 23.7477 29.2099 23.5432 29.6657C23.3703 30.0514 23.1773 31.9452 23.172 32.1087C23.1659 32.2267 23.1582 32.3973 23.3446 32.3585C24.1801 32.1889 25.5045 32.1412 26.9193 32.1855C28.5456 32.2352 30.1242 32.3695 30.3468 32.3829C30.5838 32.4002 30.6078 32.3638 30.7286 32.1765C30.9336 31.8553 31.5456 31.1493 32.0779 30.7131C32.3435 30.4956 32.3497 30.4058 32.2379 30.0795Z" fill="black"/>
<mask id="mask0_214_2122" style="mask-type:luminance" maskUnits="userSpaceOnUse" x="24" y="4" width="8" height="19">
<path d="M27.6719 4.80608C26.3924 4.80008 25.0957 6.28363 25.3418 8.49566C25.4961 9.84957 25.702 10.4669 26.1038 11.3419C26.303 11.7743 28.488 15.9345 28.5887 16.3744C28.725 17.0041 28.6036 17.398 28.1201 17.8386C27.5868 18.3216 26.7024 18.87 26.1057 19.0758C25.9648 19.124 25.8348 19.1482 25.7172 19.1482C25.5821 19.1482 25.2448 19.1023 24.6055 18.3144L27.4287 22.082C27.0685 21.6004 26.8822 21.2361 26.948 20.9166C27.0121 20.6027 27.5261 20.2595 28.1176 19.7936C28.7106 19.3325 29.3661 18.7513 29.6667 17.9646C29.7546 17.7408 29.7923 17.5084 29.7923 17.2654C29.7923 16.5143 29.4282 15.6636 28.9916 14.7413C28.4273 13.5447 26.8258 10.9344 26.3398 9.10438C26.2199 8.65535 26.1673 8.25131 26.1673 7.89277C26.1673 6.85577 26.6084 6.19761 27.1487 5.97448C27.4077 5.86988 27.6394 5.83401 27.8329 5.83401C28.1296 5.83401 28.335 5.91644 28.4206 5.96154C28.572 6.04732 28.594 6.22771 28.594 6.37006V6.40116C28.5936 6.43409 28.5887 6.51099 28.5887 6.62476C28.5887 7.05186 28.6466 7.98931 29.144 8.89948C29.7708 10.0557 30.8253 10.7009 31.24 10.8751C31.2749 10.8903 30.2706 7.16463 30.0899 6.46184C29.8821 5.64293 29.304 4.82254 27.6872 4.80608C27.6853 4.80525 27.6833 4.80478 27.6808 4.80478C27.6784 4.80478 27.6755 4.80525 27.6719 4.80608Z" fill="white"/>
</mask>
<g mask="url(#mask0_214_2122)">
<path d="M27.6719 4.80608C26.3924 4.80008 25.0957 6.28363 25.3418 8.49566C25.4961 9.84957 25.702 10.4669 26.1038 11.3419C26.303 11.7743 28.488 15.9345 28.5887 16.3744C28.725 17.0041 28.6036 17.398 28.1201 17.8386C27.5868 18.3216 26.7024 18.87 26.1057 19.0758C25.9648 19.124 25.8348 19.1482 25.7172 19.1482C25.5821 19.1482 25.2448 19.1023 24.6055 18.3144L27.4287 22.082C27.0685 21.6004 26.8822 21.2361 26.948 20.9166C27.0121 20.6027 27.5261 20.2595 28.1176 19.7936C28.7106 19.3325 29.3661 18.7513 29.6667 17.9646C29.7546 17.7408 29.7923 17.5084 29.7923 17.2654C29.7923 16.5143 29.4282 15.6636 28.9916 14.7413C28.4273 13.5447 26.8258 10.9344 26.3398 9.10438C26.2199 8.65535 26.1673 8.25131 26.1673 7.89277C26.1673 6.85577 26.6084 6.19761 27.1487 5.97448C27.4077 5.86988 27.6394 5.83401 27.8329 5.83401C28.1296 5.83401 28.335 5.91644 28.4206 5.96154C28.572 6.04732 28.594 6.22771 28.594 6.37006V6.40116C28.5936 6.43409 28.5887 6.51099 28.5887 6.62476C28.5887 7.05186 28.6466 7.98931 29.144 8.89948C29.7708 10.0557 30.8253 10.7009 31.24 10.8751C31.2749 10.8903 30.2706 7.16463 30.0899 6.46184C29.8821 5.64293 29.304 4.82254 27.6872 4.80608C27.6853 4.80525 27.6833 4.80478 27.6808 4.80478C27.6784 4.80478 27.6755 4.80525 27.6719 4.80608Z" fill="url(#paint0_linear_214_2122)"/>
</g>
<mask id="mask1_214_2122" style="mask-type:luminance" maskUnits="userSpaceOnUse" x="3" y="13" width="8" height="4">
<path d="M10.1039 13.0845C10.35 13.3312 9.92098 13.3171 8.61946 13.4304C7.29408 13.5455 5.95916 13.8128 5.26113 14.0749C4.75037 14.2676 4.44075 14.4039 4.23673 14.8726C4.23673 14.8726 3.81245 15.7949 3.75565 16.1594C3.72884 16.332 3.73701 16.4314 3.8268 16.5764C3.87695 16.6532 3.99931 14.1714 7.20235 14.0083C10.0365 13.8638 10.7341 13.5663 10.1803 13.0247L10.1039 13.0845Z" fill="white"/>
</mask>
<g mask="url(#mask1_214_2122)">
<path d="M10.1039 13.0845C10.35 13.3312 9.92098 13.3171 8.61946 13.4304C7.29408 13.5455 5.95916 13.8128 5.26113 14.0749C4.75037 14.2676 4.44075 14.4039 4.23673 14.8726C4.23673 14.8726 3.81245 15.7949 3.75565 16.1594C3.72884 16.332 3.73701 16.4314 3.8268 16.5764C3.87695 16.6532 3.99931 14.1714 7.20235 14.0083C10.0365 13.8638 10.7341 13.5663 10.1803 13.0247L10.1039 13.0845Z" fill="url(#paint1_linear_214_2122)"/>
</g>
<mask id="mask2_214_2122" style="mask-type:luminance" maskUnits="userSpaceOnUse" x="26" y="5" width="3" height="4">
<path d="M27.8167 5.94832C27.6429 5.94832 27.4351 5.97913 27.2 6.07662C26.7528 6.25748 26.3433 6.81798 26.3242 7.7716L26.3289 7.98968C26.3289 7.98968 26.3901 7.3408 26.5053 7.03529C26.7906 6.2092 27.3185 6.03722 27.683 6.03722C27.9272 6.03722 28.0374 6.09567 28.1417 6.20485C28.2219 6.29305 28.2744 6.37383 28.2855 6.49801C28.2945 6.86708 28.3094 7.29111 28.6677 8.24714C28.6888 8.30529 28.7116 8.36309 28.736 8.41895C28.4326 7.64666 28.3958 6.92969 28.3958 6.56375C28.3944 6.44645 28.4002 6.31021 28.4002 6.31021C28.4016 6.02976 28.0944 5.94832 27.8181 5.94832C27.8176 5.94832 27.8172 5.94832 27.8167 5.94832Z" fill="white"/>
</mask>
<g mask="url(#mask2_214_2122)">
<path d="M27.8167 5.94832C27.6429 5.94832 27.4351 5.97913 27.2 6.07662C26.7528 6.25748 26.3433 6.81798 26.3242 7.7716L26.3289 7.98968C26.3289 7.98968 26.3901 7.3408 26.5053 7.03529C26.7906 6.2092 27.3185 6.03722 27.683 6.03722C27.9272 6.03722 28.0374 6.09567 28.1417 6.20485C28.2219 6.29305 28.2744 6.37383 28.2855 6.49801C28.2945 6.86708 28.3094 7.29111 28.6677 8.24714C28.6888 8.30529 28.7116 8.36309 28.736 8.41895C28.4326 7.64666 28.3958 6.92969 28.3958 6.56375C28.3944 6.44645 28.4002 6.31021 28.4002 6.31021C28.4016 6.02976 28.0944 5.94832 27.8181 5.94832C27.8176 5.94832 27.8172 5.94832 27.8167 5.94832Z" fill="url(#paint2_linear_214_2122)"/>
</g>
<mask id="mask3_214_2122" style="mask-type:luminance" maskUnits="userSpaceOnUse" x="3" y="13" width="15" height="7">
<path d="M10.2132 13.1924C10.3092 13.4545 9.92606 13.3929 8.6246 13.5059C7.29921 13.6212 5.96336 13.8778 5.2648 14.1401C4.75362 14.3327 4.44494 14.4689 4.24045 14.9378C4.24045 14.9378 3.81523 15.861 3.75791 16.2254C3.73116 16.3972 3.77367 16.498 3.86445 16.641C4.00021 16.8558 4.08758 16.9019 4.28584 16.7885C4.44688 16.6963 5.15491 16.2946 5.6194 16.2858C6.04268 16.2765 6.229 16.5347 6.29103 16.7558C6.32884 16.8928 6.51563 16.8216 6.54815 16.8133C6.73347 16.7665 6.91416 16.7108 7.57685 16.6631C8.36372 16.6052 11.4335 16.6313 12.5606 16.6578C13.5744 16.6811 17.5667 19.8135 17.6251 19.8281L17.8267 19.4244C16.4707 18.303 11.432 14.3085 10.2146 13.1172L10.2132 13.1924Z" fill="white"/>
</mask>
<g mask="url(#mask3_214_2122)">
<path d="M10.2132 13.1924C10.3092 13.4545 9.92606 13.3929 8.6246 13.5059C7.29921 13.6212 5.96336 13.8778 5.2648 14.1401C4.75362 14.3327 4.44494 14.4689 4.24045 14.9378C4.24045 14.9378 3.81523 15.861 3.75791 16.2254C3.73116 16.3972 3.77367 16.498 3.86445 16.641C4.00021 16.8558 4.08758 16.9019 4.28584 16.7885C4.44688 16.6963 5.15491 16.2946 5.6194 16.2858C6.04268 16.2765 6.229 16.5347 6.29103 16.7558C6.32884 16.8928 6.51563 16.8216 6.54815 16.8133C6.73347 16.7665 6.91416 16.7108 7.57685 16.6631C8.36372 16.6052 11.4335 16.6313 12.5606 16.6578C13.5744 16.6811 17.5667 19.8135 17.6251 19.8281L17.8267 19.4244C16.4707 18.303 11.432 14.3085 10.2146 13.1172L10.2132 13.1924Z" fill="url(#paint3_linear_214_2122)"/>
</g>
<mask id="mask4_214_2122" style="mask-type:luminance" maskUnits="userSpaceOnUse" x="4" y="8" width="28" height="24">
<path d="M6.18357 8.56026C5.93321 8.5923 5.76317 8.60477 5.49935 8.84989C5.24041 9.09107 4.79033 9.41886 4.61547 9.75241C4.54868 9.87853 4.51516 9.96667 4.53139 10.0816C4.55814 10.2433 4.63411 10.4151 4.67809 10.4683C4.72636 10.5254 4.79033 10.5525 4.92127 10.5164C5.1912 10.4427 5.66851 10.38 5.95802 10.3893C6.16352 10.3923 6.45973 10.4445 6.59632 10.5997C6.77794 10.8113 6.76547 10.9867 6.7713 11.0775C6.77224 11.1183 6.78658 11.1951 6.87442 11.2082C7.05593 11.2333 7.2519 11.2333 7.46121 11.2798C8.05076 11.4094 8.84387 11.911 9.58347 12.5923C11.0173 13.915 12.799 15.895 14.5071 17.2578C15.3703 17.9459 16.7884 18.8078 17.2567 19.277C17.3436 19.3637 17.1563 19.4279 17.0149 19.3563C16.9489 19.3243 16.1444 18.6919 15.9686 18.6487C15.8199 18.6116 15.6637 18.6485 15.5099 18.863C14.1702 20.7142 12.6279 23.8216 11.9991 25.2942C11.8519 25.6439 11.7254 26.0835 11.7449 26.48C11.764 26.8786 11.8071 27.6716 11.8133 28.0447C11.8175 28.4103 11.7277 28.5564 11.294 28.6262C10.498 28.7485 8.72869 29.0668 8.27913 29.1771C7.93893 29.2592 7.65377 29.4136 7.5233 29.8077C7.33551 30.3787 7.18352 31.2555 7.16917 31.4695C7.16017 31.6014 7.20698 31.6926 7.35985 31.6543C8.00961 31.491 9.01296 31.3601 10.3933 31.3864C11.7746 31.4165 14.238 31.6592 14.5572 31.6882C14.6671 31.6983 14.8003 31.7002 14.7989 31.5722C14.7966 31.425 14.7598 30.7591 14.7501 29.9076C14.7411 29.0571 15.4822 28.4327 16.5084 27.3691C17.538 26.3018 20.0192 23.8551 20.1123 23.77C20.174 23.7088 20.2409 23.6493 20.1152 23.5269C19.9413 23.3605 19.1496 22.5428 19.0599 22.4492C19.0139 22.3995 18.9136 22.2729 18.9523 22.2288C18.9905 22.1838 19.0851 22.2571 19.207 22.3575C19.6861 22.7471 24.9322 26.9707 25.2967 27.1355C25.6704 27.298 25.8993 27.3468 26.2332 27.405C26.4854 27.4509 26.7053 27.8231 26.7421 28.1006C26.7774 28.3777 26.7611 28.7456 26.3737 28.8412C25.9891 28.9373 25.0359 29.1135 24.7009 29.2062C24.3632 29.299 24.1382 29.4504 23.9939 29.8364C23.8486 30.2249 23.6598 31.2808 23.6564 31.3701C23.6523 31.6037 23.7143 31.6219 23.893 31.578C24.1142 31.5268 24.3736 31.4528 25.3766 31.4188C27.0646 31.3592 29.6326 31.5765 29.9637 31.6028C30.077 31.6132 30.1692 31.4981 30.2098 31.4274C30.5672 30.8101 30.4658 30.652 30.9465 30.2622C31.1959 30.0614 31.3149 30.0222 31.1586 29.6663C29.5906 26.0964 28.0989 23.6733 25.6837 20.5789C24.1334 18.5942 22.3254 16.3972 21.7177 15.6673L14.4282 11.4977C13.9958 11.2927 10.6256 9.56773 10.045 9.27886C9.46311 8.99153 8.99291 8.75699 8.39954 8.62288C7.98291 8.5281 7.56957 8.49499 7.1844 8.49499C6.81821 8.49499 6.47743 8.52492 6.18357 8.56026Z" fill="white"/>
</mask>
<g mask="url(#mask4_214_2122)">
<path d="M6.18357 8.56026C5.93321 8.5923 5.76317 8.60477 5.49935 8.84989C5.24041 9.09107 4.79033 9.41886 4.61547 9.75241C4.54868 9.87853 4.51516 9.96667 4.53139 10.0816C4.55814 10.2433 4.63411 10.4151 4.67809 10.4683C4.72636 10.5254 4.79033 10.5525 4.92127 10.5164C5.1912 10.4427 5.66851 10.38 5.95802 10.3893C6.16352 10.3923 6.45973 10.4445 6.59632 10.5997C6.77794 10.8113 6.76547 10.9867 6.7713 11.0775C6.77224 11.1183 6.78658 11.1951 6.87442 11.2082C7.05593 11.2333 7.2519 11.2333 7.46121 11.2798C8.05076 11.4094 8.84387 11.911 9.58347 12.5923C11.0173 13.915 12.799 15.895 14.5071 17.2578C15.3703 17.9459 16.7884 18.8078 17.2567 19.277C17.3436 19.3637 17.1563 19.4279 17.0149 19.3563C16.9489 19.3243 16.1444 18.6919 15.9686 18.6487C15.8199 18.6116 15.6637 18.6485 15.5099 18.863C14.1702 20.7142 12.6279 23.8216 11.9991 25.2942C11.8519 25.6439 11.7254 26.0835 11.7449 26.48C11.764 26.8786 11.8071 27.6716 11.8133 28.0447C11.8175 28.4103 11.7277 28.5564 11.294 28.6262C10.498 28.7485 8.72869 29.0668 8.27913 29.1771C7.93893 29.2592 7.65377 29.4136 7.5233 29.8077C7.33551 30.3787 7.18352 31.2555 7.16917 31.4695C7.16017 31.6014 7.20698 31.6926 7.35985 31.6543C8.00961 31.491 9.01296 31.3601 10.3933 31.3864C11.7746 31.4165 14.238 31.6592 14.5572 31.6882C14.6671 31.6983 14.8003 31.7002 14.7989 31.5722C14.7966 31.425 14.7598 30.7591 14.7501 29.9076C14.7411 29.0571 15.4822 28.4327 16.5084 27.3691C17.538 26.3018 20.0192 23.8551 20.1123 23.77C20.174 23.7088 20.2409 23.6493 20.1152 23.5269C19.9413 23.3605 19.1496 22.5428 19.0599 22.4492C19.0139 22.3995 18.9136 22.2729 18.9523 22.2288C18.9905 22.1838 19.0851 22.2571 19.207 22.3575C19.6861 22.7471 24.9322 26.9707 25.2967 27.1355C25.6704 27.298 25.8993 27.3468 26.2332 27.405C26.4854 27.4509 26.7053 27.8231 26.7421 28.1006C26.7774 28.3777 26.7611 28.7456 26.3737 28.8412C25.9891 28.9373 25.0359 29.1135 24.7009 29.2062C24.3632 29.299 24.1382 29.4504 23.9939 29.8364C23.8486 30.2249 23.6598 31.2808 23.6564 31.3701C23.6523 31.6037 23.7143 31.6219 23.893 31.578C24.1142 31.5268 24.3736 31.4528 25.3766 31.4188C27.0646 31.3592 29.6326 31.5765 29.9637 31.6028C30.077 31.6132 30.1692 31.4981 30.2098 31.4274C30.5672 30.8101 30.4658 30.652 30.9465 30.2622C31.1959 30.0614 31.3149 30.0222 31.1586 29.6663C29.5906 26.0964 28.0989 23.6733 25.6837 20.5789C24.1334 18.5942 22.3254 16.3972 21.7177 15.6673L14.4282 11.4977C13.9958 11.2927 10.6256 9.56773 10.045 9.27886C9.46311 8.99153 8.99291 8.75699 8.39954 8.62288C7.98291 8.5281 7.56957 8.49499 7.1844 8.49499C6.81821 8.49499 6.47743 8.52492 6.18357 8.56026Z" fill="url(#paint4_linear_214_2122)"/>
</g>
<mask id="mask5_214_2122" style="mask-type:luminance" maskUnits="userSpaceOnUse" x="11" y="4" width="10" height="10">
<path d="M14.3108 5.14117C13.262 5.42328 11.9208 5.96985 11.8721 5.9976C11.8444 6.01577 11.8482 6.04205 11.863 6.07333C11.8755 6.10196 12.0159 6.3452 12.0159 6.3452C12.0159 6.3452 12.0871 6.50954 12.2888 6.62349C12.489 6.73673 12.6863 6.78482 12.7378 6.79594C12.7895 6.80699 12.8134 6.78494 12.8315 6.75778C12.8473 6.73485 13.0456 6.3562 13.7708 6.1677C14.1636 6.06833 14.414 6.05663 14.5334 6.05663C14.7226 6.06139 15.0159 6.15482 15.1794 6.31316C15.4449 6.57498 15.6772 7.00837 15.7174 7.21621C15.7603 7.41712 15.7269 7.66795 15.5253 7.77231C15.3251 7.87503 14.7379 8.01408 14.3704 8.05112C13.9887 8.08769 13.6179 8.07 13.3987 7.94288C13.3628 7.92359 13.3379 7.92048 13.304 7.94699C13.2213 8.01596 13.1717 8.07235 13.0074 8.16936C12.972 8.18994 12.9486 8.23562 12.9844 8.30653C13.0192 8.37668 13.4794 9.14021 13.7574 9.34499C14.0346 9.55301 14.1827 9.45977 14.5147 9.27573C14.8478 9.09194 15.0724 8.86668 15.4173 8.87815C15.7675 8.8882 16.0642 9.18513 16.1177 9.53103C16.1841 9.95048 15.9142 10.2251 15.7513 10.4838C15.5911 10.7375 15.2615 11.1161 15.0924 11.3272C14.8783 11.5998 14.467 11.5175 14.467 11.5175C14.467 11.5175 16.4081 12.5038 17.5256 13.0649C17.9681 13.2895 18.6628 13.0809 19.1354 12.1985C19.2453 11.9935 19.9428 10.5158 20.1177 10.0752C20.2931 9.63645 20.5409 9.14932 20.1421 8.31147C19.7417 7.47539 18.5014 5.93092 18.0078 5.33808C17.7489 5.02864 17.445 4.83925 16.7894 4.80333C16.7046 4.79868 16.617 4.79633 16.5267 4.79633C15.9287 4.79633 15.2064 4.90022 14.3108 5.14117Z" fill="white"/>
</mask>
<g mask="url(#mask5_214_2122)">
<path d="M14.3108 5.14117C13.262 5.42328 11.9208 5.96985 11.8721 5.9976C11.8444 6.01577 11.8482 6.04205 11.863 6.07333C11.8755 6.10196 12.0159 6.3452 12.0159 6.3452C12.0159 6.3452 12.0871 6.50954 12.2888 6.62349C12.489 6.73673 12.6863 6.78482 12.7378 6.79594C12.7895 6.80699 12.8134 6.78494 12.8315 6.75778C12.8473 6.73485 13.0456 6.3562 13.7708 6.1677C14.1636 6.06833 14.414 6.05663 14.5334 6.05663C14.7226 6.06139 15.0159 6.15482 15.1794 6.31316C15.4449 6.57498 15.6772 7.00837 15.7174 7.21621C15.7603 7.41712 15.7269 7.66795 15.5253 7.77231C15.3251 7.87503 14.7379 8.01408 14.3704 8.05112C13.9887 8.08769 13.6179 8.07 13.3987 7.94288C13.3628 7.92359 13.3379 7.92048 13.304 7.94699C13.2213 8.01596 13.1717 8.07235 13.0074 8.16936C12.972 8.18994 12.9486 8.23562 12.9844 8.30653C13.0192 8.37668 13.4794 9.14021 13.7574 9.34499C14.0346 9.55301 14.1827 9.45977 14.5147 9.27573C14.8478 9.09194 15.0724 8.86668 15.4173 8.87815C15.7675 8.8882 16.0642 9.18513 16.1177 9.53103C16.1841 9.95048 15.9142 10.2251 15.7513 10.4838C15.5911 10.7375 15.2615 11.1161 15.0924 11.3272C14.8783 11.5998 14.467 11.5175 14.467 11.5175C14.467 11.5175 16.4081 12.5038 17.5256 13.0649C17.9681 13.2895 18.6628 13.0809 19.1354 12.1985C19.2453 11.9935 19.9428 10.5158 20.1177 10.0752C20.2931 9.63645 20.5409 9.14932 20.1421 8.31147C19.7417 7.47539 18.5014 5.93092 18.0078 5.33808C17.7489 5.02864 17.445 4.83925 16.7894 4.80333C16.7046 4.79868 16.617 4.79633 16.5267 4.79633C15.9287 4.79633 15.2064 4.90022 14.3108 5.14117Z" fill="url(#paint5_radial_214_2122)"/>
</g>
<mask id="mask6_214_2122" style="mask-type:luminance" maskUnits="userSpaceOnUse" x="12" y="7" width="4" height="3">
<path d="M12.9883 7.84777H15.4952V9.41992H12.9883V7.84777Z" fill="white"/>
</mask>
<g mask="url(#mask6_214_2122)">
<g opacity="0.850006">
<mask id="mask7_214_2122" style="mask-type:luminance" maskUnits="userSpaceOnUse" x="12" y="7" width="4" height="3">
<path d="M15.4952 7.84772C15.2993 7.94309 14.7231 8.07132 14.3638 8.1046C13.9902 8.13965 13.6261 8.12248 13.4116 8.00541C13.3767 7.98824 13.3518 7.98501 13.3194 8.00923C13.2382 8.07309 13.1894 8.12553 13.0298 8.21438C12.994 8.23354 12.9706 8.27652 13.0054 8.34126C13.0404 8.40576 13.4551 9.10385 13.7375 9.30405C14.0198 9.50731 14.1698 9.41653 14.5081 9.23637C14.8464 9.05611 15.0743 8.83532 15.4254 8.84649L15.4952 7.84772Z" fill="white"/>
</mask>
<g mask="url(#mask7_214_2122)">
<path d="M15.4952 7.84772C15.2993 7.94309 14.7231 8.07132 14.3638 8.1046C13.9902 8.13965 13.6261 8.12248 13.4116 8.00541C13.3767 7.98824 13.3518 7.98501 13.3194 8.00923C13.2382 8.07309 13.1894 8.12553 13.0298 8.21438C12.994 8.23354 12.9706 8.27652 13.0054 8.34126C13.0404 8.40576 13.4551 9.10385 13.7375 9.30405C14.0198 9.50731 14.1698 9.41653 14.5081 9.23637C14.8464 9.05611 15.0743 8.83532 15.4254 8.84649L15.4952 7.84772Z" fill="url(#paint6_radial_214_2122)"/>
</g>
</g>
</g>
<mask id="mask8_214_2122" style="mask-type:luminance" maskUnits="userSpaceOnUse" x="11" y="5" width="4" height="2">
<path d="M11.9219 5.2546H14.532V6.79883H11.9219V5.2546Z" fill="white"/>
</mask>
<g mask="url(#mask8_214_2122)">
<g opacity="0.850006">
<mask id="mask9_214_2122" style="mask-type:luminance" maskUnits="userSpaceOnUse" x="11" y="5" width="4" height="2">
<path d="M14.2573 5.25463C13.2607 5.51145 11.9879 6.00716 11.9415 6.03221C11.9148 6.04896 11.9191 6.10341 11.9324 6.13228C11.9449 6.15809 12.0772 6.37864 12.0772 6.37864C12.0772 6.37864 12.1441 6.52839 12.3362 6.63134C12.5268 6.73412 12.685 6.78474 12.7365 6.79591C12.7881 6.80697 12.812 6.78492 12.8301 6.75776C12.8459 6.73482 13.0443 6.35618 13.7695 6.16767C14.1623 6.06831 14.4126 6.05661 14.532 6.05661L14.2573 5.25463Z" fill="white"/>
</mask>
<g mask="url(#mask9_214_2122)">
<path d="M14.2573 5.25463C13.2607 5.51145 11.9879 6.00716 11.9415 6.03221C11.9148 6.04896 11.9191 6.10341 11.9324 6.13228C11.9449 6.15809 12.0772 6.37864 12.0772 6.37864C12.0772 6.37864 12.1441 6.52839 12.3362 6.63134C12.5268 6.73412 12.685 6.78474 12.7365 6.79591C12.7881 6.80697 12.812 6.78492 12.8301 6.75776C12.8459 6.73482 13.0443 6.35618 13.7695 6.16767C14.1623 6.06831 14.4126 6.05661 14.532 6.05661L14.2573 5.25463Z" fill="url(#paint7_radial_214_2122)"/>
</g>
</g>
</g>
<mask id="mask10_214_2122" style="mask-type:luminance" maskUnits="userSpaceOnUse" x="14" y="9" width="7" height="5">
<path d="M14.5703 9.59017H20.0906V13.1572H14.5703V9.59017Z" fill="white"/>
</mask>
<g mask="url(#mask10_214_2122)">
<g opacity="0.850006">
<mask id="mask11_214_2122" style="mask-type:luminance" maskUnits="userSpaceOnUse" x="14" y="9" width="7" height="5">
<path d="M16.1236 9.59014C16.19 10.0099 15.9205 10.3137 15.7572 10.5715C15.5957 10.8257 15.266 11.2047 15.0988 11.416C14.8838 11.6878 14.5703 11.5694 14.5703 11.5694C14.5703 11.5694 16.4069 12.5036 17.5244 13.0648C17.9669 13.2893 18.6363 13.1364 19.1073 12.2533C19.2172 12.0483 19.9173 10.5701 20.0906 10.1305L16.1236 9.59014Z" fill="white"/>
</mask>
<g mask="url(#mask11_214_2122)">
<path d="M16.1236 9.59014C16.19 10.0099 15.9205 10.3137 15.7572 10.5715C15.5957 10.8257 15.266 11.2047 15.0988 11.416C14.8838 11.6878 14.5703 11.5694 14.5703 11.5694C14.5703 11.5694 16.4069 12.5036 17.5244 13.0648C17.9669 13.2893 18.6363 13.1364 19.1073 12.2533C19.2172 12.0483 19.9173 10.5701 20.0906 10.1305L16.1236 9.59014Z" fill="url(#paint8_radial_214_2122)"/>
</g>
</g>
</g>
<mask id="mask12_214_2122" style="mask-type:luminance" maskUnits="userSpaceOnUse" x="6" y="15" width="7" height="2">
<path d="M9.77211 15.4907C9.30197 15.518 8.19925 15.6191 7.88298 15.6909C7.57665 15.7624 7.0703 16.1769 7.00292 16.2472C6.88921 16.3673 6.88968 16.4686 6.97564 16.5032C7.04831 16.5318 7.20929 16.5074 7.33876 16.4965C7.72676 16.4638 8.77975 16.431 9.97325 16.4287C10.5922 16.4271 11.2655 16.4341 11.7972 16.4412C12.3492 16.4486 12.7484 16.4559 12.776 16.4535C12.3153 15.953 11.9255 15.3458 11.7698 15.3384C11.7661 15.3382 11.7618 15.3382 11.7565 15.3382C11.5358 15.3382 9.9024 15.4843 9.77211 15.4907Z" fill="white"/>
</mask>
<g mask="url(#mask12_214_2122)">
<path d="M9.77211 15.4907C9.30197 15.518 8.19925 15.6191 7.88298 15.6909C7.57665 15.7624 7.0703 16.1769 7.00292 16.2472C6.88921 16.3673 6.88968 16.4686 6.97564 16.5032C7.04831 16.5318 7.20929 16.5074 7.33876 16.4965C7.72676 16.4638 8.77975 16.431 9.97325 16.4287C10.5922 16.4271 11.2655 16.4341 11.7972 16.4412C12.3492 16.4486 12.7484 16.4559 12.776 16.4535C12.3153 15.953 11.9255 15.3458 11.7698 15.3384C11.7661 15.3382 11.7618 15.3382 11.7565 15.3382C11.5358 15.3382 9.9024 15.4843 9.77211 15.4907Z" fill="url(#paint9_linear_214_2122)"/>
</g>
<path d="M7.07697 16.4939C7.15388 16.4939 7.25089 16.4815 7.33785 16.4736C7.72673 16.4406 8.77878 16.4079 9.97328 16.4055H10.1414C11.2422 16.4055 12.4582 16.4296 12.7234 16.4316C12.3918 16.0646 12.0989 15.6503 11.9112 15.4624C11.8486 15.3964 11.7941 15.3615 11.7687 15.3621C11.7659 15.3615 11.7621 15.3615 11.7573 15.3615C11.5394 15.3615 9.90402 15.5075 9.77308 15.5139C9.30536 15.5417 8.19975 15.6425 7.88919 15.7137C7.59291 15.781 7.0808 16.1969 7.01959 16.2638C6.96085 16.3247 6.93651 16.3799 6.93651 16.4162C6.93739 16.4487 6.95174 16.4681 6.98331 16.4819C7.00436 16.4903 7.03776 16.4939 7.07697 16.4939ZM6.96703 16.5245C6.91981 16.5073 6.88965 16.4657 6.89065 16.4162C6.89065 16.3604 6.9231 16.2982 6.98619 16.2316C7.05834 16.1563 7.56093 15.7452 7.87866 15.669C8.19687 15.5961 9.30012 15.4953 9.77067 15.4681C9.89973 15.4609 11.5328 15.3152 11.7573 15.3152C11.7621 15.3152 11.7679 15.3152 11.7707 15.3164C11.8242 15.3197 11.8777 15.3632 11.9451 15.4296C12.0115 15.4968 12.0898 15.5889 12.1759 15.6972C12.3517 15.9133 12.5629 16.1893 12.7917 16.4391L12.8247 16.4738L12.7764 16.4774H12.7521C12.5571 16.4774 11.2881 16.4509 10.1414 16.4509C10.0841 16.4509 10.0282 16.4516 9.97328 16.452C8.77978 16.4538 7.72673 16.4872 7.34121 16.5189C7.2566 16.5269 7.15911 16.54 7.07697 16.54C7.03494 16.5392 6.99766 16.5362 6.96703 16.5245Z" fill="#7E7F7F"/>
<mask id="mask13_214_2122" style="mask-type:luminance" maskUnits="userSpaceOnUse" x="5" y="2" width="27" height="30">
<path d="M14.1088 3.53765C13.6959 3.78742 13.6787 4.09487 13.3897 4.26197C13.1026 4.4296 12.4412 4.58006 11.7475 4.89115C11.3653 5.06148 11.3629 5.0897 11.4542 5.30542C11.4904 5.39614 11.7399 5.84935 11.8665 5.84935C11.9912 5.85317 12.1432 5.78838 12.2969 5.72629C12.5015 5.64556 13.8699 5.11616 14.9573 4.8835C16.1675 4.62456 17.4685 4.60251 17.9305 5.09158C18.6333 5.83524 19.8679 7.50388 20.242 8.22754C20.6094 8.94321 20.5722 9.29076 20.3275 10.0254C20.102 10.7038 19.2497 12.4673 18.9993 12.8326C18.7466 13.1983 18.4418 13.4017 17.7117 13.1035C16.929 12.7816 14.0471 11.3032 13.4207 10.9864C12.996 10.7727 11.2143 9.87061 9.86748 9.1948C9.36912 8.94468 8.95826 8.76318 8.51052 8.65005C7.5201 8.39805 6.45471 8.51112 5.96352 8.59273C5.74039 8.62959 5.59945 8.98978 5.60992 9.13571C5.61933 9.2556 5.85028 9.24013 6.13115 9.22473C6.27591 9.21673 6.43389 9.2088 6.58176 9.21932C6.93296 9.24349 8.13452 9.37366 8.82779 9.65465C9.55933 9.95081 13.2243 11.9251 14.1508 12.4231C21.2018 16.2593 24.2186 18.7291 29.6682 27.8863C29.9114 28.2953 30.0279 28.7983 29.6443 28.9125C29.0862 29.0755 26.7604 29.5179 26.0585 29.7478C25.467 29.9432 25.3887 29.9895 25.3012 30.2813C25.2052 30.6154 25.0566 31.2767 25.091 31.4095C25.1068 31.4644 25.0591 31.5351 25.1799 31.5351C25.834 31.5351 28.179 31.5385 29.9864 31.709C30.2038 31.7311 30.2153 31.7257 30.3524 31.5175C30.5105 31.2748 31.1359 30.559 31.5478 30.2556C31.7198 30.1271 31.6046 29.8888 31.5755 29.8108C31.059 28.5102 29.6007 25.6891 27.6018 22.7549C25.6419 19.8689 22.3181 15.9597 21.8593 15.3104C21.4087 14.674 21.2329 13.958 22.1699 13.662C22.7809 13.4678 24.2554 13.163 24.8574 12.9943C25.4431 12.8338 25.4851 12.6432 25.5344 12.1897C25.5856 11.699 25.4513 9.31775 25.1555 7.89958C25.0943 7.60524 24.8961 7.35936 24.66 7.1922C24.4518 7.04615 23.6419 6.341 23.1942 5.82995C22.6811 5.24328 22.448 4.69047 22.3638 4.26555C22.3638 4.26555 22.3499 4.17259 22.2466 4.07599C22.2101 4.03813 22.1808 4.01919 22.1192 3.98356C21.2378 3.44158 18.124 2.59015 17.4885 2.53518C17.4548 2.53212 17.4143 2.53047 17.3678 2.53047C16.8153 2.53047 15.4035 2.75954 14.1088 3.53765Z" fill="white"/>
</mask>
<g mask="url(#mask13_214_2122)">
<path d="M14.1088 3.53765C13.6959 3.78742 13.6787 4.09487 13.3897 4.26197C13.1026 4.4296 12.4412 4.58006 11.7475 4.89115C11.3653 5.06148 11.3629 5.0897 11.4542 5.30542C11.4904 5.39614 11.7399 5.84935 11.8665 5.84935C11.9912 5.85317 12.1432 5.78838 12.2969 5.72629C12.5015 5.64556 13.8699 5.11616 14.9573 4.8835C16.1675 4.62456 17.4685 4.60251 17.9305 5.09158C18.6333 5.83524 19.8679 7.50388 20.242 8.22754C20.6094 8.94321 20.5722 9.29076 20.3275 10.0254C20.102 10.7038 19.2497 12.4673 18.9993 12.8326C18.7466 13.1983 18.4418 13.4017 17.7117 13.1035C16.929 12.7816 14.0471 11.3032 13.4207 10.9864C12.996 10.7727 11.2143 9.87061 9.86748 9.1948C9.36912 8.94468 8.95826 8.76318 8.51052 8.65005C7.5201 8.39805 6.45471 8.51112 5.96352 8.59273C5.74039 8.62959 5.59945 8.98978 5.60992 9.13571C5.61933 9.2556 5.85028 9.24013 6.13115 9.22473C6.27591 9.21673 6.43389 9.2088 6.58176 9.21932C6.93296 9.24349 8.13452 9.37366 8.82779 9.65465C9.55933 9.95081 13.2243 11.9251 14.1508 12.4231C21.2018 16.2593 24.2186 18.7291 29.6682 27.8863C29.9114 28.2953 30.0279 28.7983 29.6443 28.9125C29.0862 29.0755 26.7604 29.5179 26.0585 29.7478C25.467 29.9432 25.3887 29.9895 25.3012 30.2813C25.2052 30.6154 25.0566 31.2767 25.091 31.4095C25.1068 31.4644 25.0591 31.5351 25.1799 31.5351C25.834 31.5351 28.179 31.5385 29.9864 31.709C30.2038 31.7311 30.2153 31.7257 30.3524 31.5175C30.5105 31.2748 31.1359 30.559 31.5478 30.2556C31.7198 30.1271 31.6046 29.8888 31.5755 29.8108C31.059 28.5102 29.6007 25.6891 27.6018 22.7549C25.6419 19.8689 22.3181 15.9597 21.8593 15.3104C21.4087 14.674 21.2329 13.958 22.1699 13.662C22.7809 13.4678 24.2554 13.163 24.8574 12.9943C25.4431 12.8338 25.4851 12.6432 25.5344 12.1897C25.5856 11.699 25.4513 9.31775 25.1555 7.89958C25.0943 7.60524 24.8961 7.35936 24.66 7.1922C24.4518 7.04615 23.6419 6.341 23.1942 5.82995C22.6811 5.24328 22.448 4.69047 22.3638 4.26555C22.3638 4.26555 22.3499 4.17259 22.2466 4.07599C22.2101 4.03813 22.1808 4.01919 22.1192 3.98356C21.2378 3.44158 18.124 2.59015 17.4885 2.53518C17.4548 2.53212 17.4143 2.53047 17.3678 2.53047C16.8153 2.53047 15.4035 2.75954 14.1088 3.53765Z" fill="url(#paint10_linear_214_2122)"/>
</g>
<mask id="mask14_214_2122" style="mask-type:luminance" maskUnits="userSpaceOnUse" x="5" y="8" width="25" height="24">
<path d="M5.76763 9.26412C5.98612 9.26412 6.49441 9.24736 6.83649 9.28558C7.49301 9.35649 8.32145 9.53899 8.84174 9.74014C9.58187 10.0278 13.0539 12.0985 13.9521 12.5994C16.6559 14.1329 18.7128 15.5416 20.6425 17.0966C23.5922 19.4728 26.1389 22.228 29.3314 27.8195C29.4576 28.0363 29.5244 28.2026 29.5244 28.4047C29.5359 28.7176 29.2669 28.8295 29.1767 28.8552C28.6277 29.02 26.3735 29.5275 25.7051 29.7578C25.1379 29.9585 25.0337 30.0836 24.9521 30.3464C24.9224 30.4554 24.8265 30.9877 24.7146 31.1291C24.6028 31.2743 24.3434 31.3049 24.0672 31.3049C23.8971 31.3049 23.8126 31.3144 23.8303 31.1252C23.845 30.9365 23.9573 30.4257 24.0223 30.1319C24.0863 29.8362 24.2077 29.6155 24.4767 29.453C24.7447 29.2896 25.6802 29.1386 26.2058 29.0086C26.7314 28.8811 26.759 28.6369 26.75 28.2399C26.75 28.6609 26.6043 28.7621 26.0767 28.8811C25.5413 29 24.6411 29.1161 24.3439 29.3177C24.0586 29.5141 23.9458 29.7875 23.8943 30.0034C23.7136 30.7501 23.5919 31.2972 23.6129 31.4807C23.6291 31.6436 23.695 31.6665 23.8766 31.646C24.0577 31.625 24.5107 31.5609 25.1909 31.5356C25.3921 31.5356 25.3782 31.2919 25.375 31.0224C25.375 30.9245 25.3797 30.6331 25.4308 30.4907C25.48 30.3479 25.5885 30.2174 25.7609 30.1649C26.1389 30.0483 28.2325 29.4821 29.2975 29.1654C29.7643 29.0268 29.9578 28.8787 29.9157 28.454C29.8794 28.0817 29.5373 27.5294 28.931 26.5796C28.321 25.6236 27.554 24.3182 26.534 22.873C24.7223 20.3082 22.9382 18.3049 20.7214 16.5515C19.0849 15.2572 17.3669 14.2188 16.1074 13.4805C14.847 12.7427 9.52736 9.8338 8.70322 9.57492C7.95256 9.33985 7.35631 9.26288 6.82456 9.20861C6.4629 9.1721 6.15904 9.19915 5.83648 9.19915C5.53168 9.19915 5.63922 8.95156 5.6812 8.85384C5.6501 8.92292 5.46718 9.26412 5.76763 9.26412Z" fill="white"/>
</mask>
<g mask="url(#mask14_214_2122)">
<path d="M5.76763 9.26412C5.98612 9.26412 6.49441 9.24736 6.83649 9.28558C7.49301 9.35649 8.32145 9.53899 8.84174 9.74014C9.58187 10.0278 13.0539 12.0985 13.9521 12.5994C16.6559 14.1329 18.7128 15.5416 20.6425 17.0966C23.5922 19.4728 26.1389 22.228 29.3314 27.8195C29.4576 28.0363 29.5244 28.2026 29.5244 28.4047C29.5359 28.7176 29.2669 28.8295 29.1767 28.8552C28.6277 29.02 26.3735 29.5275 25.7051 29.7578C25.1379 29.9585 25.0337 30.0836 24.9521 30.3464C24.9224 30.4554 24.8265 30.9877 24.7146 31.1291C24.6028 31.2743 24.3434 31.3049 24.0672 31.3049C23.8971 31.3049 23.8126 31.3144 23.8303 31.1252C23.845 30.9365 23.9573 30.4257 24.0223 30.1319C24.0863 29.8362 24.2077 29.6155 24.4767 29.453C24.7447 29.2896 25.6802 29.1386 26.2058 29.0086C26.7314 28.8811 26.759 28.6369 26.75 28.2399C26.75 28.6609 26.6043 28.7621 26.0767 28.8811C25.5413 29 24.6411 29.1161 24.3439 29.3177C24.0586 29.5141 23.9458 29.7875 23.8943 30.0034C23.7136 30.7501 23.5919 31.2972 23.6129 31.4807C23.6291 31.6436 23.695 31.6665 23.8766 31.646C24.0577 31.625 24.5107 31.5609 25.1909 31.5356C25.3921 31.5356 25.3782 31.2919 25.375 31.0224C25.375 30.9245 25.3797 30.6331 25.4308 30.4907C25.48 30.3479 25.5885 30.2174 25.7609 30.1649C26.1389 30.0483 28.2325 29.4821 29.2975 29.1654C29.7643 29.0268 29.9578 28.8787 29.9157 28.454C29.8794 28.0817 29.5373 27.5294 28.931 26.5796C28.321 25.6236 27.554 24.3182 26.534 22.873C24.7223 20.3082 22.9382 18.3049 20.7214 16.5515C19.0849 15.2572 17.3669 14.2188 16.1074 13.4805C14.847 12.7427 9.52736 9.8338 8.70322 9.57492C7.95256 9.33985 7.35631 9.26288 6.82456 9.20861C6.4629 9.1721 6.15904 9.19915 5.83648 9.19915C5.53168 9.19915 5.63922 8.95156 5.6812 8.85384C5.6501 8.92292 5.46718 9.26412 5.76763 9.26412Z" fill="url(#paint11_linear_214_2122)"/>
</g>
<mask id="mask15_214_2122" style="mask-type:luminance" maskUnits="userSpaceOnUse" x="7" y="18" width="10" height="14">
<path d="M15.462 18.856C15.2581 19.103 14.2146 20.7604 13.3693 22.308C12.7563 23.4288 12.0224 25.0185 11.8791 25.4036C11.7492 25.7547 11.7253 26.0773 11.7387 26.4728C11.7501 26.865 11.8161 27.5039 11.839 27.9626C11.8615 28.403 11.7492 28.5962 11.2915 28.6792C10.904 28.749 8.84049 29.0949 8.33255 29.2182C7.82379 29.3424 7.66468 29.5946 7.56626 29.9683C7.46495 30.3401 7.31826 31.0461 7.31302 31.2067C7.30867 31.3639 7.32878 31.3949 7.47683 31.3759C7.62212 31.3548 7.93462 31.3272 8.06115 31.3184C8.19309 31.3089 8.1668 31.2115 8.2069 31.072C8.24465 30.9463 8.27005 30.7361 8.34649 30.4117C8.42198 30.0878 8.52411 29.8365 8.97231 29.7042C9.42052 29.5717 11.4492 29.2459 11.7927 29.1513C12.1352 29.0566 12.3541 28.9095 12.3923 28.5665C12.4305 28.2263 12.3608 27.4981 12.3508 26.9067C12.3416 26.2874 12.3341 26.0104 12.6828 25.3415C13.356 24.0543 15.4477 21.0111 16.8586 19.2473C16.8586 19.2473 16.7258 19.1487 16.559 19.0268C16.3503 18.875 16.0865 18.6854 15.9413 18.6401C15.8958 18.6258 15.8548 18.6188 15.8166 18.6188C15.6862 18.6188 15.5888 18.7008 15.462 18.856Z" fill="white"/>
</mask>
<g mask="url(#mask15_214_2122)">
<path d="M15.462 18.856C15.2581 19.103 14.2146 20.7604 13.3693 22.308C12.7563 23.4288 12.0224 25.0185 11.8791 25.4036C11.7492 25.7547 11.7253 26.0773 11.7387 26.4728C11.7501 26.865 11.8161 27.5039 11.839 27.9626C11.8615 28.403 11.7492 28.5962 11.2915 28.6792C10.904 28.749 8.84049 29.0949 8.33255 29.2182C7.82379 29.3424 7.66468 29.5946 7.56626 29.9683C7.46495 30.3401 7.31826 31.0461 7.31302 31.2067C7.30867 31.3639 7.32878 31.3949 7.47683 31.3759C7.62212 31.3548 7.93462 31.3272 8.06115 31.3184C8.19309 31.3089 8.1668 31.2115 8.2069 31.072C8.24465 30.9463 8.27005 30.7361 8.34649 30.4117C8.42198 30.0878 8.52411 29.8365 8.97231 29.7042C9.42052 29.5717 11.4492 29.2459 11.7927 29.1513C12.1352 29.0566 12.3541 28.9095 12.3923 28.5665C12.4305 28.2263 12.3608 27.4981 12.3508 26.9067C12.3416 26.2874 12.3341 26.0104 12.6828 25.3415C13.356 24.0543 15.4477 21.0111 16.8586 19.2473C16.8586 19.2473 16.7258 19.1487 16.559 19.0268C16.3503 18.875 16.0865 18.6854 15.9413 18.6401C15.8958 18.6258 15.8548 18.6188 15.8166 18.6188C15.6862 18.6188 15.5888 18.7008 15.462 18.856Z" fill="url(#paint12_linear_214_2122)"/>
</g>
<mask id="mask16_214_2122" style="mask-type:luminance" maskUnits="userSpaceOnUse" x="14" y="22" width="7" height="8">
<path d="M14.7148 22.2489H20.203V29.9678H14.7148V22.2489Z" fill="white"/>
</mask>
<g mask="url(#mask16_214_2122)">
<mask id="mask17_214_2122" style="mask-type:luminance" maskUnits="userSpaceOnUse" x="14" y="22" width="7" height="8">
<path d="M14.7521 29.9678C14.734 29.6028 14.8682 29.2679 15.1009 28.9339C15.4133 28.4853 15.8945 28.0271 16.486 27.4141C17.5213 26.3405 20.0445 23.8704 20.1348 23.7796C20.1921 23.7232 20.2604 23.6439 20.1205 23.5087C19.8701 23.2683 19.7382 23.1143 19.3445 22.7192C19.1042 22.4786 18.937 22.3324 18.9456 22.249C18.9465 22.2371 16.1272 25.4075 15.2031 27.7519C14.8238 28.5881 14.7148 29.0644 14.7148 29.4805C14.7148 29.8417 14.7521 29.9678 14.7521 29.9678Z" fill="white"/>
</mask>
<g mask="url(#mask17_214_2122)">
<path d="M14.7521 29.9678C14.734 29.6028 14.8682 29.2679 15.1009 28.9339C15.4133 28.4853 15.8945 28.0271 16.486 27.4141C17.5213 26.3405 20.0445 23.8704 20.1348 23.7796C20.1921 23.7232 20.2604 23.6439 20.1205 23.5087C19.8701 23.2683 19.7382 23.1143 19.3445 22.7192C19.1042 22.4786 18.937 22.3324 18.9456 22.249C18.9465 22.2371 16.1272 25.4075 15.2031 27.7519C14.8238 28.5881 14.7148 29.0644 14.7148 29.4805C14.7148 29.8417 14.7521 29.9678 14.7521 29.9678Z" fill="url(#paint13_linear_214_2122)"/>
</g>
</g>
<mask id="mask18_214_2122" style="mask-type:luminance" maskUnits="userSpaceOnUse" x="5" y="9" width="25" height="20">
<path d="M5.80859 9.26059H29.5279V28.8701H5.80859V9.26059Z" fill="white"/>
</mask>
<g mask="url(#mask18_214_2122)">
<mask id="mask19_214_2122" style="mask-type:luminance" maskUnits="userSpaceOnUse" x="5" y="9" width="25" height="20">
<path d="M5.80859 9.26412C6.20229 9.261 6.56783 9.25025 6.90797 9.29252C7.57736 9.37572 8.39722 9.55293 8.91469 9.76836C9.18368 9.88095 9.82103 10.2273 10.5654 10.6477C11.8544 11.3769 13.4646 12.326 14.0365 12.6469C16.0274 13.7794 17.6729 14.8463 19.1702 15.9574C19.7111 16.3575 20.2295 16.7705 20.7398 17.1843C23.6992 19.5744 26.1291 22.2205 29.3757 27.8917C29.5009 28.1114 29.539 28.2859 29.5252 28.4774C29.5138 28.6465 29.3681 28.8176 29.1301 28.8701L5.80859 9.26412Z" fill="white"/>
</mask>
<g mask="url(#mask19_214_2122)">
<path d="M5.80859 9.26412C6.20229 9.261 6.56783 9.25025 6.90797 9.29252C7.57736 9.37572 8.39722 9.55293 8.91469 9.76836C9.18368 9.88095 9.82103 10.2273 10.5654 10.6477C11.8544 11.3769 13.4646 12.326 14.0365 12.6469C16.0274 13.7794 17.6729 14.8463 19.1702 15.9574C19.7111 16.3575 20.2295 16.7705 20.7398 17.1843C23.6992 19.5744 26.1291 22.2205 29.3757 27.8917C29.5009 28.1114 29.539 28.2859 29.5252 28.4774C29.5138 28.6465 29.3681 28.8176 29.1301 28.8701L5.80859 9.26412Z" fill="url(#paint14_linear_214_2122)"/>
</g>
</g>
<mask id="mask20_214_2122" style="mask-type:luminance" maskUnits="userSpaceOnUse" x="22" y="3" width="4" height="5">
<path d="M22.269 3.77313C22.3311 3.8104 22.389 3.84768 22.4344 3.89519C22.5919 4.04188 22.626 4.18717 22.6308 4.21845C22.7076 4.60086 22.9198 5.1148 23.4057 5.66972C23.8252 6.15226 24.6904 6.86793 24.8715 6.99393C24.9857 7.07148 25.099 7.14986 25.1964 7.25781C25.2519 6.96736 25.3427 6.64798 25.4721 6.33547C25.4506 6.36893 25.4309 6.41361 25.3913 6.46377C25.3474 6.52321 25.2605 6.59994 25.1319 6.60641H25.1276H25.1195C25.0072 6.60476 24.9273 6.55766 24.8605 6.51127C24.3919 6.16279 23.0826 5.14373 22.894 4.27866C22.776 3.8742 22.9245 4.05864 22.5036 3.84556C22.3866 3.79988 22.2724 3.75378 22.1562 3.71057C22.1969 3.73232 22.2336 3.75284 22.269 3.77313Z" fill="white"/>
</mask>
<g mask="url(#mask20_214_2122)">
<path d="M22.269 3.77313C22.3311 3.8104 22.389 3.84768 22.4344 3.89519C22.5919 4.04188 22.626 4.18717 22.6308 4.21845C22.7076 4.60086 22.9198 5.1148 23.4057 5.66972C23.8252 6.15226 24.6904 6.86793 24.8715 6.99393C24.9857 7.07148 25.099 7.14986 25.1964 7.25781C25.2519 6.96736 25.3427 6.64798 25.4721 6.33547C25.4506 6.36893 25.4309 6.41361 25.3913 6.46377C25.3474 6.52321 25.2605 6.59994 25.1319 6.60641H25.1276H25.1195C25.0072 6.60476 24.9273 6.55766 24.8605 6.51127C24.3919 6.16279 23.0826 5.14373 22.894 4.27866C22.776 3.8742 22.9245 4.05864 22.5036 3.84556C22.3866 3.79988 22.2724 3.75378 22.1562 3.71057C22.1969 3.73232 22.2336 3.75284 22.269 3.77313Z" fill="url(#paint15_linear_214_2122)"/>
</g>
<mask id="mask21_214_2122" style="mask-type:luminance" maskUnits="userSpaceOnUse" x="21" y="12" width="5" height="7">
<path d="M24.9926 13.2357C24.3753 13.4051 22.8568 13.7146 22.2716 13.8976C21.8349 14.0554 21.7795 14.1939 21.7656 14.412V14.4146C21.7646 14.6166 21.8574 14.9311 22.0532 15.2015C22.2807 15.5255 23.3795 16.7747 24.6055 18.315C24.7464 18.4873 24.8053 18.5532 24.9213 18.6719C24.877 18.6138 23.1468 16.424 22.6165 15.8191C22.465 15.642 22.2921 15.4036 22.2893 15.0914C22.2882 14.7797 22.5272 14.3358 23.0197 14.1658C23.6777 13.9252 24.875 13.5374 25.1473 13.3896C25.413 13.2376 25.4913 13.1708 25.5305 12.9892C25.3939 13.1004 25.2171 13.1729 24.9926 13.2357Z" fill="white"/>
</mask>
<g mask="url(#mask21_214_2122)">
<path d="M24.9926 13.2357C24.3753 13.4051 22.8568 13.7146 22.2716 13.8976C21.8349 14.0554 21.7795 14.1939 21.7656 14.412V14.4146C21.7646 14.6166 21.8574 14.9311 22.0532 15.2015C22.2807 15.5255 23.3795 16.7747 24.6055 18.315C24.7464 18.4873 24.8053 18.5532 24.9213 18.6719C24.877 18.6138 23.1468 16.424 22.6165 15.8191C22.465 15.642 22.2921 15.4036 22.2893 15.0914C22.2882 14.7797 22.5272 14.3358 23.0197 14.1658C23.6777 13.9252 24.875 13.5374 25.1473 13.3896C25.413 13.2376 25.4913 13.1708 25.5305 12.9892C25.3939 13.1004 25.2171 13.1729 24.9926 13.2357Z" fill="url(#paint16_linear_214_2122)"/>
</g>
<mask id="mask22_214_2122" style="mask-type:luminance" maskUnits="userSpaceOnUse" x="25" y="4" width="6" height="3">
<path d="M27.6823 4.77444C26.5127 4.80119 25.7255 5.79456 25.4961 6.72266C25.7335 5.89345 26.4884 4.91279 27.6857 4.91279C29.2108 4.91279 29.8467 5.48852 30.0593 6.34689C29.7943 5.16538 28.7842 4.77332 27.7759 4.77332C27.7446 4.77332 27.7135 4.77367 27.6823 4.77444Z" fill="white"/>
</mask>
<g mask="url(#mask22_214_2122)">
<path d="M27.6823 4.77444C26.5127 4.80119 25.7255 5.79456 25.4961 6.72266C25.7335 5.89345 26.4884 4.91279 27.6857 4.91279C29.2108 4.91279 29.8467 5.48852 30.0593 6.34689C29.7943 5.16538 28.7842 4.77332 27.7759 4.77332C27.7446 4.77332 27.7135 4.77367 27.6823 4.77444Z" fill="url(#paint17_linear_214_2122)"/>
</g>
<mask id="mask23_214_2122" style="mask-type:luminance" maskUnits="userSpaceOnUse" x="6" y="26" width="12" height="7">
<path d="M16.6771 27.5397C15.4969 28.7475 14.9599 29.123 14.9848 29.8746C14.9986 30.318 15.0331 31.4088 15.0354 31.5712C15.0354 31.682 15.0459 31.7871 14.8586 31.885C14.7669 31.9348 14.6088 31.9342 14.528 31.9342C14.2069 31.9342 11.0937 31.6314 10.0025 31.6314C8.90927 31.6314 7.97288 31.7527 7.41002 31.8941C7.3183 31.9156 7.08135 31.9008 6.98575 31.7594C6.93701 31.6858 6.91937 31.6113 6.91502 31.5468C6.89114 31.7594 6.87109 32.0078 6.87109 32.1163C7.06789 32.0776 7.53085 32.0135 8.12863 31.9686C8.89351 31.9085 9.75929 31.919 10.3359 31.919C10.9141 31.919 15.1969 32.1416 15.2131 32.1416C15.185 31.8119 15.1424 31.0294 15.1305 30.5391C15.1272 30.4134 15.1272 30.4149 15.1162 30.0651C15.1162 29.682 15.1892 29.2348 15.5658 28.8353C15.7683 28.6161 16.5571 27.7393 17.3932 26.8105C17.1195 27.0863 16.871 27.3399 16.6771 27.5397Z" fill="white"/>
</mask>
<g mask="url(#mask23_214_2122)">
<path d="M16.6771 27.5397C15.4969 28.7475 14.9599 29.123 14.9848 29.8746C14.9986 30.318 15.0331 31.4088 15.0354 31.5712C15.0354 31.682 15.0459 31.7871 14.8586 31.885C14.7669 31.9348 14.6088 31.9342 14.528 31.9342C14.2069 31.9342 11.0937 31.6314 10.0025 31.6314C8.90927 31.6314 7.97288 31.7527 7.41002 31.8941C7.3183 31.9156 7.08135 31.9008 6.98575 31.7594C6.93701 31.6858 6.91937 31.6113 6.91502 31.5468C6.89114 31.7594 6.87109 32.0078 6.87109 32.1163C7.06789 32.0776 7.53085 32.0135 8.12863 31.9686C8.89351 31.9085 9.75929 31.919 10.3359 31.919C10.9141 31.919 15.1969 32.1416 15.2131 32.1416C15.185 31.8119 15.1424 31.0294 15.1305 30.5391C15.1272 30.4134 15.1272 30.4149 15.1162 30.0651C15.1162 29.682 15.1892 29.2348 15.5658 28.8353C15.7683 28.6161 16.5571 27.7393 17.3932 26.8105C17.1195 27.0863 16.871 27.3399 16.6771 27.5397Z" fill="url(#paint18_linear_214_2122)"/>
</g>
<mask id="mask24_214_2122" style="mask-type:luminance" maskUnits="userSpaceOnUse" x="20" y="23" width="5" height="5">
<path d="M20.2578 23.9621C20.3783 23.9798 20.4839 24.0482 20.578 24.1342C20.7991 24.3396 23.6855 26.4279 24.2607 26.8422C24.5039 27.0157 24.7309 27.138 24.964 27.2188C24.7676 27.0811 24.4786 26.8604 24.0992 26.5704C23.5474 26.1437 22.8421 25.5876 22.1337 25.0257C21.535 24.5498 20.9343 24.0702 20.4236 23.6577C20.4146 23.8384 20.3022 23.9345 20.2578 23.9621Z" fill="white"/>
</mask>
<g mask="url(#mask24_214_2122)">
<path d="M20.2578 23.9621C20.3783 23.9798 20.4839 24.0482 20.578 24.1342C20.7991 24.3396 23.6855 26.4279 24.2607 26.8422C24.5039 27.0157 24.7309 27.138 24.964 27.2188C24.7676 27.0811 24.4786 26.8604 24.0992 26.5704C23.5474 26.1437 22.8421 25.5876 22.1337 25.0257C21.535 24.5498 20.9343 24.0702 20.4236 23.6577C20.4146 23.8384 20.3022 23.9345 20.2578 23.9621Z" fill="url(#paint19_linear_214_2122)"/>
</g>
<mask id="mask25_214_2122" style="mask-type:luminance" maskUnits="userSpaceOnUse" x="23" y="19" width="10" height="14">
<path d="M27.1827 20.9629C27.1521 21.0375 27.1144 21.1395 27.1144 21.2843C27.1144 21.4637 27.1736 21.7121 27.403 22.0451C27.5406 22.2401 27.6748 22.4321 27.8029 22.618C29.809 25.5706 31.2067 28.4268 31.7354 29.7594C31.8507 30.0824 31.8282 30.241 31.7231 30.3862C31.7231 30.3862 30.6791 31.4546 30.553 31.6542C30.4981 31.7341 30.4584 31.8024 30.3862 31.8636C30.316 31.9291 30.132 31.9706 29.9562 31.9557C28.4135 31.81 26.7384 31.7498 25.8989 31.7498C24.8072 31.7498 24.1694 31.8549 23.8067 31.8646C23.6103 31.8712 23.4723 31.8244 23.4483 31.7919C23.4469 31.7871 23.444 31.7814 23.4388 31.7775C23.423 31.9305 23.4136 32.0461 23.4102 32.0972C24.0719 31.9777 24.9625 31.9267 25.9529 31.9267C26.2672 31.9267 26.5898 31.9325 26.9219 31.9409C28.551 31.9912 30.4426 32.1416 30.4488 32.1416C30.4523 32.1392 31.3566 30.9878 31.9165 30.5239C32.015 30.4445 32.0542 30.4503 32.0542 30.3744C32.0542 30.3203 32.0236 30.2218 31.9768 30.0886C31.3939 28.4197 29.1727 24.3022 27.445 22.0122C27.2816 21.7934 27.1703 21.5002 27.1703 21.297C27.1703 21.0327 27.3088 20.8392 27.4498 20.7298C27.5712 20.6316 27.8622 20.3803 28.2472 19.9992C27.6509 20.446 27.2333 20.8025 27.1827 20.9629Z" fill="white"/>
</mask>
<g mask="url(#mask25_214_2122)">
<path d="M27.1827 20.9629C27.1521 21.0375 27.1144 21.1395 27.1144 21.2843C27.1144 21.4637 27.1736 21.7121 27.403 22.0451C27.5406 22.2401 27.6748 22.4321 27.8029 22.618C29.809 25.5706 31.2067 28.4268 31.7354 29.7594C31.8507 30.0824 31.8282 30.241 31.7231 30.3862C31.7231 30.3862 30.6791 31.4546 30.553 31.6542C30.4981 31.7341 30.4584 31.8024 30.3862 31.8636C30.316 31.9291 30.132 31.9706 29.9562 31.9557C28.4135 31.81 26.7384 31.7498 25.8989 31.7498C24.8072 31.7498 24.1694 31.8549 23.8067 31.8646C23.6103 31.8712 23.4723 31.8244 23.4483 31.7919C23.4469 31.7871 23.444 31.7814 23.4388 31.7775C23.423 31.9305 23.4136 32.0461 23.4102 32.0972C24.0719 31.9777 24.9625 31.9267 25.9529 31.9267C26.2672 31.9267 26.5898 31.9325 26.9219 31.9409C28.551 31.9912 30.4426 32.1416 30.4488 32.1416C30.4523 32.1392 31.3566 30.9878 31.9165 30.5239C32.015 30.4445 32.0542 30.4503 32.0542 30.3744C32.0542 30.3203 32.0236 30.2218 31.9768 30.0886C31.3939 28.4197 29.1727 24.3022 27.445 22.0122C27.2816 21.7934 27.1703 21.5002 27.1703 21.297C27.1703 21.0327 27.3088 20.8392 27.4498 20.7298C27.5712 20.6316 27.8622 20.3803 28.2472 19.9992C27.6509 20.446 27.2333 20.8025 27.1827 20.9629Z" fill="url(#paint20_linear_214_2122)"/>
</g>
<mask id="mask26_214_2122" style="mask-type:luminance" maskUnits="userSpaceOnUse" x="6" y="16" width="10" height="3">
<path d="M7.55633 16.8543C6.89987 16.9018 6.57973 16.9818 6.5157 16.9972C6.45126 17.0122 6.41351 17.0081 6.41016 17.0081C6.4268 17.0337 6.45073 17.0838 6.46219 17.1032C6.47936 17.097 6.50564 17.0865 6.55391 17.0727C6.94908 16.9601 7.83062 16.9066 8.93134 16.9038C9.98109 16.9038 11.1263 16.9114 11.7188 16.9387C12.2505 16.9652 13.0002 17.0364 13.5994 17.3629C14.1555 17.6739 15.3623 18.5115 15.4201 18.4596C14.9305 18.1156 14.4116 17.7647 13.9424 17.4774C13.3232 17.0894 12.7345 16.8215 12.5587 16.8261C10.6753 16.7974 10.6753 16.7974 9.56688 16.7974C8.70204 16.7974 7.88218 16.8299 7.55633 16.8543Z" fill="white"/>
</mask>
<g mask="url(#mask26_214_2122)">
<path d="M7.55633 16.8543C6.89987 16.9018 6.57973 16.9818 6.5157 16.9972C6.45126 17.0122 6.41351 17.0081 6.41016 17.0081C6.4268 17.0337 6.45073 17.0838 6.46219 17.1032C6.47936 17.097 6.50564 17.0865 6.55391 17.0727C6.94908 16.9601 7.83062 16.9066 8.93134 16.9038C9.98109 16.9038 11.1263 16.9114 11.7188 16.9387C12.2505 16.9652 13.0002 17.0364 13.5994 17.3629C14.1555 17.6739 15.3623 18.5115 15.4201 18.4596C14.9305 18.1156 14.4116 17.7647 13.9424 17.4774C13.3232 17.0894 12.7345 16.8215 12.5587 16.8261C10.6753 16.7974 10.6753 16.7974 9.56688 16.7974C8.70204 16.7974 7.88218 16.8299 7.55633 16.8543Z" fill="url(#paint21_linear_214_2122)"/>
</g>
<mask id="mask27_214_2122" style="mask-type:luminance" maskUnits="userSpaceOnUse" x="6" y="11" width="4" height="3">
<path d="M6.71442 11.4772C6.74311 11.4794 6.78562 11.4781 6.8383 11.4769C7.01904 11.4729 7.31926 11.4688 7.59119 11.5995C8.07032 11.836 9.2887 12.7367 9.47503 12.9315C9.70627 13.1972 9.93758 13.1709 9.73302 12.9932C9.01877 12.3297 7.93756 11.5651 7.43056 11.4602C7.25147 11.4179 6.9997 11.3993 6.79515 11.3897C6.63892 11.3807 6.64939 11.1988 6.60547 11.1643C6.60929 11.1965 6.61929 11.4704 6.71442 11.4772Z" fill="white"/>
</mask>
<g mask="url(#mask27_214_2122)">
<path d="M6.71442 11.4772C6.74311 11.4794 6.78562 11.4781 6.8383 11.4769C7.01904 11.4729 7.31926 11.4688 7.59119 11.5995C8.07032 11.836 9.2887 12.7367 9.47503 12.9315C9.70627 13.1972 9.93758 13.1709 9.73302 12.9932C9.01877 12.3297 7.93756 11.5651 7.43056 11.4602C7.25147 11.4179 6.9997 11.3993 6.79515 11.3897C6.63892 11.3807 6.64939 11.1988 6.60547 11.1643C6.60929 11.1965 6.61929 11.4704 6.71442 11.4772Z" fill="url(#paint22_linear_214_2122)"/>
</g>
<mask id="mask28_214_2122" style="mask-type:luminance" maskUnits="userSpaceOnUse" x="3" y="16" width="3" height="2">
<path d="M5.59486 16.4772C5.25802 16.4852 4.4057 16.9088 4.27529 16.9939C4.07644 17.1047 3.99142 17.1066 3.86719 16.9718C3.92357 17.1088 4.02006 17.1926 4.10755 17.163C4.19398 17.1327 5.21745 16.6004 5.66988 16.6004C5.81846 16.6004 5.8615 16.6039 5.97762 16.6517C5.90754 16.5325 5.83046 16.4769 5.61908 16.4769C5.61121 16.4769 5.60315 16.477 5.59486 16.4772Z" fill="white"/>
</mask>
<g mask="url(#mask28_214_2122)">
<path d="M5.59486 16.4772C5.25802 16.4852 4.4057 16.9088 4.27529 16.9939C4.07644 17.1047 3.99142 17.1066 3.86719 16.9718C3.92357 17.1088 4.02006 17.1926 4.10755 17.163C4.19398 17.1327 5.21745 16.6004 5.66988 16.6004C5.81846 16.6004 5.8615 16.6039 5.97762 16.6517C5.90754 16.5325 5.83046 16.4769 5.61908 16.4769C5.61121 16.4769 5.60315 16.477 5.59486 16.4772Z" fill="url(#paint23_linear_214_2122)"/>
</g>
<mask id="mask29_214_2122" style="mask-type:luminance" maskUnits="userSpaceOnUse" x="14" y="3" width="2" height="2">
<path d="M15.5824 3.62865C15.3497 3.6654 14.6082 3.86601 14.5299 3.89229C14.4491 3.91763 14.407 3.94415 14.355 4.02923C14.3024 4.11349 14.2786 4.29822 14.302 4.36937C14.323 4.44298 14.397 4.49813 14.5117 4.44921C14.6699 4.38472 15.589 4.04669 15.7506 3.99531C15.8198 3.97208 15.849 3.93657 15.8638 3.89953C15.8872 3.83973 15.8935 3.76094 15.8872 3.69762C15.8784 3.62571 15.8326 3.6049 15.7665 3.6049C15.715 3.6049 15.6509 3.6176 15.5824 3.62865Z" fill="white"/>
</mask>
<g mask="url(#mask29_214_2122)">
<path d="M15.5824 3.62865C15.3497 3.6654 14.6082 3.86601 14.5299 3.89229C14.4491 3.91763 14.407 3.94415 14.355 4.02923C14.3024 4.11349 14.2786 4.29822 14.302 4.36937C14.323 4.44298 14.397 4.49813 14.5117 4.44921C14.6699 4.38472 15.589 4.04669 15.7506 3.99531C15.8198 3.97208 15.849 3.93657 15.8638 3.89953C15.8872 3.83973 15.8935 3.76094 15.8872 3.69762C15.8784 3.62571 15.8326 3.6049 15.7665 3.6049C15.715 3.6049 15.6509 3.6176 15.5824 3.62865Z" fill="url(#paint24_linear_214_2122)"/>
</g>
<path d="M15.5591 3.70773C15.6618 3.68815 15.712 3.69844 15.7177 3.755C15.722 3.8138 15.7177 3.8499 15.713 3.87165C15.7087 3.9034 15.6958 3.92034 15.6442 3.93921C15.5391 3.97672 14.8672 4.21608 14.7053 4.28346C14.5572 4.34579 14.4827 4.31145 14.4683 4.24883C14.4559 4.18504 14.4788 4.0852 14.5047 4.04075C14.5305 3.9963 14.5701 3.96596 14.6251 3.94826C14.7464 3.90505 15.3685 3.74212 15.5591 3.70773Z" fill="black"/>
<mask id="mask30_214_2122" style="mask-type:luminance" maskUnits="userSpaceOnUse" x="12" y="4" width="9" height="10">
<path d="M16.5579 4.67849C14.6544 4.7287 12.9941 5.53521 12.0625 5.91574C12.727 5.68855 14.3405 5.02703 16.1408 4.91879C17.1298 4.85888 17.5264 4.94301 17.8885 5.34976C18.4141 5.92908 19.6396 7.57503 20.0758 8.40947C20.2483 8.74061 20.3252 9.03618 20.3003 9.29024C20.2659 9.67318 20.1293 9.95487 20.0208 10.2079C19.8312 10.6433 19.1307 12.0669 19.0089 12.274C18.4982 13.1579 18.0098 13.1269 17.4891 13.0065C17.5168 13.0215 17.7547 13.134 17.9731 13.2229C18.5794 13.4712 18.9635 13.1263 19.3089 12.4763C19.4213 12.2728 20.1652 10.7002 20.3429 10.247C20.458 9.96246 20.5879 9.68035 20.5879 9.31852C20.5879 9.08169 20.523 8.71738 20.361 8.38078C19.9516 7.51753 18.6563 5.87752 18.1384 5.25781C17.7359 4.78309 17.3692 4.67614 16.7331 4.67614C16.6769 4.67614 16.6186 4.67696 16.5579 4.67849Z" fill="white"/>
</mask>
<g mask="url(#mask30_214_2122)">
<path d="M16.5579 4.67849C14.6544 4.7287 12.9941 5.53521 12.0625 5.91574C12.727 5.68855 14.3405 5.02703 16.1408 4.91879C17.1298 4.85888 17.5264 4.94301 17.8885 5.34976C18.4141 5.92908 19.6396 7.57503 20.0758 8.40947C20.2483 8.74061 20.3252 9.03618 20.3003 9.29024C20.2659 9.67318 20.1293 9.95487 20.0208 10.2079C19.8312 10.6433 19.1307 12.0669 19.0089 12.274C18.4982 13.1579 18.0098 13.1269 17.4891 13.0065C17.5168 13.0215 17.7547 13.134 17.9731 13.2229C18.5794 13.4712 18.9635 13.1263 19.3089 12.4763C19.4213 12.2728 20.1652 10.7002 20.3429 10.247C20.458 9.96246 20.5879 9.68035 20.5879 9.31852C20.5879 9.08169 20.523 8.71738 20.361 8.38078C19.9516 7.51753 18.6563 5.87752 18.1384 5.25781C17.7359 4.78309 17.3692 4.67614 16.7331 4.67614C16.6769 4.67614 16.6186 4.67696 16.5579 4.67849Z" fill="url(#paint25_linear_214_2122)"/>
</g>
<mask id="mask31_214_2122" style="mask-type:luminance" maskUnits="userSpaceOnUse" x="7" y="19" width="11" height="13">
<path d="M14.3158 22.5436C13.6406 23.6191 12.666 25.2243 12.5135 25.5771C12.3726 25.9029 12.3267 26.1963 12.322 26.5794C12.322 26.5833 12.3774 28.3147 12.3774 28.3253C12.3774 28.5393 12.3458 28.7155 12.2311 28.8513C12.1141 28.9846 11.9388 29.0515 11.6941 29.0859C11.2933 29.1451 9.4008 29.4366 8.88198 29.5422C8.37739 29.6511 8.16807 29.8824 8.05589 30.2173C7.97416 30.4581 7.8805 30.868 7.88144 31.0477C7.88144 31.0477 7.87574 31.1461 7.88144 31.1461C7.86709 31.3382 7.93689 31.3268 7.93689 31.3268C7.93689 31.3268 10.1266 31.159 11.4304 31.2369C12.7343 31.3133 14.5331 31.4834 14.5331 31.4834C14.5331 31.4834 12.6401 31.1289 11.3515 31.0481C10.7097 31.0103 9.96383 31.026 9.37499 31.0416C8.78197 31.0574 8.34822 31.0732 8.34011 31.0343C8.33053 30.9793 8.29707 30.8991 8.31048 30.7404C8.332 30.6387 8.35828 30.5212 8.39368 30.3988C8.4777 30.0788 8.6268 29.7964 9.12704 29.6803C9.60482 29.5589 11.4428 29.2551 11.7921 29.1695C12.1366 29.0825 12.3597 28.954 12.4079 28.6731C12.4204 28.5871 12.4318 28.3931 12.4309 28.2144C12.4309 27.8451 12.366 26.8646 12.3678 26.803C12.3802 26.2001 12.4061 25.8799 12.8002 25.2292C13.4113 24.2125 15.7114 20.7161 16.8561 19.5022C16.9278 19.4258 16.9612 19.3604 17.0888 19.3807C17.0634 19.3756 17.0386 19.3681 17.0147 19.3554C16.9937 19.3454 16.9039 19.2779 16.7825 19.1886C16.4959 19.5105 15.2121 21.115 14.3158 22.5436Z" fill="white"/>
</mask>
<g mask="url(#mask31_214_2122)">
<path d="M14.3158 22.5436C13.6406 23.6191 12.666 25.2243 12.5135 25.5771C12.3726 25.9029 12.3267 26.1963 12.322 26.5794C12.322 26.5833 12.3774 28.3147 12.3774 28.3253C12.3774 28.5393 12.3458 28.7155 12.2311 28.8513C12.1141 28.9846 11.9388 29.0515 11.6941 29.0859C11.2933 29.1451 9.4008 29.4366 8.88198 29.5422C8.37739 29.6511 8.16807 29.8824 8.05589 30.2173C7.97416 30.4581 7.8805 30.868 7.88144 31.0477C7.88144 31.0477 7.87574 31.1461 7.88144 31.1461C7.86709 31.3382 7.93689 31.3268 7.93689 31.3268C7.93689 31.3268 10.1266 31.159 11.4304 31.2369C12.7343 31.3133 14.5331 31.4834 14.5331 31.4834C14.5331 31.4834 12.6401 31.1289 11.3515 31.0481C10.7097 31.0103 9.96383 31.026 9.37499 31.0416C8.78197 31.0574 8.34822 31.0732 8.34011 31.0343C8.33053 30.9793 8.29707 30.8991 8.31048 30.7404C8.332 30.6387 8.35828 30.5212 8.39368 30.3988C8.4777 30.0788 8.6268 29.7964 9.12704 29.6803C9.60482 29.5589 11.4428 29.2551 11.7921 29.1695C12.1366 29.0825 12.3597 28.954 12.4079 28.6731C12.4204 28.5871 12.4318 28.3931 12.4309 28.2144C12.4309 27.8451 12.366 26.8646 12.3678 26.803C12.3802 26.2001 12.4061 25.8799 12.8002 25.2292C13.4113 24.2125 15.7114 20.7161 16.8561 19.5022C16.9278 19.4258 16.9612 19.3604 17.0888 19.3807C17.0634 19.3756 17.0386 19.3681 17.0147 19.3554C16.9937 19.3454 16.9039 19.2779 16.7825 19.1886C16.4959 19.5105 15.2121 21.115 14.3158 22.5436Z" fill="url(#paint26_linear_214_2122)"/>
</g>
<defs>
<linearGradient id="paint0_linear_214_2122" x1="31.7519" y1="6.18354" x2="22.7165" y2="20.0223" gradientUnits="userSpaceOnUse">
<stop stop-color="#B5B3B3"/>
<stop offset="0.203293" stop-color="#B5B3B3"/>
<stop offset="0.295914" stop-color="#2D2D2C"/>
<stop offset="0.368134" stop-color="#2D2D2C"/>
<stop offset="0.533331" stop-color="#2D2D2C"/>
<stop offset="0.813187" stop-color="#898685"/>
<stop offset="1"/>
</linearGradient>
<linearGradient id="paint1_linear_214_2122" x1="6.37471" y1="16.2301" x2="8.01196" y2="12.4803" gradientUnits="userSpaceOnUse">
<stop stop-color="#8C8889"/>
<stop offset="0.0310364" stop-color="#8C8889"/>
<stop offset="0.125972" stop-color="#8C8889"/>
<stop offset="0.199997" stop-color="#8C8889"/>
<stop offset="0.989655" stop-color="#3F3E3D"/>
<stop offset="1" stop-color="#3F3E3D"/>
</linearGradient>
<linearGradient id="paint2_linear_214_2122" x1="28.7277" y1="7.22328" x2="26.7109" y2="7.03249" gradientUnits="userSpaceOnUse">
<stop stop-color="#2D2D2C"/>
<stop offset="0.196548" stop-color="#2D2D2C"/>
<stop offset="0.326063" stop-color="#2D2D2C"/>
<stop offset="0.358627" stop-color="white"/>
<stop offset="0.824142" stop-color="#2D2D2C"/>
<stop offset="1" stop-color="#1A1919"/>
</linearGradient>
<linearGradient id="paint3_linear_214_2122" x1="10.583" y1="18.2106" x2="12.2423" y2="14.4103" gradientUnits="userSpaceOnUse">
<stop stop-color="#B5B3B3"/>
<stop offset="0.206847" stop-color="#8C8889"/>
<stop offset="0.368134" stop-color="#8C8889"/>
<stop offset="0.989655"/>
<stop offset="1"/>
</linearGradient>
<linearGradient id="paint4_linear_214_2122" x1="26.7267" y1="36.125" x2="-2.91426" y2="5.9707" gradientUnits="userSpaceOnUse">
<stop stop-color="#676564"/>
<stop offset="0.0769196" stop-color="#676564"/>
<stop offset="0.12088" stop-color="#726F6F"/>
<stop offset="0.170334" stop-color="#52504F"/>
<stop offset="0.307693" stop-color="#676564"/>
<stop offset="0.472534" stop-color="#E6E5E5"/>
<stop offset="0.556149" stop-color="#E6E5E5"/>
<stop offset="0.6978" stop-color="#E6E5E5"/>
<stop offset="0.721156" stop-color="#E6E5E5"/>
<stop offset="0.840652" stop-color="#565454"/>
<stop offset="0.961533" stop-color="#2D2D2C"/>
<stop offset="1" stop-color="#2D2D2C"/>
</linearGradient>
<radialGradient id="paint5_radial_214_2122" cx="0" cy="0" r="1" gradientUnits="userSpaceOnUse" gradientTransform="translate(13.9004 9.90448) scale(6.75969)">
<stop stop-color="white"/>
<stop offset="0.0357208" stop-color="white"/>
<stop offset="0.0986284" stop-color="white"/>
<stop offset="0.467026" stop-color="white"/>
<stop offset="0.603056" stop-color="white"/>
<stop offset="0.747253" stop-color="#726F6F"/>
<stop offset="0.846161" stop-color="#52504F"/>
<stop offset="1" stop-color="#2D2D2C"/>
</radialGradient>
<radialGradient id="paint6_radial_214_2122" cx="0" cy="0" r="1" gradientUnits="userSpaceOnUse" gradientTransform="translate(15.416 8.53999) scale(2.38658 2.29972)">
<stop stop-color="white"/>
<stop offset="0.0357208" stop-color="white"/>
<stop offset="0.063705" stop-color="white"/>
<stop offset="0.227585" stop-color="white"/>
<stop offset="0.423227" stop-color="white"/>
<stop offset="1"/>
</radialGradient>
<radialGradient id="paint7_radial_214_2122" cx="0" cy="0" r="1" gradientUnits="userSpaceOnUse" gradientTransform="translate(13.9239 4.7929) scale(2.80663 2.80663)">
<stop stop-color="white"/>
<stop offset="0.230774" stop-color="white"/>
<stop offset="0.280459" stop-color="white"/>
<stop offset="0.571426" stop-color="#EAE9EA"/>
<stop offset="0.86264"/>
<stop offset="1"/>
</radialGradient>
<radialGradient id="paint8_radial_214_2122" cx="0" cy="0" r="1" gradientUnits="userSpaceOnUse" gradientTransform="translate(18.6277 10.2693) scale(9.45508)">
<stop stop-color="white"/>
<stop offset="0.0357208" stop-color="white"/>
<stop offset="0.0673749" stop-color="white"/>
<stop offset="0.252747" stop-color="white"/>
<stop offset="0.298093" stop-color="white"/>
<stop offset="0.346161" stop-color="#7F7C7C"/>
<stop offset="0.412094" stop-color="#52504F"/>
<stop offset="0.472534" stop-color="#2D2D2C"/>
<stop offset="0.857147" stop-color="#2D2D2C"/>
<stop offset="1" stop-color="#2D2D2C"/>
</radialGradient>
<linearGradient id="paint9_linear_214_2122" x1="12.0232" y1="15.6488" x2="7.39422" y2="16.806" gradientUnits="userSpaceOnUse">
<stop stop-color="#E6E5E5"/>
<stop offset="0.242386" stop-color="#999696"/>
<stop offset="0.25824" stop-color="#999696"/>
<stop offset="0.379446" stop-color="#E6E5E5"/>
<stop offset="0.648346" stop-color="#E6E5E5"/>
<stop offset="0.895599" stop-color="white"/>
<stop offset="1" stop-color="white"/>
</linearGradient>
<linearGradient id="paint10_linear_214_2122" x1="11.7934" y1="4.01248" x2="32.9951" y2="29.844" gradientUnits="userSpaceOnUse">
<stop stop-color="white"/>
<stop offset="0.0689697" stop-color="#CBC9C9"/>
<stop offset="0.156509" stop-color="white"/>
<stop offset="0.196649" stop-color="white"/>
<stop offset="0.203293" stop-color="white"/>
<stop offset="0.311718" stop-color="#B5B3B3"/>
<stop offset="0.329666" stop-color="#B5B3B3"/>
<stop offset="0.385943" stop-color="white"/>
<stop offset="0.502029" stop-color="white"/>
<stop offset="0.885178" stop-color="white"/>
<stop offset="0.979645" stop-color="#979394"/>
<stop offset="1" stop-color="#979394"/>
</linearGradient>
<linearGradient id="paint11_linear_214_2122" x1="6.41212" y1="9.02523" x2="28.081" y2="29.6061" gradientUnits="userSpaceOnUse">
<stop stop-color="#C4C2C2"/>
<stop offset="0.32699" stop-color="#2D2D2C"/>
<stop offset="0.506897" stop-color="#2D2D2C"/>
<stop offset="0.716511" stop-color="#2D2D2C"/>
<stop offset="1" stop-color="#C4C2C2"/>
</linearGradient>
<linearGradient id="paint12_linear_214_2122" x1="16.8561" y1="18.9849" x2="8.41248" y2="31.608" gradientUnits="userSpaceOnUse">
<stop stop-color="#A7A5A5"/>
<stop offset="0.100006" stop-color="white"/>
<stop offset="0.349213" stop-color="#E0DEDF"/>
<stop offset="0.489954" stop-color="white"/>
<stop offset="0.538467" stop-color="white"/>
<stop offset="0.654782" stop-color="#1A1919"/>
<stop offset="0.714279" stop-color="#1A1919"/>
<stop offset="0.778716" stop-color="white"/>
<stop offset="0.841385" stop-color="white"/>
<stop offset="0.872401" stop-color="white"/>
<stop offset="0.910339" stop-color="#2F2E2E"/>
<stop offset="0.945053" stop-color="#2F2E2E"/>
<stop offset="1" stop-color="#5D5A5A"/>
</linearGradient>
<linearGradient id="paint13_linear_214_2122" x1="15.917" y1="25.5594" x2="18.1458" y2="26.8723" gradientUnits="userSpaceOnUse">
<stop stop-color="white"/>
<stop offset="0.199997" stop-color="white"/>
<stop offset="0.4192" stop-color="white"/>
<stop offset="0.520691" stop-color="#AFADAD"/>
<stop offset="0.526703" stop-color="#AFADAD"/>
<stop offset="0.835159" stop-color="#2D2D2C"/>
<stop offset="0.86317" stop-color="#2D2D2C"/>
<stop offset="1" stop-color="#1A1919"/>
</linearGradient>
<linearGradient id="paint14_linear_214_2122" x1="17.166" y1="19.524" x2="19.5103" y2="16.7173" gradientUnits="userSpaceOnUse">
<stop stop-color="white"/>
<stop offset="0.0219727" stop-color="white"/>
<stop offset="0.149665" stop-color="white"/>
<stop offset="0.208786" stop-color="white"/>
<stop offset="0.2951" stop-color="white"/>
<stop offset="0.5" stop-color="#C4C2C2"/>
<stop offset="0.874706" stop-color="#726F6F"/>
<stop offset="0.945053" stop-color="#726F6F"/>
<stop offset="1" stop-color="#6C6969"/>
</linearGradient>
<linearGradient id="paint15_linear_214_2122" x1="22.3394" y1="3.86002" x2="25.3932" y2="6.984" gradientUnits="userSpaceOnUse">
<stop/>
<stop offset="0.124058"/>
<stop offset="0.179306" stop-color="#E6E5E5"/>
<stop offset="0.372486" stop-color="#242424"/>
<stop offset="0.579315" stop-color="#242424"/>
<stop offset="0.712753" stop-color="#242424"/>
<stop offset="1"/>
</linearGradient>
<linearGradient id="paint16_linear_214_2122" x1="22.706" y1="16.8409" x2="26.1811" y2="14.5592" gradientUnits="userSpaceOnUse">
<stop/>
<stop offset="0.124058"/>
<stop offset="0.179306" stop-color="#E6E5E5"/>
<stop offset="0.372486" stop-color="#242424"/>
<stop offset="0.579315" stop-color="#242424"/>
<stop offset="0.712753" stop-color="#242424"/>
<stop offset="1"/>
</linearGradient>
<linearGradient id="paint17_linear_214_2122" x1="25.4961" y1="5.74798" x2="30.0594" y2="5.74798" gradientUnits="userSpaceOnUse">
<stop stop-color="#3F3E3D"/>
<stop offset="0.285721" stop-color="#B5B3B3"/>
<stop offset="0.424647" stop-color="#3F3E3D"/>
<stop offset="0.532974" stop-color="#3F3E3D"/>
<stop offset="0.75824" stop-color="#1A1919"/>
<stop offset="1"/>
</linearGradient>
<linearGradient id="paint18_linear_214_2122" x1="6.87107" y1="29.4761" x2="17.3932" y2="29.4761" gradientUnits="userSpaceOnUse">
<stop/>
<stop offset="0.124058"/>
<stop offset="0.179306" stop-color="#757272"/>
<stop offset="0.372486" stop-color="#242424"/>
<stop offset="0.579315" stop-color="#242424"/>
<stop offset="0.712753" stop-color="#242424"/>
<stop offset="1"/>
</linearGradient>
<linearGradient id="paint19_linear_214_2122" x1="20.2578" y1="25.4382" x2="24.964" y2="25.4382" gradientUnits="userSpaceOnUse">
<stop/>
<stop offset="0.124058"/>
<stop offset="0.179306" stop-color="#757272"/>
<stop offset="0.372486" stop-color="#242424"/>
<stop offset="0.579315" stop-color="#242424"/>
<stop offset="0.712753" stop-color="#242424"/>
<stop offset="1"/>
</linearGradient>
<linearGradient id="paint20_linear_214_2122" x1="23.4102" y1="26.0704" x2="32.0541" y2="26.0704" gradientUnits="userSpaceOnUse">
<stop/>
<stop offset="0.124058"/>
<stop offset="0.179306" stop-color="#757272"/>
<stop offset="0.372486" stop-color="#242424"/>
<stop offset="0.579315" stop-color="#242424"/>
<stop offset="0.712753" stop-color="#242424"/>
<stop offset="1"/>
</linearGradient>
<linearGradient id="paint21_linear_214_2122" x1="6.41017" y1="17.6297" x2="15.4201" y2="17.6297" gradientUnits="userSpaceOnUse">
<stop stop-color="#52504F"/>
<stop offset="0.124058" stop-color="#52504F"/>
<stop offset="0.179306" stop-color="#B5B3B3"/>
<stop offset="0.575652"/>
<stop offset="1"/>
</linearGradient>
<linearGradient id="paint22_linear_214_2122" x1="6.60547" y1="12.1466" x2="9.81196" y2="12.1466" gradientUnits="userSpaceOnUse">
<stop stop-color="#242424"/>
<stop offset="0.124058" stop-color="#242424"/>
<stop offset="0.179306" stop-color="#B5B3B3"/>
<stop offset="0.575652"/>
<stop offset="1"/>
</linearGradient>
<linearGradient id="paint23_linear_214_2122" x1="3.8672" y1="16.8229" x2="5.97761" y2="16.8229" gradientUnits="userSpaceOnUse">
<stop stop-color="#52504F"/>
<stop offset="0.124058" stop-color="#52504F"/>
<stop offset="0.179306" stop-color="#999696"/>
<stop offset="0.575652" stop-color="#242424"/>
<stop offset="1" stop-color="#242424"/>
</linearGradient>
<linearGradient id="paint24_linear_214_2122" x1="14.9639" y1="3.73993" x2="15.1956" y2="4.24973" gradientUnits="userSpaceOnUse">
<stop stop-color="white"/>
<stop offset="0.115387" stop-color="#DCDBDB"/>
<stop offset="0.906586" stop-color="#373534"/>
<stop offset="1" stop-color="#373534"/>
</linearGradient>
<linearGradient id="paint25_linear_214_2122" x1="12.0625" y1="8.98993" x2="20.588" y2="8.98993" gradientUnits="userSpaceOnUse">
<stop stop-color="white"/>
<stop offset="0.686813" stop-color="white"/>
<stop offset="0.804345" stop-color="white"/>
<stop offset="0.979645"/>
<stop offset="1"/>
</linearGradient>
<linearGradient id="paint26_linear_214_2122" x1="11.5062" y1="30.0948" x2="14.6668" y2="18.9168" gradientUnits="userSpaceOnUse">
<stop stop-color="#D5D4D4"/>
<stop offset="0.0659332" stop-color="#373534"/>
<stop offset="0.309558" stop-color="#676564"/>
<stop offset="0.35173" stop-color="#676564"/>
<stop offset="0.567117" stop-color="#918E8E"/>
<stop offset="0.604401" stop-color="#918E8E"/>
<stop offset="0.892158" stop-color="#494747"/>
<stop offset="0.958618" stop-color="#494747"/>
<stop offset="1" stop-color="#8C8889"/>
</linearGradient>
</defs>
</svg>
