<svg width="80" height="18" viewBox="0 0 80 18" fill="none" xmlns="http://www.w3.org/2000/svg">
<g clip-path="url(#clip0_214_2075)">
<path d="M46.6405 15.9198C46.6405 16.0698 46.6805 16.1498 46.7705 16.1498C46.8405 16.1498 46.9005 16.1198 46.9705 16.0798L71.7505 0.629766C72.1905 0.349766 72.5805 0.199766 73.1805 0.199766H78.6305C79.4705 0.199766 80.0305 0.739766 80.0305 1.54977V11.5198C80.0305 12.7198 79.7605 13.4198 78.6305 14.0698L72.0205 17.8698C71.9405 17.9298 71.8605 17.9498 71.8005 17.9498C71.7205 17.9498 71.6505 17.8998 71.6505 17.6798V6.02977C71.6505 5.89977 71.6105 5.79977 71.5105 5.79977C71.4405 5.79977 71.3905 5.82977 71.3205 5.86977L53.2005 17.1598C52.6905 17.4798 52.2805 17.5698 51.8105 17.5698H39.7905C38.9605 17.5698 38.3905 17.0298 38.3905 16.2298V1.85977C38.3905 1.75977 38.3405 1.66977 38.2605 1.66977C38.1905 1.66977 38.1305 1.68977 38.0605 1.72977L26.1105 8.61977C25.9905 8.68976 25.9605 8.75977 25.9605 8.80977C25.9605 8.85977 25.9805 8.89977 26.0705 8.97976L34.6005 17.1598C34.7105 17.2698 34.7905 17.3598 34.7905 17.4398C34.7905 17.5298 34.6705 17.5798 34.5205 17.5798H26.8005C26.2005 17.5798 25.7305 17.4898 25.4005 17.1798L20.2205 12.2098C20.1605 12.1498 20.1205 12.1298 20.0705 12.1298C20.011 12.135 19.9533 12.152 19.9005 12.1798L11.2505 17.1798C10.7305 17.4798 10.3705 17.5698 9.85047 17.5698H1.88047C1.04047 17.5698 0.480469 17.0298 0.480469 16.2298V6.43977C0.480469 5.21977 0.750469 4.53977 1.88047 3.88977L8.53047 0.0597656C8.60047 0.0197656 8.65047 0.00976562 8.71047 0.00976562C8.80047 0.00976562 8.86047 0.109766 8.86047 0.319766V13.4198C8.86047 13.5498 8.90047 13.6198 9.00047 13.6198C9.05047 13.6198 9.12047 13.5798 9.19047 13.5398L31.6505 0.589766C32.1805 0.279766 32.5105 0.189766 33.1305 0.189766H45.2205C46.0605 0.189766 46.6205 0.729766 46.6205 1.52977L46.6405 15.9198Z" fill="black"/>
</g>
<defs>
<clipPath id="clip0_214_2075">
<rect width="80" height="18" fill="white"/>
</clipPath>
</defs>
</svg>
