<svg width="44" height="30" viewBox="0 0 44 30" fill="none" xmlns="http://www.w3.org/2000/svg">
<path d="M22.9194 30C22.3085 30 21.6964 30 21.0855 30C21.0018 29.9897 20.9194 29.9768 20.8356 29.9704C20.0693 29.9124 19.3007 29.8738 18.5355 29.7952C16.6287 29.5981 14.7577 29.1936 12.925 28.5958C10.228 27.716 7.70781 26.4497 5.46863 24.5831C4.06511 23.4121 2.85047 22.0504 1.94428 20.3964C0.406861 17.5894 0.0589688 14.6355 1.08352 11.5412C1.72789 9.60115 2.83852 7.98701 4.21454 6.57642C5.92531 4.82445 7.91224 3.52722 10.0701 2.5237C13.1999 1.06802 16.484 0.313129 19.8769 0.0735211C21.5194 -0.0424181 23.1609 -0.0192302 24.8023 0.128914C26.5788 0.289941 28.3314 0.602977 30.0553 1.09121C32.7058 1.84095 35.2104 2.95139 37.4926 4.60288C39.1615 5.80994 40.6224 7.25016 41.745 9.06271C42.6166 10.4694 43.2047 11.9947 43.4116 13.6796C43.4439 13.9424 43.4701 14.2065 43.5 14.4706C43.5 14.8223 43.5 15.174 43.5 15.5269C43.4893 15.5939 43.4773 15.6596 43.469 15.7266C43.4307 16.059 43.408 16.3926 43.3542 16.7211C43.0625 18.5169 42.3464 20.1117 41.335 21.5596C40.0821 23.3528 38.5052 24.7544 36.7371 25.9164C34.5397 27.3605 32.1678 28.3447 29.6764 29.0107C27.766 29.5208 25.8269 29.8274 23.8615 29.9381C23.5482 29.9549 23.2338 29.9794 22.9194 30ZM6.0329 7.72938C5.99345 7.77446 5.97313 7.79121 5.95879 7.81311C5.63959 8.31934 5.28571 8.80502 5.00836 9.3358C3.43149 12.3477 3.24978 15.4509 4.56722 18.6199C5.37896 20.5716 6.65218 22.1381 8.19079 23.4649C10.0594 25.0765 12.1695 26.1946 14.4409 26.974C16.1325 27.5537 17.866 27.9118 19.6318 28.0896C19.804 28.1063 19.976 28.1153 20.1936 28.1308C19.6162 27.5949 19.1966 26.9933 18.8404 26.3389C18.1445 25.061 17.6915 23.68 17.3591 22.2514C16.8116 19.8991 16.6023 17.5056 16.6263 15.0838C16.6275 15.0181 16.6263 14.9524 16.6263 14.8854C16.4135 14.8468 16.221 14.812 16.0297 14.7759C14.3404 14.4616 12.6859 14.0094 11.0935 13.3189C9.89078 12.7985 8.74071 12.1737 7.74846 11.2629C6.74782 10.347 6.0078 9.27138 6.0329 7.72938ZM23.828 28.1231C23.9081 28.1231 23.9595 28.127 24.0097 28.1231C25.5244 27.9929 27.0188 27.7353 28.4869 27.3128C31.0345 26.5798 33.4076 25.4487 35.5141 23.7187C37.1065 22.4112 38.4275 20.8498 39.3182 18.9008C40.2052 16.9607 40.5089 14.9189 40.1717 12.7818C39.8788 10.9293 39.1245 9.29972 38.0557 7.82856C38.0354 7.80152 38.0079 7.7809 37.9864 7.759C37.9636 8.02182 37.9565 8.27815 37.9159 8.52809C37.7807 9.34091 37.3934 10.0159 36.8853 10.6175C36.2098 11.4162 35.3933 12.0152 34.5146 12.5202C32.6772 13.5753 30.7046 14.2039 28.6734 14.6394C28.2466 14.7308 27.8174 14.8081 27.3834 14.8919C27.381 14.9459 27.3775 14.9897 27.3775 15.0348C27.3966 16.5523 27.3165 18.0634 27.124 19.5668C26.9243 21.1319 26.6148 22.6701 26.1042 24.1541C25.5985 25.6265 24.965 27.0204 23.828 28.1231ZM21.1596 2.11792C21.0173 2.11792 20.9085 2.11019 20.8021 2.1192C19.7322 2.21453 18.6599 2.28538 17.5934 2.41678C16.227 2.58425 14.8856 2.90115 13.5789 3.36748C12.6273 3.70757 11.7056 4.1198 10.8867 4.76004C10.5005 5.06277 10.1538 5.40801 9.91353 5.86146C9.68394 6.2943 9.60863 6.75162 9.73778 7.23728C9.83106 7.58767 10.0092 7.88653 10.2339 8.1545C10.6822 8.68911 11.2334 9.073 11.8227 9.39631C13.0219 10.0546 14.3022 10.4578 15.6113 10.7619C16.0369 10.861 16.4648 10.9409 16.9001 11.031C16.9168 10.9538 16.9324 10.8996 16.9395 10.8442C17.083 9.83433 17.2778 8.83727 17.548 7.85819C17.9126 6.53262 18.3765 5.25343 19.0926 4.09532C19.5313 3.38423 20.0478 2.7543 20.752 2.33305C20.8763 2.25962 21.0042 2.19907 21.1596 2.11792ZM27.0965 11.022C28.0218 10.8662 28.9173 10.6614 29.7959 10.3843C30.8588 10.0495 31.8941 9.64106 32.8337 8.99182C33.2534 8.70196 33.6371 8.36836 33.9372 7.9342C34.4596 7.17673 34.4596 6.36902 33.9384 5.60897C33.6359 5.1684 33.2462 4.83476 32.823 4.54104C32.0554 4.0103 31.2198 3.64058 30.3555 3.34171C27.9393 2.50825 25.4467 2.19649 22.923 2.11148C22.9074 2.11148 22.8919 2.11792 22.8429 2.12822C23.5267 2.41807 24.0432 2.88698 24.4724 3.46668C24.7114 3.78873 24.9374 4.12753 25.1335 4.48179C26.0481 6.13972 26.5502 7.95996 26.898 9.83561C26.9697 10.2233 27.0284 10.615 27.0965 11.022ZM18.777 15.1598C18.777 15.2397 18.7746 15.3054 18.777 15.3724C18.8224 16.6103 18.9444 17.8367 19.205 19.045C19.4238 20.0589 19.7166 21.0431 20.2021 21.9513C20.4208 22.3622 20.679 22.7397 21.0234 23.0424C21.6522 23.595 22.3659 23.6118 22.9744 23.0346C23.2506 22.7731 23.492 22.4524 23.6977 22.1213C24.1245 21.4333 24.3827 20.6566 24.5991 19.867C24.9374 18.6328 25.1096 17.3678 25.1921 16.086C25.2124 15.782 25.2196 15.478 25.2327 15.1585C23.0713 15.3569 20.9325 15.3569 18.777 15.1598ZM18.997 11.299C21.0114 11.4884 23.0019 11.4897 25.0068 11.2977C24.9625 11.0388 24.9254 10.7992 24.88 10.5608C24.6732 9.48005 24.3875 8.42759 23.9033 7.44854C23.657 6.95 23.3641 6.48624 22.9457 6.13199C22.336 5.61799 21.6725 5.61799 21.0628 6.12941C20.7161 6.41926 20.4555 6.78898 20.2367 7.19348C19.5517 8.45848 19.2301 9.84974 18.997 11.299Z" fill="black"/>
</svg>
