<svg width="28" height="33" viewBox="0 0 28 33" fill="none" xmlns="http://www.w3.org/2000/svg">
<path d="M13.9997 0C6.55606 0 0.5 7.40198 0.5 16.4997C0.5 25.5975 6.55606 33 13.9997 33C21.4434 33 27.5 25.598 27.5 16.4997C27.5 7.40146 21.4439 0 13.9997 0ZM2.98799 22.2107L2.97517 22.1723C2.52776 20.8099 2.39482 19.6163 2.39375 19.6042L2.39215 19.5874L2.40603 19.5774L13.9997 11.1337L25.6078 19.5874L25.6062 19.6042C25.6046 19.6163 25.4722 20.8099 25.0248 22.1723L25.012 22.2107L24.9789 22.1865L24.9784 22.1881L13.9992 14.1688L2.98852 22.2123L2.98799 22.2107ZM13.9997 31.4425C10.1332 31.4425 6.51335 29.0842 4.27309 25.1216L4.2464 25.0706L13.9992 17.9678L23.7536 25.0717L23.728 25.1174L23.7285 25.1179C21.4888 29.0826 17.8689 31.4425 13.9997 31.4425ZM13.9997 7.27105L2.09156 15.9697L2.09317 15.9098C2.21329 12.0508 3.50587 8.44206 5.73171 5.7488C7.9661 3.04608 10.902 1.55748 13.9997 1.55748C17.0974 1.55748 20.0334 3.04608 22.2678 5.7488C24.4941 8.44206 25.7862 12.0508 25.9063 15.9098L25.9079 15.9697L25.8588 15.934L13.9997 7.27105Z" fill="black"/>
</svg>
