<svg width="36" height="37" viewBox="0 0 36 37" fill="none" xmlns="http://www.w3.org/2000/svg">
<path d="M17.9406 1.06017C27.5723 1.02694 35.4074 8.80808 35.4406 18.4398C35.4738 28.0716 27.6927 35.9066 18.0609 35.9398C8.42917 35.9731 0.594156 28.1919 0.560926 18.5602C0.527696 8.92842 8.30884 1.0934 17.9406 1.06017Z" fill="url(#paint0_linear_214_2397)" stroke="#141414" stroke-width="1.14" stroke-linecap="square"/>
<path d="M18.0002 34.1592C13.8171 34.1592 9.88457 32.5306 6.92682 29.5726C3.96887 26.6152 2.33984 22.6822 2.33984 18.4999C2.33984 14.3166 3.96887 10.3842 6.92682 7.42674C9.88457 4.46873 13.8171 2.83996 18.0002 2.83996C22.1833 2.83996 26.1158 4.46873 29.0736 7.42674C32.0315 10.3842 33.6602 14.3166 33.6602 18.4999C33.6602 22.6822 32.0315 26.6146 29.0736 29.5726C26.1158 32.5306 22.1833 34.1592 18.0002 34.1592Z" fill="#141414"/>
<path d="M18.0006 32.8887C14.157 32.8887 10.5437 31.392 7.82605 28.6745C5.10804 25.9568 3.61133 22.3434 3.61133 18.5004C3.61133 14.6569 5.10804 11.0435 7.82605 8.32581C10.5437 5.6083 14.157 4.11126 18.0006 4.11126C21.8443 4.11126 25.4576 5.6083 28.1752 8.32581C30.8932 11.0435 32.3899 14.6569 32.3899 18.5004C32.3899 22.3434 30.8932 25.9568 28.1752 28.6745C25.4576 31.392 21.8443 32.8887 18.0006 32.8887Z" fill="white"/>
<path d="M28.9238 25.413C27.86 24.4145 26.5188 23.7468 25.0578 23.5136C24.8494 23.4813 24.6606 23.6422 24.6606 23.8532C24.6606 24.025 24.6606 24.2112 24.6606 24.3836C24.6606 24.5412 24.5401 24.7199 24.3818 24.7199C24.2671 24.7199 24.1525 24.7231 24.0371 24.7199C23.6297 24.7136 23.5556 24.2131 23.6373 23.9184C24.5059 20.804 24.7182 18.9148 24.7081 17.5393C24.6973 16.0772 24.6606 14.6207 24.0016 12.6923C23.3668 10.8372 22.7871 9.02089 19.7212 6.24477C19.5128 6.05712 19.3024 5.96598 19.0218 5.9457C18.7203 5.92476 18.4738 5.91406 18.1671 5.91406C16.8944 5.91406 15.6659 6.1009 14.5051 6.44927C14.0706 6.58048 14.1358 6.88263 14.3747 7.08861C15.5321 8.07875 17.1015 9.56696 18.1843 11.4258C17.4987 11.4923 16.9748 11.111 16.5345 10.689C15.0874 9.31168 13.5808 8.32965 12.384 7.65756C12.1756 7.54095 11.9702 7.49213 11.7638 7.61069C10.4446 8.37782 9.55583 9.09938 8.50856 10.314C8.33047 10.5204 8.44579 10.6813 8.61998 10.7738C9.7649 11.3808 11.5578 12.5325 13.2019 14.0284C12.8668 14.3102 12.3358 14.2178 11.566 13.8143C10.0867 13.0369 8.66442 12.5896 7.57904 12.3102C7.34661 12.2506 7.09749 12.3158 6.97779 12.5238C6.2828 13.7312 5.8032 15.1756 5.57637 16.6403C5.53327 16.9217 5.72469 17.1707 6.00529 17.2195C8.53516 17.6623 13.0447 18.8514 13.7937 24.0464C13.8583 24.5013 13.4445 24.9011 12.8997 24.6452C12.1394 24.289 11.3798 23.9336 10.6201 23.577C10.5403 23.5402 10.4497 23.5086 10.3622 23.5086C9.13883 23.5086 8.00171 23.5086 6.77894 23.5086C6.2695 23.5086 6.05978 23.9958 6.39114 24.3753C7.25271 25.3674 8.0429 26.4379 8.71876 27.5728C8.77844 27.6735 8.84689 27.7121 8.96399 27.7121C9.48544 27.7121 10.0075 27.7121 10.5283 27.7121C10.6347 27.7121 10.7259 27.6874 10.8178 27.6329C11.3094 27.3446 11.8011 27.057 12.294 26.7688C12.3853 26.7143 12.4764 26.7155 12.583 26.7155C16.3552 26.7155 20.4024 26.7155 24.3742 26.7155C24.5325 26.7155 24.6606 26.8175 24.6606 26.9759C24.6606 27.1691 24.6606 27.3624 24.6606 27.5562C24.6606 27.7672 24.8494 27.9275 25.0578 27.8952C26.5188 27.662 27.86 26.9942 28.9238 25.9965C29.093 25.8387 29.093 25.5701 28.9238 25.413Z" fill="url(#paint1_linear_214_2397)" stroke="#141414" stroke-width="1.13899"/>
<path d="M20.1393 23.7146C18.9779 23.7146 18.0378 22.7739 18.0378 21.6145C18.0378 20.4539 18.9779 19.5137 20.1393 19.5137C21.298 19.5137 22.2395 20.4539 22.2395 21.6145C22.2395 22.7739 21.298 23.7146 20.1393 23.7146ZM27.8611 25.7027C27.0635 25.0522 26.2226 24.6314 25.2013 24.4198C25.1089 24.4008 25.0639 24.4363 25.0639 24.5314C25.0639 24.5491 25.0639 24.565 25.0639 24.5826C25.0639 24.8335 24.813 25.1256 24.5608 25.1256C24.3404 25.1256 24.1174 25.1256 23.8975 25.1256C23.3374 25.1256 22.8375 24.6644 23.0448 23.9237C25.4415 15.3704 22.7634 10.0817 19.3816 7.12113C18.4629 6.31847 18.3805 6.27403 17.4649 6.3089C16.7433 6.33615 15.8975 6.42487 15.1822 6.5984C15.0416 6.63263 14.9244 6.74421 15.1101 6.90007C16.846 8.36282 19.1666 10.8843 20.2767 14.809C20.3148 14.9453 20.2342 14.9359 20.1304 14.9415C19.1363 15.0017 18.8012 14.3929 18.4906 14.0057C16.2371 11.2011 13.7105 9.49503 11.8194 8.37417C11.6312 8.26145 11.6007 8.2634 11.4575 8.34708C10.6973 8.78612 9.84386 9.48676 9.24261 10.1241C9.11724 10.2591 9.14886 10.3223 9.28754 10.3965C10.9982 11.3133 13.5996 13.1194 16.0172 16.1819C16.1674 16.3714 16.1776 16.4588 16.0926 16.5089C15.6276 16.7857 14.8515 16.7819 14.0013 16.2523C11.6964 14.8147 9.35534 13.7967 7.5237 13.2689C7.32858 13.212 7.29436 13.2233 7.21456 13.3906C6.76789 14.3294 6.28131 15.5497 6.10582 16.6077C6.0836 16.7458 6.0716 16.7565 6.19957 16.7825C11.2402 17.8064 14.0057 20.5711 14.3212 24.2672C14.3763 24.9083 13.651 25.5259 12.9292 25.2979C12.1455 25.0489 11.3847 24.7695 10.6003 24.5212C10.5161 24.4933 10.4312 24.4813 10.3418 24.4813C9.25851 24.4806 8.17377 24.48 7.08919 24.48C6.94468 24.48 6.85985 24.5707 7.00355 24.7525C7.82213 25.7877 8.29801 26.3744 8.87508 27.3424C8.93412 27.4432 9.0024 27.4818 9.12097 27.4818C9.51882 27.4818 9.91798 27.4811 10.3178 27.4811C10.4761 27.4811 10.6117 27.4444 10.7492 27.3634C11.1832 27.1092 11.6147 26.8723 12.0487 26.6176C12.1867 26.5365 12.3046 26.4877 12.4642 26.4877C16.4 26.4865 20.6183 26.4877 24.5532 26.4871C24.8041 26.4871 25.0639 26.7805 25.0639 27.0331C25.0639 27.0617 25.0639 27.0909 25.0639 27.1201C25.0639 27.215 25.1089 27.2505 25.2013 27.2321C26.2226 27.0205 27.0635 26.5302 27.8611 25.8795C27.9333 25.82 27.9333 25.7629 27.8611 25.7027Z" fill="#42BD3B"/>
<path d="M22.329 21.3755C22.5186 22.6712 21.6219 23.8735 20.3262 24.0631C19.0316 24.2524 17.8281 23.3573 17.6386 22.0616C17.449 20.7659 18.3455 19.5623 19.6401 19.3729C20.9359 19.1834 22.1395 20.0798 22.329 21.3755Z" fill="url(#paint2_linear_214_2397)"/>
<path d="M20.363 19.377L19.6504 24.0667C20.6712 24.212 21.7066 23.6723 22.1477 22.6829C22.6811 21.487 22.1443 20.0872 20.9494 19.5543C20.7573 19.4687 20.5611 19.4091 20.363 19.377Z" fill="url(#paint3_linear_214_2397)"/>
<path d="M21.9858 21.657C21.9858 22.5331 21.2744 23.2452 20.3963 23.2452C19.5188 23.2452 18.8086 22.5331 18.8086 21.657C18.8086 20.7789 19.5188 20.0674 20.3963 20.0674C21.2744 20.0674 21.9858 20.7789 21.9858 21.657Z" fill="white" stroke="#141414" stroke-width="1.13899"/>
<defs>
<linearGradient id="paint0_linear_214_2397" x1="18.0611" y1="36.0018" x2="17.9404" y2="0.998204" gradientUnits="userSpaceOnUse">
<stop stop-color="#99A2A7"/>
<stop offset="0.47584" stop-color="#98A3A8"/>
<stop offset="0.535243" stop-color="#E6E6E6"/>
<stop offset="1" stop-color="#E6E6E6"/>
</linearGradient>
<linearGradient id="paint1_linear_214_2397" x1="5.76484" y1="27.5121" x2="28.9467" y2="6.30035" gradientUnits="userSpaceOnUse">
<stop stop-color="#151313"/>
<stop offset="0.085001" stop-color="#151313"/>
<stop offset="0.127798" stop-color="#F8F1F1"/>
<stop offset="0.228741" stop-color="#151313"/>
<stop offset="0.304102" stop-color="#141414"/>
<stop offset="0.381742" stop-color="#F8F1F1"/>
<stop offset="0.449694" stop-color="#151313"/>
<stop offset="0.565496" stop-color="#F8F1F4"/>
<stop offset="0.626805" stop-color="#141414"/>
<stop offset="0.787047" stop-color="#F8F1F1"/>
<stop offset="1" stop-color="#F8F1F2"/>
</linearGradient>
<linearGradient id="paint2_linear_214_2397" x1="20.001" y1="21.2768" x2="22.229" y2="24.1898" gradientUnits="userSpaceOnUse">
<stop stop-color="#151313"/>
<stop offset="0.162563" stop-color="#CCC4C4"/>
<stop offset="0.496139" stop-color="#B7ACAD"/>
<stop offset="1" stop-color="#151313"/>
</linearGradient>
<linearGradient id="paint3_linear_214_2397" x1="20.5324" y1="20.9513" x2="17.2084" y2="22.3018" gradientUnits="userSpaceOnUse">
<stop stop-color="#151313"/>
<stop offset="0.25" stop-color="#CCC4C4"/>
<stop offset="0.5" stop-color="#B7ACAD"/>
<stop offset="1" stop-color="#151313"/>
</linearGradient>
</defs>
</svg>
