<svg width="36" height="34" viewBox="0 0 36 34" fill="none" xmlns="http://www.w3.org/2000/svg">
<path fill-rule="evenodd" clip-rule="evenodd" d="M18.072 6.66895C20.9293 6.66895 23.4692 7.84292 25.3211 9.7106C27.226 11.5783 28.3372 14.193 28.3372 17.0746C28.3372 19.9028 27.226 22.5176 25.3211 24.3853C23.4692 26.2529 20.9293 27.4269 18.072 27.4269C15.2147 27.4269 12.6749 26.2529 10.77 24.3853C8.918 22.5176 7.75391 19.9028 7.75391 17.0746C7.75391 14.193 8.918 11.5783 10.77 9.7106C12.6749 7.84292 15.2147 6.66895 18.072 6.66895ZM18.072 6.82903C15.2676 6.82903 12.7278 8.00301 10.9287 9.81733C9.07674 11.685 7.91265 14.2464 7.91265 17.0746C7.91265 19.9028 9.07674 22.4642 10.9287 24.2785C12.7278 26.1462 15.2676 27.2668 18.072 27.2668C20.8764 27.2668 23.4163 26.1462 25.2153 24.2785C27.0673 22.4642 28.1785 19.9028 28.1785 17.0746C28.1785 14.2464 27.0673 11.685 25.2153 9.81733C23.4163 8.00301 20.8764 6.82903 18.072 6.82903Z" fill="#BDBEB7"/>
<path fill-rule="evenodd" clip-rule="evenodd" d="M18.0747 1.17285C21.6728 1.17285 25.0063 2.40019 27.652 4.42796L29.3981 2.667L32.4671 5.76202L30.7209 7.57634C32.6787 10.2445 33.7899 13.4996 33.7899 17.0215C33.7899 25.7729 26.7524 32.9235 18.0747 32.9235C9.39686 32.9235 2.35938 25.7729 2.35938 17.0215C2.35938 8.27005 9.39686 1.17285 18.0747 1.17285ZM18.0747 4.90822C11.4605 4.90822 6.06331 10.3512 6.06331 17.0215C6.06331 23.7451 11.4605 29.1347 18.0747 29.1347C24.6888 29.1347 30.086 23.7451 30.086 17.0215C30.086 10.3512 24.6888 4.90822 18.0747 4.90822Z" fill="url(#paint0_radial_214_2430)"/>
<path fill-rule="evenodd" clip-rule="evenodd" d="M18.0742 4.85449C21.4077 4.85449 24.4238 6.18855 26.6462 8.42977C28.8156 10.6176 30.1914 13.6593 30.1914 17.0745C30.1914 20.4363 28.8156 23.478 26.6462 25.7192C24.4238 27.907 21.4077 29.2945 18.0742 29.2945C14.7407 29.2945 11.6717 27.907 9.50223 25.7192C7.33278 23.478 5.95703 20.4363 5.95703 17.0745C5.95703 13.6593 7.33278 10.6176 9.50223 8.42977C11.6717 6.18855 14.7407 4.85449 18.0742 4.85449ZM18.0742 5.01458C14.7936 5.01458 11.7775 6.34864 9.60805 8.5365C7.43861 10.7244 6.11577 13.7126 6.11577 17.0745C6.11577 20.3829 7.43861 23.4246 9.60805 25.6125C11.7775 27.747 14.7936 29.1344 18.0742 29.1344C21.3548 29.1344 24.3709 27.747 26.5403 25.6125C28.7098 23.4246 30.0326 20.3829 30.0326 17.0745C30.0326 13.7126 28.7098 10.7244 26.5403 8.5365C24.3709 6.34864 21.3548 5.01458 18.0742 5.01458Z" fill="url(#paint1_linear_214_2430)"/>
<path fill-rule="evenodd" clip-rule="evenodd" d="M18.075 1.06543C21.6731 1.06543 25.0596 2.29276 27.7052 4.3739L27.6523 4.42726C25.0067 2.39949 21.6731 1.17215 18.075 1.17215C9.39721 1.17215 2.35973 8.26935 2.35973 17.0208C2.35973 25.7722 9.39721 32.9228 18.075 32.9228C26.7528 32.9228 33.7903 25.7722 33.7903 17.0208C33.7903 13.4989 32.6791 10.2438 30.7213 7.57564L30.7742 7.52228C32.732 10.1904 33.8961 13.4455 33.8961 17.0208C33.8961 21.4499 32.0971 25.452 29.2397 28.3336C26.3824 31.2152 22.4668 32.9761 18.075 32.9761C13.7361 32.9761 9.76761 31.2152 6.91028 28.3336C4.05296 25.3987 2.25391 21.4499 2.25391 17.0208C2.25391 12.6451 4.05296 8.64289 6.91028 5.76132C9.76761 2.87975 13.6832 1.06543 18.075 1.06543Z" fill="url(#paint2_radial_214_2430)"/>
<path fill-rule="evenodd" clip-rule="evenodd" d="M18.0738 4.96094C24.688 4.96094 30.0852 10.3505 30.0852 17.0742C30.0852 23.7445 24.688 29.1875 18.0738 29.1875C11.4597 29.1875 6.0625 23.7445 6.0625 17.0742C6.0625 10.3505 11.4597 4.96094 18.0738 4.96094ZM18.0738 6.66853C12.4121 6.66853 7.80864 11.3111 7.80864 17.0742C7.80864 22.784 12.4121 27.4265 18.0738 27.4265C23.7356 27.4265 28.339 22.784 28.339 17.0742C28.339 11.3111 23.7356 6.66853 18.0738 6.66853Z" fill="url(#paint3_radial_214_2430)"/>
<path opacity="0.67" fill-rule="evenodd" clip-rule="evenodd" d="M3.71484 20.8671C3.71484 20.8819 3.71852 20.896 3.72587 20.9086C3.73248 20.9212 3.74424 20.9271 3.75967 20.9271C3.77143 20.9271 3.78246 20.9241 3.79421 20.9182C3.80597 20.9123 3.81773 20.9034 3.83096 20.8915V20.7744C3.78686 20.7811 3.75673 20.7922 3.73983 20.8078C3.72293 20.8241 3.71484 20.8441 3.71484 20.8671Z" fill="url(#paint4_linear_214_2430)"/>
<path opacity="0.67" d="M6.02662 20.5303H5.95312V20.5925H6.02662V20.5303Z" fill="url(#paint5_linear_214_2430)"/>
<path opacity="0.67" d="M6.02662 20.6055H5.95312V20.6699H6.02662V20.6055Z" fill="url(#paint6_linear_214_2430)"/>
<path opacity="0.67" fill-rule="evenodd" clip-rule="evenodd" d="M4.45703 20.8671C4.45703 20.8819 4.46071 20.896 4.46805 20.9086C4.47467 20.9212 4.48643 20.9271 4.50186 20.9271C4.51362 20.9271 4.52464 20.9241 4.5364 20.9182C4.54816 20.9123 4.55992 20.9034 4.57315 20.8915V20.7744C4.52905 20.7811 4.49892 20.7922 4.48202 20.8078C4.46512 20.8241 4.45703 20.8441 4.45703 20.8671Z" fill="url(#paint7_linear_214_2430)"/>
<path opacity="0.67" d="M6.48091 20.6406H6.27734V20.7377H6.48091V20.6406Z" fill="url(#paint8_linear_214_2430)"/>
<path opacity="0.67" fill-rule="evenodd" clip-rule="evenodd" d="M8.32568 20.3047H2.69922C2.83812 20.971 3.03066 21.6173 3.24966 22.2502H9.19507C8.84305 21.6373 8.54909 20.988 8.32568 20.3047ZM5.92694 20.4285L5.96956 20.4559L5.95413 20.4737V20.5189H6.02394L6.03938 20.4937L6.06877 20.5285L6.05334 20.5463V20.5937H6.06142L6.08274 20.5663L6.1136 20.6063H6.05334C6.05334 20.6464 6.05407 20.6745 6.05481 20.6916L6.02762 20.7079V20.6827H5.95413V20.7553H6.01071L6.02982 20.7249L6.05922 20.7679H5.95413V20.8353H6.04526L6.06657 20.8005L6.09964 20.8479H5.95413C5.95413 20.8761 5.95486 20.9065 5.9578 20.9384L5.92694 20.9532C5.92841 20.9146 5.92914 20.8798 5.92914 20.8479H5.85197C5.84022 20.8479 5.83066 20.8502 5.82258 20.8554L5.80494 20.8353H5.92914V20.7679H5.87329C5.863 20.7679 5.85565 20.7701 5.84977 20.7753L5.83434 20.7553H5.92914V20.6827H5.87329C5.863 20.6827 5.85565 20.6849 5.84977 20.6901L5.83434 20.6701H5.92914V20.6056H5.84536C5.83507 20.6056 5.82772 20.6078 5.82258 20.613L5.80715 20.593H5.92987V20.5307H5.87696C5.86667 20.5307 5.85859 20.533 5.85344 20.5381L5.83801 20.5181H5.92914C5.92914 20.4833 5.92841 20.4529 5.92694 20.4285ZM3.61197 20.9421H3.46058V20.9272H3.50468C3.51129 20.9272 3.5157 20.9258 3.51864 20.9221C3.52158 20.9184 3.52232 20.9139 3.52232 20.9072V20.55C3.52232 20.5433 3.52085 20.5381 3.51864 20.5352C3.5157 20.5322 3.51129 20.53 3.50468 20.53H3.46058V20.5152H3.48263C3.49439 20.5152 3.50541 20.5137 3.51644 20.51C3.52673 20.507 3.53701 20.5018 3.54657 20.4952H3.55024V20.9072C3.55024 20.9139 3.55171 20.9191 3.55465 20.9221C3.55833 20.925 3.562 20.9272 3.56788 20.9272H3.61271L3.61197 20.9421ZM3.8883 20.9287C3.88169 20.9376 3.8736 20.9428 3.86331 20.9428C3.85449 20.9428 3.84715 20.9406 3.842 20.9354C3.83686 20.931 3.83318 20.9221 3.83024 20.9102C3.81701 20.9221 3.80526 20.931 3.79423 20.9369C3.78321 20.9421 3.76998 20.945 3.75455 20.945C3.73103 20.945 3.71339 20.9376 3.70016 20.9235C3.68694 20.9095 3.68106 20.8932 3.68106 20.8754C3.68106 20.845 3.69134 20.8205 3.71119 20.8013C3.73103 20.782 3.77071 20.7686 3.83024 20.7598V20.7301C3.83024 20.7138 3.8273 20.6997 3.82142 20.6886C3.81554 20.6775 3.80232 20.6723 3.78174 20.6723C3.75969 20.6723 3.74426 20.6767 3.73544 20.6864C3.72662 20.696 3.72295 20.7049 3.72589 20.7153C3.72809 20.722 3.72809 20.7286 3.72589 20.7353C3.72295 20.742 3.7178 20.7449 3.71045 20.7449C3.70531 20.7449 3.7009 20.7427 3.69796 20.739C3.69502 20.7346 3.69281 20.7286 3.69281 20.7205C3.69281 20.7049 3.7009 20.6908 3.7178 20.6775C3.7347 20.6641 3.75528 20.6575 3.77953 20.6575C3.80526 20.6575 3.8251 20.6634 3.83759 20.676C3.85082 20.6886 3.8567 20.7064 3.8567 20.7294V20.8946C3.8567 20.908 3.85743 20.9161 3.85964 20.9184C3.86184 20.9206 3.86478 20.9221 3.87066 20.9221C3.87728 20.9221 3.88169 20.9184 3.88389 20.9109C3.8861 20.9035 3.88757 20.8932 3.88757 20.8798H3.89712C3.89785 20.9035 3.89491 20.9198 3.8883 20.9287ZM4.14037 20.9421H4.0588V20.9272H4.06835C4.07497 20.9272 4.07938 20.9258 4.08232 20.9221C4.08526 20.9184 4.08599 20.9139 4.08599 20.9072V20.7397C4.08599 20.7197 4.08305 20.7042 4.07644 20.693C4.06982 20.6819 4.06027 20.6767 4.04778 20.6767C4.03602 20.6767 4.02426 20.6819 4.01176 20.6916C3.99927 20.7019 3.98825 20.716 3.97796 20.7346V20.9072C3.97796 20.9139 3.97943 20.9191 3.9831 20.9221C3.98604 20.925 3.99045 20.9272 3.9956 20.9272H4.00515V20.9421H3.92358V20.9272H3.93313C3.93974 20.9272 3.94415 20.9258 3.94709 20.9221C3.95003 20.9184 3.95077 20.9139 3.95077 20.9072V20.6916C3.95077 20.6871 3.95003 20.6827 3.94856 20.6804C3.94709 20.6782 3.94415 20.6767 3.94048 20.6767H3.92358V20.6619H3.93754C3.94415 20.6619 3.95077 20.6612 3.95665 20.6597C3.96253 20.6582 3.96841 20.6545 3.97355 20.6493H3.97722V20.7071C3.98898 20.6908 4.00074 20.6782 4.01176 20.6701C4.02352 20.6612 4.03528 20.6575 4.04851 20.6575C4.07056 20.6575 4.08673 20.6649 4.09701 20.6797C4.1073 20.6953 4.11245 20.7175 4.11245 20.7472V20.9072C4.11245 20.9139 4.11392 20.9191 4.11759 20.9221C4.12127 20.925 4.12494 20.9272 4.13008 20.9272H4.13964L4.14037 20.9421ZM4.34688 20.9221C4.33586 20.9369 4.32116 20.9443 4.30279 20.9443C4.28368 20.9443 4.26898 20.9369 4.25943 20.9221C4.24987 20.9065 4.24473 20.8835 4.24473 20.8517V20.6767H4.18741V20.6619H4.20284C4.21827 20.6619 4.2315 20.656 4.24106 20.6434C4.25061 20.6308 4.25649 20.6115 4.25943 20.5848L4.2609 20.5648H4.27266V20.6619H4.34982V20.6767H4.27266V20.862C4.27266 20.8857 4.2756 20.9013 4.28221 20.9095C4.28882 20.9184 4.29838 20.9221 4.31161 20.9221C4.32484 20.9221 4.33512 20.9169 4.34247 20.9058C4.34982 20.8946 4.3557 20.8791 4.35791 20.8591L4.36746 20.8643C4.36526 20.888 4.35791 20.9072 4.34688 20.9221ZM4.63276 20.9287C4.62615 20.9376 4.61806 20.9428 4.60778 20.9428C4.59896 20.9428 4.59161 20.9406 4.58646 20.9354C4.58132 20.931 4.57764 20.9221 4.5747 20.9102C4.56148 20.9221 4.54972 20.931 4.53869 20.9369C4.52767 20.9428 4.51444 20.9458 4.49901 20.9458C4.47549 20.9458 4.45785 20.9384 4.44463 20.9243C4.4314 20.9102 4.42552 20.8939 4.42552 20.8761C4.42552 20.8457 4.43581 20.8213 4.45565 20.802C4.47549 20.7827 4.51518 20.7694 4.5747 20.7605V20.7301C4.5747 20.7138 4.57176 20.6997 4.56589 20.6886C4.56001 20.6775 4.54678 20.6723 4.5262 20.6723C4.50415 20.6723 4.48872 20.6767 4.4799 20.6864C4.47035 20.6953 4.46741 20.7049 4.46961 20.7153C4.47182 20.722 4.47182 20.7286 4.46961 20.7353C4.46741 20.742 4.46226 20.7449 4.45418 20.7449C4.44903 20.7449 4.44463 20.7427 4.44169 20.739C4.43875 20.7346 4.43654 20.7286 4.43654 20.7205C4.43654 20.7049 4.44463 20.6908 4.46153 20.6775C4.47843 20.6641 4.49901 20.6575 4.52326 20.6575C4.54898 20.6575 4.56882 20.6634 4.58132 20.676C4.59455 20.6886 4.60043 20.7064 4.60043 20.7294V20.8946C4.60043 20.908 4.60116 20.9161 4.60337 20.9184C4.60557 20.9206 4.60851 20.9221 4.61439 20.9221C4.621 20.9221 4.62541 20.9184 4.62762 20.9109C4.62982 20.9035 4.63129 20.8932 4.63129 20.8798H4.64085C4.64232 20.9035 4.63864 20.9198 4.63276 20.9287ZM4.87381 20.7145C4.87087 20.7197 4.86573 20.722 4.85911 20.722C4.8525 20.722 4.84736 20.7197 4.84442 20.7145C4.84148 20.7101 4.84001 20.7027 4.84148 20.6945C4.84148 20.6893 4.84074 20.6856 4.84001 20.6819C4.83854 20.679 4.83486 20.6767 4.82825 20.6767C4.81796 20.6767 4.80547 20.6849 4.79077 20.7019C4.77607 20.7182 4.76284 20.742 4.75108 20.7724V20.9072C4.75108 20.9139 4.75255 20.9191 4.75549 20.9221C4.75843 20.925 4.76284 20.9272 4.76799 20.9272H4.81061V20.9421H4.6673V20.9272H4.70625C4.71287 20.9272 4.71728 20.9258 4.72022 20.9221C4.72316 20.9184 4.72389 20.9139 4.72389 20.9072V20.6997C4.72389 20.693 4.72242 20.6879 4.72022 20.6834C4.71728 20.6797 4.71287 20.6775 4.70625 20.6775H4.6673V20.6627H4.68274C4.69229 20.6627 4.70331 20.6619 4.71581 20.659C4.7283 20.6567 4.73785 20.6538 4.74447 20.6501H4.75035V20.7405C4.76358 20.7138 4.77754 20.6938 4.79224 20.679C4.80694 20.6641 4.82237 20.6575 4.8378 20.6575C4.85103 20.6575 4.86058 20.6612 4.86793 20.6686C4.87528 20.676 4.87896 20.6849 4.87896 20.6945C4.87896 20.7034 4.87749 20.7101 4.87381 20.7145ZM5.42132 20.8472V20.9473C5.42132 20.9821 5.40736 21.0066 5.37869 21.0199C5.37796 20.9947 5.35738 20.9769 5.31843 20.965V20.9554C5.34415 20.9584 5.36326 20.9606 5.37502 20.9613C5.38678 20.9621 5.39192 20.9517 5.39192 20.9302V20.8479H5.23539C5.22069 20.8479 5.2082 20.8502 5.19644 20.8554L5.181 20.8353H5.39192C5.39192 20.8139 5.39119 20.7894 5.39045 20.7627L5.41544 20.7775L5.46762 20.7197H5.30667L5.28904 20.7271L5.27434 20.7079H5.46615L5.48746 20.6827L5.522 20.7323C5.50363 20.7294 5.47056 20.7464 5.42132 20.7849L5.44043 20.7975L5.42132 20.8131V20.8353H5.5514L5.57859 20.8005L5.61754 20.8479L5.42132 20.8472ZM5.61901 20.6975C5.5999 20.6975 5.5852 20.7079 5.57638 20.7279C5.49628 20.6849 5.44484 20.6212 5.42132 20.5381H5.40956C5.40956 20.616 5.41029 20.6627 5.41103 20.6775L5.37869 20.6879C5.38016 20.6515 5.3809 20.6056 5.3809 20.55C5.33827 20.6404 5.27066 20.7079 5.17733 20.7546L5.17512 20.7449C5.25596 20.6916 5.31549 20.6226 5.35297 20.5381H5.23318C5.21848 20.5381 5.20599 20.5404 5.19423 20.5456L5.1788 20.5255H5.38016C5.38016 20.5107 5.37943 20.4803 5.37796 20.4359L5.42867 20.4633L5.40956 20.4803V20.5255H5.55287L5.58006 20.4907L5.6146 20.5381H5.43087C5.46321 20.6197 5.52568 20.6693 5.61901 20.6879V20.6975ZM6.11875 20.9673C6.09302 20.9776 6.08127 20.9895 6.08347 21.0051C6.04746 21.0066 6.00704 21.0066 5.96148 21.0051C5.91591 21.0036 5.87696 20.9947 5.84463 20.9799C5.81155 20.9643 5.78436 20.9458 5.76452 20.9221C5.74762 20.9539 5.71749 20.9858 5.67339 21.0192L5.66751 21.0117C5.70058 20.9828 5.72851 20.9458 5.75056 20.8991C5.72998 20.8605 5.71455 20.8183 5.70426 20.7716L5.71234 20.7672C5.72557 20.8072 5.741 20.842 5.75864 20.8717C5.77187 20.8287 5.78069 20.7716 5.78583 20.7019H5.72998L5.71381 20.7301L5.68736 20.6953L5.71087 20.6827C5.73365 20.6345 5.75644 20.5856 5.77628 20.5352H5.71381L5.69103 20.5426L5.67486 20.5226H5.77775L5.79539 20.4952L5.82258 20.5352L5.80127 20.5478C5.77922 20.593 5.7557 20.6404 5.73145 20.6901H5.78363L5.79906 20.6678L5.82846 20.7027L5.81082 20.7197C5.80347 20.7901 5.79171 20.8479 5.77628 20.8946C5.79171 20.9146 5.81449 20.9302 5.84536 20.9421C5.87549 20.9539 5.91003 20.9606 5.94898 20.9636C5.98793 20.9665 6.04452 20.9636 6.11948 20.9576L6.11875 20.9673ZM6.59717 20.9628C6.57365 20.9673 6.56043 20.9806 6.55675 21.0028C6.51927 20.988 6.48694 20.9717 6.46048 20.9532C6.43402 20.9347 6.40977 20.9095 6.38772 20.8769C6.36567 20.8442 6.34877 20.802 6.33775 20.7509H6.27602V20.951L6.38037 20.8932L6.38405 20.9006C6.31717 20.9473 6.27675 20.9821 6.26426 21.0058L6.24074 20.9636C6.24589 20.9569 6.24883 20.9473 6.25029 20.9332V20.5737C6.25029 20.547 6.24956 20.5241 6.24809 20.5041L6.27528 20.5293H6.37376C6.37229 20.4996 6.36127 20.4707 6.34142 20.4411L6.3451 20.4336C6.37817 20.4514 6.39654 20.4685 6.40095 20.4833C6.40536 20.4981 6.40095 20.5137 6.38846 20.5285H6.47591L6.49134 20.5033L6.52221 20.5381L6.50457 20.553V20.6953C6.50457 20.7138 6.50531 20.7353 6.50604 20.7605L6.47885 20.7731V20.7509H6.34951C6.36274 20.7946 6.38037 20.8309 6.40169 20.8605C6.45827 20.8257 6.49869 20.7924 6.52221 20.7605L6.55087 20.8101H6.52809C6.48914 20.8279 6.45019 20.8487 6.40977 20.8702C6.43549 20.9006 6.46562 20.9213 6.50016 20.9339C6.5347 20.9465 6.56704 20.9524 6.59791 20.9524L6.59717 20.9628Z" fill="url(#paint9_linear_214_2430)"/>
<path opacity="0.67" d="M6.48091 20.54H6.27734V20.6275H6.48091V20.54Z" fill="url(#paint10_linear_214_2430)"/>
<path opacity="0.86" fill-rule="evenodd" clip-rule="evenodd" d="M27.8264 20.3047H33.4529C33.314 20.971 33.1214 21.6173 32.9024 22.2502H26.957C27.3091 21.6373 27.603 20.988 27.8264 20.3047Z" fill="url(#paint11_linear_214_2430)"/>
<path fill-rule="evenodd" clip-rule="evenodd" d="M33.7367 13.0186C34.107 14.2993 34.2658 15.6333 34.2658 17.0207C34.2658 18.4615 34.0541 19.8489 33.7367 21.183H2.46484V21.1296H33.6837C34.0541 19.7956 34.2129 18.4082 34.2129 16.9674C34.2129 15.5799 34.0541 14.2459 33.7367 13.0186Z" fill="black"/>
<path fill-rule="evenodd" clip-rule="evenodd" d="M2.41195 12.9658H33.7367C34.0542 14.2465 34.2129 15.5806 34.2129 16.968C34.2129 18.4088 34.0542 19.7962 33.6838 21.1303H2.46486C2.09447 19.7962 1.88281 18.4088 1.88281 16.968C1.88281 15.5806 2.09447 14.2465 2.41195 12.9658Z" fill="url(#paint12_radial_214_2430)"/>
<path fill-rule="evenodd" clip-rule="evenodd" d="M30.0307 1.59961L33.5229 5.12153L30.9302 7.73628L31.0889 7.94973L29.237 9.44388L28.6549 9.65733L32.4647 5.76188L29.3957 2.66686L25.5859 6.50895L25.7447 5.97533L30.0307 1.59961Z" fill="url(#paint13_linear_214_2430)"/>
<path fill-rule="evenodd" clip-rule="evenodd" d="M26.5391 1.22559C29.608 2.87982 32.095 5.44122 33.7882 8.48287V1.22559H26.5391Z" fill="url(#paint14_radial_214_2430)"/>
<path d="M26.5391 1.22559C29.608 2.87982 32.095 5.44122 33.7882 8.48287" stroke="#A8A89D" stroke-width="0.3402" stroke-linecap="round"/>
<path d="M26.5391 1.22559C29.5551 2.87982 32.095 5.44122 33.7353 8.48287" stroke="#C3C3BA" stroke-width="0.2361" stroke-linecap="round"/>
<path d="M26.4883 1.22559C29.5573 2.87982 32.0442 5.44122 33.7374 8.53623" stroke="#E1E1D9" stroke-width="0.1324" stroke-linecap="round"/>
<path d="M26.4883 1.22559C29.5043 2.93318 32.0442 5.44122 33.6845 8.53623" stroke="white" stroke-width="0.0283" stroke-linecap="round"/>
<path fill-rule="evenodd" clip-rule="evenodd" d="M33.7886 1.06543C33.8415 1.06543 33.8944 1.11879 33.8944 1.22552H26.5394H26.4336C26.4336 1.11879 26.4865 1.06543 26.5394 1.06543H33.7886Z" fill="url(#paint15_linear_214_2430)"/>
<path fill-rule="evenodd" clip-rule="evenodd" d="M33.8931 8.4828C33.8931 8.58953 33.8402 8.64289 33.7873 8.64289L33.7344 8.53617V1.06543C33.7344 1.06543 33.7344 1.06543 33.7873 1.06543C33.8402 1.06543 33.8931 1.11879 33.8931 1.22552V8.4828Z" fill="url(#paint16_linear_214_2430)"/>
<path fill-rule="evenodd" clip-rule="evenodd" d="M29.3992 19.0189C27.9867 19.0189 26.8366 18.1466 26.8366 17.0749C26.8366 16.0032 27.986 15.1309 29.3992 15.1309C30.8403 15.1309 32.014 16.0032 32.014 17.0749C32.014 18.1466 30.8403 19.0189 29.3992 19.0189ZM29.3992 15.7112C28.8906 15.7112 28.5224 16.2848 28.5224 17.0749C28.5224 17.8227 28.8994 18.386 29.3992 18.386C29.8747 18.386 30.2759 17.7864 30.2759 17.0749C30.2759 16.3226 29.882 15.7112 29.3992 15.7112ZM13.3128 19.0189C11.9003 19.0189 10.7502 18.1466 10.7502 17.0749C10.7502 16.0499 11.9238 15.1842 13.3128 15.1842C14.7539 15.1842 15.9276 16.0321 15.9276 17.0749C15.9276 18.1466 14.7539 19.0189 13.3128 19.0189ZM13.3128 15.7638C12.813 15.7638 12.436 16.3271 12.436 17.0749C12.436 17.8227 12.813 18.386 13.3128 18.386C13.7883 18.386 14.1895 17.7864 14.1895 17.0749C14.1895 16.3634 13.789 15.7638 13.3128 15.7638ZM24.7039 18.9114H24.6899H22.7306L21.0719 15.8053L20.2452 15.8172L20.2224 15.3147L23.8433 15.2917L23.8661 15.7942L22.943 15.8164L24.232 17.9709L25.3035 15.7831L24.6899 15.8164L24.6671 15.3139L27.1754 15.2909L27.1981 15.7934L26.3287 15.8157L24.709 18.8996L24.7039 18.9114ZM21.1667 18.9114H21.144H16.9638H16.1172L16.0951 18.303L16.9645 18.2807L16.941 15.7942L16.1165 15.8164L16.0944 15.3139L19.4507 15.2909L19.4735 15.7934L18.6041 15.8157L18.6269 18.3015L19.5036 18.2792C19.7888 18.2792 20.5391 18.0917 20.592 17.2327L21.144 17.2113L21.1667 18.887V18.9114ZM8.61745 18.9114H8.60349H6.64496L4.98627 15.8053L4.15877 15.8164L4.13672 15.3139L7.75761 15.2909L7.77966 15.7934L6.85808 15.8164L8.14711 17.9709L9.27152 15.7831L8.60349 15.8164L8.58071 15.3139L11.0912 15.2909L11.1132 15.7934L10.2423 15.8157L8.62333 18.8996L8.61745 18.9114Z" fill="white"/>
<path d="M29.3971 15.1538C30.8257 15.1538 31.9898 16.0076 31.9898 17.0749C31.9898 18.1421 30.8257 18.9959 29.3971 18.9959C28.0213 18.9959 26.8572 18.1421 26.8572 17.0749C26.8572 16.0076 28.0213 15.1538 29.3971 15.1538ZM29.3971 18.4089C29.8733 18.4089 30.2966 17.822 30.2966 17.0749C30.2966 16.2745 29.8733 15.6875 29.3971 15.6875C28.8679 15.6875 28.4975 16.2745 28.4975 17.0749C28.4975 17.822 28.8679 18.4089 29.3971 18.4089ZM13.3114 15.2072C14.7401 15.2072 15.9041 16.061 15.9041 17.0749C15.9041 18.1421 14.7401 18.9959 13.3114 18.9959C11.9356 18.9959 10.7715 18.1421 10.7715 17.0749C10.7715 16.061 11.9356 15.2072 13.3114 15.2072ZM13.3114 18.4089C13.7876 18.4089 14.2109 17.822 14.2109 17.0749C14.2109 16.3278 13.7876 15.7408 13.3114 15.7408C12.7823 15.7408 12.4119 16.3278 12.4119 17.0749C12.4119 17.822 12.7823 18.4089 13.3114 18.4089ZM27.1747 15.3139V15.7942H26.3281L24.6878 18.8892H22.73L21.0897 15.7942H20.243V15.3139H23.8412V15.7942H22.9416L24.2115 17.9821L25.3227 15.7942H24.6878V15.3139H27.1747ZM19.4493 15.3139V15.7942H18.6027V18.3022C18.6027 18.3022 19.1848 18.3022 19.5023 18.3022C19.8197 18.3022 20.5605 18.0888 20.6134 17.235C21.0367 17.235 21.1426 17.235 21.1426 17.235V18.8892H16.9624H16.1158V18.3022H16.9624V15.7942H16.1158V15.3139H19.4493ZM11.089 15.3139V15.7942H10.2424L8.6021 18.8892H6.64431L5.00399 15.7942H4.15738V15.3139H7.75549V15.7942H6.85596L8.12588 17.9821L9.28997 15.7942H8.6021V15.3139H11.089ZM29.3971 15.1094C27.9728 15.1094 26.8131 15.9913 26.8131 17.0749C26.8131 18.1584 27.9721 19.0404 29.3971 19.0404C30.8514 19.0404 32.0339 18.1584 32.0339 17.0749C32.0339 15.9913 30.8507 15.1094 29.3971 15.1094ZM29.3971 18.3645C28.9091 18.3645 28.5416 17.8101 28.5416 17.0749C28.5416 16.2967 28.901 15.7319 29.3971 15.7319C29.8689 15.7319 30.2525 16.3345 30.2525 17.0749C30.2525 17.7738 29.8608 18.3645 29.3971 18.3645ZM13.3114 15.1627C11.9107 15.1627 10.7275 16.0388 10.7275 17.0749C10.7275 18.1584 11.8864 19.0404 13.3114 19.0404C14.765 19.0404 15.9482 18.1584 15.9482 17.0749C15.9482 16.021 14.765 15.1627 13.3114 15.1627ZM13.3114 18.3645C12.8234 18.3645 12.456 17.8101 12.456 17.0749C12.456 16.3397 12.8234 15.7853 13.3114 15.7853C13.7751 15.7853 14.1668 16.376 14.1668 17.0749C14.1668 17.7738 13.7751 18.3645 13.3114 18.3645ZM27.2188 15.2695H27.1747H24.6878H24.6437V15.3139V15.7942V15.8387H24.6878H25.2507L24.2093 17.8894L23.0188 15.8387H23.8419H23.886V15.7942V15.3139V15.2695H23.8419H20.2438H20.1997V15.3139V15.7942V15.8387H20.2438H21.0639L22.6918 18.91L22.7043 18.9337H22.7307H24.6885H24.715L24.7275 18.91L26.3553 15.8387H27.1754H27.2195V15.7942V15.3139V15.2695H27.2188ZM19.4934 15.2695H19.4493H16.1158H16.0717V15.3139V15.7942V15.8387H16.1158H16.9183V18.2578H16.1158H16.0717V18.3022V18.8892V18.9337H16.1158H16.9624H21.1426H21.1867V18.8892V17.235V17.1905H21.1426H20.6134H20.5723L20.5701 17.232C20.5179 18.0732 19.7815 18.2578 19.5023 18.2578H18.6468V15.8387H19.4493H19.4934V15.7942V15.3139V15.2695ZM11.1331 15.2695H11.089H8.6021H8.55801V15.3139V15.7942V15.8387H8.6021H9.21648L8.12441 17.8916L6.93312 15.8387H7.75549H7.79958V15.7942V15.3139V15.2695H7.75549H4.15738H4.11328V15.3139V15.7942V15.8387H4.15738H4.97753L6.60535 18.91L6.61785 18.9337H6.64431H8.6021H8.62856L8.64105 18.91L10.2689 15.8387H11.089H11.1331V15.7942V15.3139V15.2695Z" fill="#363639"/>
<path d="M2.47054 13.0273C2.15306 14.308 1.94141 15.6421 1.94141 17.0295C1.94141 17.1444 1.98036 17.824 1.9833 17.9382L2.07516 18.9691C2.07369 18.8861 2.03327 17.2059 2.03327 17.1222C2.03327 15.7347 2.26256 14.4481 2.58004 13.1674L13.6647 13.1207L18.4489 13.0281L2.47054 13.0273Z" fill="url(#paint17_linear_214_2430)"/>
<defs>
<radialGradient id="paint0_radial_214_2430" cx="0" cy="0" r="1" gradientUnits="userSpaceOnUse" gradientTransform="translate(6.83827 13.8953) scale(32.8248 33.1034)">
<stop stop-color="white"/>
<stop offset="0.041" stop-color="#FBFAF8"/>
<stop offset="0.2247" stop-color="#F8F8F5"/>
<stop offset="0.2867" stop-color="#DBDBD8"/>
<stop offset="0.4133" stop-color="#A4A5A2"/>
<stop offset="0.5197" stop-color="#7F807D"/>
<stop offset="0.6004" stop-color="#686966"/>
<stop offset="0.6461" stop-color="#5F5F5D"/>
<stop offset="0.7394" stop-color="#565653"/>
<stop offset="0.8995" stop-color="#393835"/>
<stop offset="1"/>
</radialGradient>
<linearGradient id="paint1_linear_214_2430" x1="11.872" y1="14.9152" x2="23.6615" y2="18.9404" gradientUnits="userSpaceOnUse">
<stop stop-color="#DDDCD4"/>
<stop offset="1" stop-color="white"/>
</linearGradient>
<radialGradient id="paint2_radial_214_2430" cx="0" cy="0" r="1" gradientUnits="userSpaceOnUse" gradientTransform="translate(27.4157 27.2352) scale(36.0245 36.3302)">
<stop stop-color="#BDBEB9"/>
<stop offset="1" stop-color="#818179"/>
</radialGradient>
<radialGradient id="paint3_radial_214_2430" cx="0" cy="0" r="1" gradientUnits="userSpaceOnUse" gradientTransform="translate(23.7407 22.7892) scale(25.2974 25.512)">
<stop stop-color="white"/>
<stop offset="0.1572" stop-color="#F1F1F2"/>
<stop offset="0.2978" stop-color="#E4E5E6"/>
<stop offset="0.335" stop-color="#CFD0D0"/>
<stop offset="0.3996" stop-color="#AFB0AE"/>
<stop offset="0.4637" stop-color="#969895"/>
<stop offset="0.526" stop-color="#868784"/>
<stop offset="0.5858" stop-color="#7C7D7A"/>
<stop offset="0.6404" stop-color="#797A77"/>
<stop offset="0.7377" stop-color="#5D5E5A"/>
<stop offset="0.8456" stop-color="#41403C"/>
<stop offset="0.9369" stop-color="#1A1917"/>
<stop offset="1"/>
</radialGradient>
<linearGradient id="paint4_linear_214_2430" x1="3.77261" y1="20.9346" x2="3.77261" y2="20.8449" gradientUnits="userSpaceOnUse">
<stop stop-color="white"/>
<stop offset="0.17" stop-color="#F8F8F5"/>
<stop offset="0.427" stop-color="#B2B3AD"/>
<stop offset="0.4352" stop-color="#AEAFA9"/>
<stop offset="0.5344" stop-color="#8A8A85"/>
<stop offset="0.6334" stop-color="#6C6D67"/>
<stop offset="0.7305" stop-color="#52524D"/>
<stop offset="0.8252" stop-color="#3D3C37"/>
<stop offset="0.9163" stop-color="#22211E"/>
<stop offset="1" stop-color="#141311"/>
</linearGradient>
<linearGradient id="paint5_linear_214_2430" x1="5.98994" y1="20.5956" x2="5.98994" y2="20.5588" gradientUnits="userSpaceOnUse">
<stop stop-color="white"/>
<stop offset="0.17" stop-color="#F8F8F5"/>
<stop offset="0.427" stop-color="#B2B3AD"/>
<stop offset="0.4352" stop-color="#AEAFA9"/>
<stop offset="0.5344" stop-color="#8A8A85"/>
<stop offset="0.6334" stop-color="#6C6D67"/>
<stop offset="0.7305" stop-color="#52524D"/>
<stop offset="0.8252" stop-color="#3D3C37"/>
<stop offset="0.9163" stop-color="#22211E"/>
<stop offset="1" stop-color="#141311"/>
</linearGradient>
<linearGradient id="paint6_linear_214_2430" x1="5.98994" y1="20.6734" x2="5.98994" y2="20.6353" gradientUnits="userSpaceOnUse">
<stop stop-color="white"/>
<stop offset="0.17" stop-color="#F8F8F5"/>
<stop offset="0.427" stop-color="#B2B3AD"/>
<stop offset="0.4352" stop-color="#AEAFA9"/>
<stop offset="0.5344" stop-color="#8A8A85"/>
<stop offset="0.6334" stop-color="#6C6D67"/>
<stop offset="0.7305" stop-color="#52524D"/>
<stop offset="0.8252" stop-color="#3D3C37"/>
<stop offset="0.9163" stop-color="#22211E"/>
<stop offset="1" stop-color="#141311"/>
</linearGradient>
<linearGradient id="paint7_linear_214_2430" x1="4.51457" y1="20.9346" x2="4.51457" y2="20.8449" gradientUnits="userSpaceOnUse">
<stop stop-color="white"/>
<stop offset="0.17" stop-color="#F8F8F5"/>
<stop offset="0.427" stop-color="#B2B3AD"/>
<stop offset="0.4352" stop-color="#AEAFA9"/>
<stop offset="0.5344" stop-color="#8A8A85"/>
<stop offset="0.6334" stop-color="#6C6D67"/>
<stop offset="0.7305" stop-color="#52524D"/>
<stop offset="0.8252" stop-color="#3D3C37"/>
<stop offset="0.9163" stop-color="#22211E"/>
<stop offset="1" stop-color="#141311"/>
</linearGradient>
<linearGradient id="paint8_linear_214_2430" x1="6.37913" y1="20.7428" x2="6.37913" y2="20.6856" gradientUnits="userSpaceOnUse">
<stop stop-color="white"/>
<stop offset="0.17" stop-color="#F8F8F5"/>
<stop offset="0.427" stop-color="#B2B3AD"/>
<stop offset="0.4352" stop-color="#AEAFA9"/>
<stop offset="0.5344" stop-color="#8A8A85"/>
<stop offset="0.6334" stop-color="#6C6D67"/>
<stop offset="0.7305" stop-color="#52524D"/>
<stop offset="0.8252" stop-color="#3D3C37"/>
<stop offset="0.9163" stop-color="#22211E"/>
<stop offset="1" stop-color="#141311"/>
</linearGradient>
<linearGradient id="paint9_linear_214_2430" x1="5.94722" y1="22.3428" x2="5.94722" y2="21.2004" gradientUnits="userSpaceOnUse">
<stop stop-color="white"/>
<stop offset="0.17" stop-color="#F8F8F5"/>
<stop offset="0.427" stop-color="#B2B3AD"/>
<stop offset="0.4352" stop-color="#AEAFA9"/>
<stop offset="0.5344" stop-color="#8A8A85"/>
<stop offset="0.6334" stop-color="#6C6D67"/>
<stop offset="0.7305" stop-color="#52524D"/>
<stop offset="0.8252" stop-color="#3D3C37"/>
<stop offset="0.9163" stop-color="#22211E"/>
<stop offset="1" stop-color="#141311"/>
</linearGradient>
<linearGradient id="paint10_linear_214_2430" x1="6.37913" y1="20.6315" x2="6.37913" y2="20.5803" gradientUnits="userSpaceOnUse">
<stop stop-color="white"/>
<stop offset="0.17" stop-color="#F8F8F5"/>
<stop offset="0.427" stop-color="#B2B3AD"/>
<stop offset="0.4352" stop-color="#AEAFA9"/>
<stop offset="0.5344" stop-color="#8A8A85"/>
<stop offset="0.6334" stop-color="#6C6D67"/>
<stop offset="0.7305" stop-color="#52524D"/>
<stop offset="0.8252" stop-color="#3D3C37"/>
<stop offset="0.9163" stop-color="#22211E"/>
<stop offset="1" stop-color="#141311"/>
</linearGradient>
<linearGradient id="paint11_linear_214_2430" x1="30.2049" y1="22.3428" x2="30.2049" y2="21.2004" gradientUnits="userSpaceOnUse">
<stop stop-color="white"/>
<stop offset="0.17" stop-color="#F8F8F5"/>
<stop offset="0.427" stop-color="#B2B3AD"/>
<stop offset="0.4352" stop-color="#AEAFA9"/>
<stop offset="0.5344" stop-color="#8A8A85"/>
<stop offset="0.6334" stop-color="#6C6D67"/>
<stop offset="0.7305" stop-color="#52524D"/>
<stop offset="0.8252" stop-color="#3D3C37"/>
<stop offset="0.9163" stop-color="#22211E"/>
<stop offset="1" stop-color="#141311"/>
</linearGradient>
<radialGradient id="paint12_radial_214_2430" cx="0" cy="0" r="1" gradientUnits="userSpaceOnUse" gradientTransform="translate(3.34822 13.8967) scale(20.422 20.5953)">
<stop stop-color="#0071BC"/>
<stop offset="0.0822" stop-color="#0069AF"/>
<stop offset="0.1658" stop-color="#0064A7"/>
<stop offset="0.2416" stop-color="#0063A5"/>
<stop offset="0.3915" stop-color="#005D9B"/>
<stop offset="0.6854" stop-color="#004C82"/>
<stop offset="0.8371" stop-color="#004274"/>
<stop offset="0.9335" stop-color="#004274"/>
<stop offset="0.9682" stop-color="#004073"/>
<stop offset="0.9929" stop-color="#003D71"/>
<stop offset="1" stop-color="#003B70"/>
</radialGradient>
<linearGradient id="paint13_linear_214_2430" x1="33.2129" y1="9.53163" x2="25.1875" y2="1.57367" gradientUnits="userSpaceOnUse">
<stop offset="0.0056" stop-color="#0C0B04"/>
<stop offset="0.6461" stop-color="#43423F"/>
<stop offset="0.6504" stop-color="#474643"/>
<stop offset="0.655" stop-color="#53534F"/>
<stop offset="0.6596" stop-color="#646460"/>
<stop offset="0.6642" stop-color="#7C7C78"/>
<stop offset="0.6689" stop-color="#979894"/>
<stop offset="0.6736" stop-color="#BCBDB8"/>
<stop offset="0.6783" stop-color="#E8E8E2"/>
<stop offset="0.68" stop-color="#FBFAF5"/>
<stop offset="0.6824" stop-color="#F9F8F3"/>
<stop offset="0.6839" stop-color="#F1F0EA"/>
<stop offset="0.6852" stop-color="#E4E4DE"/>
<stop offset="0.6864" stop-color="#D3D3CC"/>
<stop offset="0.6874" stop-color="#BCBDB6"/>
<stop offset="0.6885" stop-color="#A2A29B"/>
<stop offset="0.6894" stop-color="#84847D"/>
<stop offset="0.69" stop-color="#6E6E67"/>
<stop offset="0.7057" stop-color="#5F5F5B"/>
<stop offset="0.7315" stop-color="#4C4B4A"/>
<stop offset="0.7621" stop-color="#373736"/>
<stop offset="0.7999" stop-color="#1F1F1F"/>
<stop offset="0.8529" stop-color="#080808"/>
<stop offset="1"/>
</linearGradient>
<radialGradient id="paint14_radial_214_2430" cx="0" cy="0" r="1" gradientUnits="userSpaceOnUse" gradientTransform="translate(32.5594 2.03751) scale(8.53464 8.60706)">
<stop stop-color="#565550"/>
<stop offset="1" stop-color="#51514C"/>
</radialGradient>
<linearGradient id="paint15_linear_214_2430" x1="26.4337" y1="1.1454" x2="33.8943" y2="1.1454" gradientUnits="userSpaceOnUse">
<stop stop-color="#5C5D60"/>
<stop offset="0.0192" stop-color="#5A5B5C"/>
<stop offset="0.2048" stop-color="#474644"/>
<stop offset="0.4097" stop-color="#31312E"/>
<stop offset="0.6486" stop-color="#1C1C1A"/>
<stop offset="1" stop-color="#141311"/>
</linearGradient>
<linearGradient id="paint16_linear_214_2430" x1="33.8137" y1="8.64296" x2="33.8137" y2="1.06543" gradientUnits="userSpaceOnUse">
<stop stop-color="#5C5D60"/>
<stop offset="0.3855" stop-color="#444341"/>
<stop offset="0.7416" stop-color="#242421"/>
<stop offset="1" stop-color="#141311"/>
</linearGradient>
<linearGradient id="paint17_linear_214_2430" x1="6.20983" y1="10.4707" x2="11.0394" y2="16.948" gradientUnits="userSpaceOnUse">
<stop stop-color="white"/>
<stop offset="0.1091" stop-color="#D3DFF2"/>
<stop offset="0.3376" stop-color="#89AEDC"/>
<stop offset="0.5419" stop-color="#4E90CD"/>
<stop offset="0.7143" stop-color="#007EC3"/>
<stop offset="0.8481" stop-color="#0075BD"/>
<stop offset="0.927" stop-color="#0071BC"/>
<stop offset="0.9468" stop-color="#007AC0"/>
<stop offset="0.9667" stop-color="#3681C3"/>
<stop offset="0.985" stop-color="#4985C6"/>
<stop offset="1" stop-color="#5087C7"/>
</linearGradient>
</defs>
</svg>
