<svg width="5" height="35" viewBox="0 0 5 35" fill="none" xmlns="http://www.w3.org/2000/svg">
<g clip-path="url(#clip0_233_20200)">
<path d="M5 32.5C5 31.1193 3.88071 30 2.5 30C1.11929 30 0 31.1193 0 32.5C0 33.8807 1.11929 35 2.5 35C3.88071 35 5 33.8807 5 32.5Z" fill="#AAAAAA"/>
<path d="M5 17.5C5 16.1193 3.88071 15 2.5 15C1.11929 15 0 16.1193 0 17.5C0 18.8807 1.11929 20 2.5 20C3.88071 20 5 18.8807 5 17.5Z" fill="#AAAAAA"/>
<path d="M5 2.5C5 1.11929 3.88071 0 2.5 0C1.11929 0 0 1.11929 0 2.5C0 3.88071 1.11929 5 2.5 5C3.88071 5 5 3.88071 5 2.5Z" fill="#AAAAAA"/>
</g>
<defs>
<clipPath id="clip0_233_20200">
<rect width="35" height="5" fill="white" transform="matrix(0 -1 1 0 0 35)"/>
</clipPath>
</defs>
</svg>
