<svg width="192" height="30" viewBox="0 0 192 30" fill="none" xmlns="http://www.w3.org/2000/svg">
<path d="M0 23.7099L9.9006 1.91406H13.9237L23.8557 23.7099H19.5812L11.0635 4.06251H12.6979L4.21168 23.7099H0ZM4.55742 18.6657L5.65748 15.4898H17.5382L18.6383 18.6657H4.55742Z" fill="black"/>
<path d="M25.218 23.7099V7.08279H33.4214C35.4539 7.08279 37.0464 7.45643 38.1988 8.20372C39.3722 8.95101 39.9589 10.0097 39.9589 11.3797C39.9589 12.729 39.4141 13.7876 38.3245 14.5557C37.235 15.3029 35.7892 15.6766 33.9871 15.6766L34.4586 14.7113C36.4911 14.7113 37.9998 15.085 38.9846 15.8323C39.9904 16.5588 40.4932 17.6278 40.4932 19.0394C40.4932 20.5132 39.938 21.6653 38.8274 22.4956C37.7169 23.3051 36.0301 23.7099 33.7671 23.7099H25.218ZM28.9583 20.8764H33.4528C34.5215 20.8764 35.3282 20.7104 35.873 20.3783C36.4178 20.0254 36.6902 19.496 36.6902 18.7903C36.6902 18.043 36.4387 17.4929 35.9358 17.14C35.4329 16.7871 34.6472 16.6107 33.5785 16.6107H28.9583V20.8764ZM28.9583 14.0263H33.0757C34.0814 14.0263 34.8358 13.8499 35.3386 13.497C35.8625 13.1234 36.1244 12.6044 36.1244 11.9402C36.1244 11.2551 35.8625 10.7466 35.3386 10.4144C34.8358 10.0823 34.0814 9.91625 33.0757 9.91625H28.9583V14.0263Z" fill="black"/>
<path d="M46.5952 23.7099V9.4492L47.5067 10.3833H40.6862V7.08279H56.4015V10.3833H49.6125L50.524 9.4492V23.7099H46.5952Z" fill="black"/>
<path d="M101.489 15.0546C102.997 15.6566 103.752 16.7983 103.752 18.4796C103.752 20.0988 103.071 21.3754 101.709 22.3095C100.368 23.2436 98.4817 23.7107 96.0511 23.7107H86.8105L90.205 6.95898H98.6913C100.64 6.95898 102.128 7.30149 103.154 7.9865C104.202 8.67152 104.726 9.65752 104.726 10.9445C104.726 11.8786 104.443 12.7089 103.877 13.4355C103.312 14.1412 102.515 14.6809 101.489 15.0546ZM93.3167 13.8402H97.0254C97.9055 13.8402 98.6179 13.6534 99.1627 13.2798C99.7075 12.8854 99.9799 12.3768 99.9799 11.7541C99.9799 10.7369 99.2361 10.2284 97.7484 10.2284H94.0396L93.3167 13.8402ZM96.1454 20.4101C97.1093 20.4101 97.8636 20.2129 98.4084 19.8185C98.9741 19.4241 99.257 18.8948 99.257 18.2306C99.257 17.7116 99.0684 17.3276 98.6913 17.0785C98.3351 16.8294 97.7798 16.7048 97.0254 16.7048H92.7509L91.9966 20.4101H96.1454Z" fill="#2A00A3"/>
<path d="M113.34 24.1777C111.056 24.1777 109.306 23.721 108.091 22.8077C106.897 21.8943 106.3 20.5658 106.3 18.8222C106.3 18.2617 106.363 17.6597 106.488 17.0162L108.531 6.95898H113.434L112.271 12.6259C113.55 11.8371 115.048 11.4427 116.766 11.4427C118.715 11.4427 120.181 11.8786 121.166 12.7505C122.151 13.6223 122.643 14.8989 122.643 16.5803C122.643 18.1164 122.266 19.4553 121.512 20.597C120.758 21.7386 119.679 22.6209 118.275 23.2436C116.871 23.8663 115.226 24.1777 113.34 24.1777ZM126.478 6.95898H131.381L128.018 23.7107H123.115L126.478 6.95898ZM113.78 20.7526C114.891 20.7526 115.813 20.4205 116.546 19.7563C117.279 19.0712 117.646 18.1994 117.646 17.1408C117.646 16.352 117.416 15.75 116.955 15.3348C116.515 14.9197 115.875 14.7121 115.037 14.7121C114.367 14.7121 113.728 14.847 113.12 15.1169C112.512 15.3867 111.989 15.7707 111.549 16.2689L111.297 17.6389C111.234 17.9503 111.203 18.2306 111.203 18.4796C111.203 19.2062 111.423 19.7666 111.863 20.161C112.303 20.5554 112.942 20.7526 113.78 20.7526Z" fill="#2A00A3"/>
<path d="M144.937 15.3037L149.588 23.7107H143.931L140.882 17.3587H138.116L136.827 23.7107H131.924L135.319 6.95898H140.222L138.902 13.4666H141.448L147.388 6.95898H152.731L144.937 15.3037Z" fill="#2A00A3"/>
<path d="M171.303 6.95898L168.443 21.0951C167.814 24.2088 166.63 26.4715 164.891 27.883C163.173 29.2945 160.868 30.0003 157.976 30.0003C156.363 30.0003 154.886 29.8031 153.545 29.4087C152.204 29.0143 151.062 28.4435 150.119 27.6962L152.413 24.2088C153.105 24.7901 153.953 25.2467 154.959 25.5789C155.965 25.911 157.023 26.0771 158.134 26.0771C159.726 26.0771 160.92 25.7242 161.717 25.0184C162.534 24.3126 163.1 23.2021 163.414 21.6868L163.54 21.1574C162.094 22.3199 160.365 22.9011 158.354 22.9011C156.51 22.9011 155.033 22.4133 153.922 21.4377C152.832 20.4413 152.288 19.0401 152.288 17.2342C152.288 16.5699 152.361 15.8849 152.508 15.1791L154.142 6.95898H159.045L157.442 14.8678C157.358 15.2622 157.316 15.6566 157.316 16.051C157.316 16.9228 157.547 17.5871 158.008 18.0437C158.49 18.5004 159.202 18.7287 160.145 18.7287C161.381 18.7287 162.408 18.3655 163.225 17.6389C164.043 16.9124 164.598 15.833 164.891 14.4007L166.4 6.95898H171.303Z" fill="#2A00A3"/>
<path d="M191.999 6.95898L188.605 23.7107H183.702L186.216 10.9445H179.207L176.693 23.7107H171.789L175.184 6.95898H191.999Z" fill="#2A00A3"/>
<path d="M80.6923 8.61553C79.141 5.90154 76.6157 3.94852 73.5816 3.11617C70.5475 2.28381 67.3679 2.67175 64.6283 4.20859C61.8887 5.74541 59.9173 8.24711 59.0771 11.2528C58.2369 14.2586 58.6285 17.4085 60.1798 20.1225C61.7311 22.8365 64.2564 24.7895 67.2905 25.6219C70.3246 26.4542 73.5042 26.0663 76.2438 24.5294C78.9833 22.9927 80.9548 20.4909 81.795 17.4852C82.6352 14.4794 82.2436 11.3295 80.6923 8.61553ZM72.878 5.63324C77.3498 6.86001 80.1279 11.1911 79.498 15.6258L74.1793 13.5989C73.8952 12.2547 72.8824 11.1086 71.4568 10.7175C70.0312 10.3264 68.5675 10.7931 67.6259 11.8011L62.0123 10.8289C63.7749 6.70485 68.4062 4.40647 72.878 5.63324ZM61.3783 13.0851L66.663 14.9837C66.8009 15.8048 67.2095 16.5613 67.8192 17.1303L66.6635 22.6279C62.976 20.9774 60.7997 17.0707 61.3783 13.0851ZM70.1189 15.5035C69.4874 15.3302 69.116 14.6804 69.2909 14.0549C69.4657 13.4293 70.1218 13.0613 70.7532 13.2345C71.3846 13.4078 71.7561 14.0577 71.5812 14.6832C71.4064 15.3087 70.7504 15.6767 70.1189 15.5035ZM69.3829 23.3739L71.2464 18.0706C72.0675 17.8922 72.8072 17.4526 73.3525 16.8189L78.8703 17.8838C77.2969 21.5965 73.402 23.8377 69.3829 23.3739Z" fill="black"/>
</svg>
