<svg width="57" height="23" viewBox="0 0 57 23" fill="none" xmlns="http://www.w3.org/2000/svg">
<path d="M0 22.7099L9.9006 0.914062H13.9237L23.8557 22.7099H19.5812L11.0635 3.06251H12.6979L4.21168 22.7099H0ZM4.55742 17.6657L5.65748 14.4898H17.5382L18.6383 17.6657H4.55742Z" fill="black"/>
<path d="M25.218 22.7099V6.08279H33.4214C35.4539 6.08279 37.0464 6.45643 38.1988 7.20372C39.3722 7.95101 39.9589 9.00966 39.9589 10.3797C39.9589 11.729 39.4141 12.7876 38.3245 13.5557C37.235 14.3029 35.7892 14.6766 33.9871 14.6766L34.4586 13.7113C36.4911 13.7113 37.9998 14.085 38.9846 14.8323C39.9904 15.5588 40.4932 16.6278 40.4932 18.0394C40.4932 19.5132 39.938 20.6653 38.8274 21.4956C37.7169 22.3051 36.0301 22.7099 33.7671 22.7099H25.218ZM28.9583 19.8764H33.4528C34.5215 19.8764 35.3282 19.7104 35.873 19.3783C36.4178 19.0254 36.6902 18.496 36.6902 17.7903C36.6902 17.043 36.4387 16.4929 35.9358 16.14C35.4329 15.7871 34.6472 15.6107 33.5785 15.6107H28.9583V19.8764ZM28.9583 13.0263H33.0757C34.0814 13.0263 34.8358 12.8499 35.3386 12.497C35.8625 12.1234 36.1244 11.6044 36.1244 10.9402C36.1244 10.2551 35.8625 9.74657 35.3386 9.41444C34.8358 9.08232 34.0814 8.91625 33.0757 8.91625H28.9583V13.0263Z" fill="black"/>
<path d="M46.5952 22.7099V8.4492L47.5067 9.38331H40.6862V6.08279H56.4015V9.38331H49.6125L50.524 8.4492V22.7099H46.5952Z" fill="black"/>
</svg>
