<svg width="25" height="25" viewBox="0 0 25 25" fill="none" xmlns="http://www.w3.org/2000/svg">
<path d="M22.6923 6.61553C21.141 3.90154 18.6157 1.94852 15.5816 1.11617C12.5475 0.283809 9.36786 0.671746 6.62827 2.20859C3.88874 3.74541 1.91732 6.24711 1.07711 9.25285C0.236908 12.2586 0.628503 15.4085 2.17981 18.1225C3.73114 20.8365 6.25642 22.7895 9.2905 23.6219C12.3246 24.4542 15.5042 24.0663 18.2438 22.5294C20.9833 20.9927 22.9548 18.4909 23.795 15.4852C24.6352 12.4794 24.2436 9.32948 22.6923 6.61553ZM14.878 3.63324C19.3498 4.86001 22.1279 9.19106 21.498 13.6258L16.1793 11.5989C15.8952 10.2547 14.8824 9.10855 13.4568 8.71746C12.0312 8.32637 10.5675 8.79314 9.62585 9.80106L4.01234 8.8289C5.77493 4.70485 10.4062 2.40647 14.878 3.63324ZM3.37828 11.0851L8.66305 12.9837C8.80091 13.8048 9.20949 14.5613 9.81916 15.1303L8.66354 20.6279C4.97601 18.9774 2.7997 15.0707 3.37828 11.0851ZM12.1189 13.5035C11.4874 13.3302 11.116 12.6804 11.2909 12.0549C11.4657 11.4293 12.1218 11.0613 12.7532 11.2345C13.3846 11.4078 13.7561 12.0577 13.5812 12.6832C13.4064 13.3087 12.7504 13.6767 12.1189 13.5035ZM11.3829 21.3739L13.2464 16.0706C14.0675 15.8922 14.8072 15.4526 15.3525 14.8189L20.8703 15.8838C19.2969 19.5965 15.402 21.8377 11.3829 21.3739Z" fill="black"/>
</svg>
