<svg width="185" height="5" viewBox="0 0 185 5" fill="none" xmlns="http://www.w3.org/2000/svg">
<g clip-path="url(#clip0_69_3902)">
<path d="M122.5 5C123.881 5 125 3.88071 125 2.5C125 1.11929 123.881 0 122.5 0C121.119 0 120 1.11929 120 2.5C120 3.88071 121.119 5 122.5 5Z" fill="#AAAAAA"/>
<path d="M137.5 5C138.881 5 140 3.88071 140 2.5C140 1.11929 138.881 0 137.5 0C136.119 0 135 1.11929 135 2.5C135 3.88071 136.119 5 137.5 5Z" fill="#AAAAAA"/>
<path d="M152.5 5C153.881 5 155 3.88071 155 2.5C155 1.11929 153.881 0 152.5 0C151.119 0 150 1.11929 150 2.5C150 3.88071 151.119 5 152.5 5Z" fill="#AAAAAA"/>
<path d="M167.5 5C168.881 5 170 3.88071 170 2.5C170 1.11929 168.881 0 167.5 0C166.119 0 165 1.11929 165 2.5C165 3.88071 166.119 5 167.5 5Z" fill="#AAAAAA"/>
<path d="M182.5 5C183.881 5 185 3.88071 185 2.5C185 1.11929 183.881 0 182.5 0C181.119 0 180 1.11929 180 2.5C180 3.88071 181.119 5 182.5 5Z" fill="#AAAAAA"/>
<path d="M2.5 5C3.88071 5 5 3.88071 5 2.5C5 1.11929 3.88071 0 2.5 0C1.11929 0 0 1.11929 0 2.5C0 3.88071 1.11929 5 2.5 5Z" fill="#AAAAAA"/>
<path d="M17.5 5C18.8807 5 20 3.88071 20 2.5C20 1.11929 18.8807 0 17.5 0C16.1193 0 15 1.11929 15 2.5C15 3.88071 16.1193 5 17.5 5Z" fill="#AAAAAA"/>
<path d="M32.5 5C33.8807 5 35 3.88071 35 2.5C35 1.11929 33.8807 0 32.5 0C31.1193 0 30 1.11929 30 2.5C30 3.88071 31.1193 5 32.5 5Z" fill="#AAAAAA"/>
<path d="M47.5 5C48.8807 5 50 3.88071 50 2.5C50 1.11929 48.8807 0 47.5 0C46.1193 0 45 1.11929 45 2.5C45 3.88071 46.1193 5 47.5 5Z" fill="#AAAAAA"/>
<path d="M62.5 5C63.8807 5 65 3.88071 65 2.5C65 1.11929 63.8807 0 62.5 0C61.1193 0 60 1.11929 60 2.5C60 3.88071 61.1193 5 62.5 5Z" fill="#AAAAAA"/>
<path d="M77.5 5C78.8807 5 80 3.88071 80 2.5C80 1.11929 78.8807 0 77.5 0C76.1193 0 75 1.11929 75 2.5C75 3.88071 76.1193 5 77.5 5Z" fill="#AAAAAA"/>
<path d="M92.5 5C93.8807 5 95 3.88071 95 2.5C95 1.11929 93.8807 0 92.5 0C91.1193 0 90 1.11929 90 2.5C90 3.88071 91.1193 5 92.5 5Z" fill="#AAAAAA"/>
<path d="M107.5 5C108.881 5 110 3.88071 110 2.5C110 1.11929 108.881 0 107.5 0C106.119 0 105 1.11929 105 2.5C105 3.88071 106.119 5 107.5 5Z" fill="#AAAAAA"/>
</g>
<defs>
<clipPath id="clip0_69_3902">
<rect width="185" height="5" fill="white"/>
</clipPath>
</defs>
</svg>
