<svg width="42" height="34" viewBox="0 0 42 34" fill="none" xmlns="http://www.w3.org/2000/svg">
<g clip-path="url(#clip0_214_2101)">
<path d="M24.3931 18.3589C24.3606 18.367 24.2304 18.367 24.1735 18.367H19.9759V19.3345H24.2467C24.2793 19.3345 24.5314 19.3345 24.5802 19.3264C25.4507 19.2458 25.8493 18.5282 25.8493 17.8994C25.8493 17.2544 25.4344 16.561 24.6453 16.4884C24.4908 16.4723 24.3606 16.4723 24.3037 16.4723H21.5134C21.3913 16.4723 21.253 16.4642 21.2042 16.4481C20.9846 16.3917 20.9032 16.1982 20.9032 16.0369C20.9032 15.8918 20.9846 15.6983 21.2124 15.6338C21.2775 15.6177 21.3507 15.6096 21.5052 15.6096H25.532V14.6582H21.4402C21.2693 14.6582 21.1392 14.6663 21.0334 14.6824C20.3338 14.7791 19.8457 15.3355 19.8457 16.045C19.8457 16.6255 20.2118 17.3027 21.0171 17.4156C21.1636 17.4317 21.3669 17.4317 21.4564 17.4317H24.1735C24.2223 17.4317 24.3443 17.4317 24.3687 17.4398C24.6779 17.4801 24.7836 17.7059 24.7836 17.9074C24.7836 18.1009 24.6616 18.3106 24.3931 18.3589Z" fill="black"/>
<path d="M16.4361 18.3589C16.4036 18.367 16.2734 18.367 16.2246 18.367H12.0188V19.3345H16.2897C16.3222 19.3345 16.5744 19.3345 16.6232 19.3264C17.4937 19.2458 17.8923 18.5282 17.8923 17.8994C17.8923 17.2544 17.4774 16.561 16.6883 16.4884C16.5337 16.4723 16.4036 16.4723 16.3466 16.4723H13.5563C13.4343 16.4723 13.296 16.4642 13.2472 16.4481C13.0276 16.3917 12.9462 16.1982 12.9462 16.0369C12.9462 15.8918 13.0276 15.6983 13.2553 15.6338C13.3204 15.6177 13.3936 15.6096 13.5482 15.6096H17.575V14.6582H13.4831C13.3123 14.6582 13.1821 14.6663 13.0764 14.6824C12.3768 14.7791 11.8887 15.3355 11.8887 16.045C11.8887 16.6255 12.2547 17.3027 13.0601 17.4156C13.2065 17.4317 13.4099 17.4317 13.4994 17.4317H16.2165C16.2653 17.4317 16.3873 17.4317 16.4117 17.4398C16.7208 17.4801 16.8266 17.7059 16.8266 17.9074C16.8266 18.1009 16.7127 18.3106 16.4361 18.3589Z" fill="black"/>
<path d="M9.83098 14.626H8.77344V19.3587H9.83098V14.626Z" fill="black"/>
<path d="M6.43851 19.3587V14.626H5.38097V18.1574L1.85854 14.626H0.5V19.3587H1.55754V15.8112L5.10438 19.3587H6.43851Z" fill="black"/>
<path d="M40.4513 14.626V18.1574L36.9288 14.626H35.5703V19.3587H36.6279V15.8112L40.1666 19.3587H41.5007V14.626H40.4513Z" fill="black"/>
<path d="M30.0633 14.626L27.0859 19.3587H28.3713L28.9 18.5121H32.3737L32.9024 19.3587H34.1796L31.2022 14.626H30.0633ZM31.8286 17.6172H29.4451L30.6409 15.7144L31.8286 17.6172Z" fill="black"/>
<path d="M6.38072 11.9407C8.51208 5.77282 14.3855 1.62865 21.0074 1.62865C27.6292 1.62865 33.5108 5.77282 35.634 11.9407L35.6503 11.9891H40.3116V11.4328L38.3755 11.207C37.1796 11.0699 36.9275 10.5459 36.6021 9.88475L36.5207 9.72349C33.7223 3.82167 27.6292 0 21.0074 0C14.3774 0 8.29243 3.82167 5.49401 9.73962L5.41266 9.90087C5.08726 10.562 4.83508 11.0861 3.63924 11.2231L1.70312 11.4489V12.0052H6.35632L6.38072 11.9407Z" fill="black"/>
<path d="M35.6519 22.0032L35.6356 22.0516C33.5043 28.2194 27.6308 32.3556 21.009 32.3556C14.3871 32.3556 8.50557 28.2114 6.38235 22.0435L6.36608 21.9951H1.71289V22.5514L3.64901 22.7772C4.84485 22.9143 5.09703 23.4383 5.42243 24.0995L5.50378 24.2607C8.3022 30.1787 14.3953 34.0003 21.0171 34.0003C27.639 34.0003 33.7321 30.1787 36.5305 24.2688L36.6118 24.1075C36.9372 23.4464 37.1894 22.9223 38.3852 22.7853L40.3214 22.5595V22.0032H35.6519Z" fill="black"/>
</g>
<defs>
<clipPath id="clip0_214_2101">
<rect width="41" height="34" fill="white" transform="translate(0.5)"/>
</clipPath>
</defs>
</svg>
