<svg width="36" height="35" viewBox="0 0 36 35" fill="none" xmlns="http://www.w3.org/2000/svg">
<g clip-path="url(#clip0_214_2085)">
<path d="M17.9985 18.7775C17.946 18.7775 17.8454 18.7104 17.6748 18.3983C16.9607 17.0688 15.9802 15.9006 14.7946 14.9669C13.8641 14.2371 12.8312 13.6484 11.7292 13.2198C11.5621 13.1519 11.3944 13.0858 11.226 13.0214C9.75021 12.4381 8.22042 11.8358 6.8 11.0133C6.64255 10.9242 6.48696 10.8318 6.33333 10.7362C6.61625 10.2404 6.94583 9.76644 7.31042 9.33332C7.83952 8.70091 8.45459 8.14572 9.13771 7.68395C9.87115 7.19357 10.6641 6.79858 11.4973 6.50853C13.2735 5.87561 15.4012 5.56499 17.9985 5.56207C20.5987 5.56499 22.725 5.87561 24.5013 6.50999C25.3351 6.79904 26.1285 7.19356 26.8623 7.68395C27.5492 8.14915 28.1631 8.70332 28.6896 9.33186C29.0542 9.76645 29.3823 10.2404 29.6667 10.7362C29.5165 10.8296 29.3575 10.9244 29.2 11.0162C27.7767 11.8387 26.2498 12.441 24.771 13.0229L24.2679 13.2212C23.1669 13.6502 22.135 14.2389 21.2054 14.9683C20.0193 15.9022 19.0387 17.0709 18.3252 18.4012C18.1546 18.7119 18.0525 18.7775 17.9985 18.7775ZM17.9985 29.0923C15.7469 29.0894 13.9181 28.9042 12.4131 28.5279C10.9358 28.1604 9.70792 27.5946 8.65646 26.7954C7.85046 26.1765 7.16278 25.4171 6.62646 24.5539C6.12402 23.7486 5.72703 22.8821 5.44521 21.9756C5.0057 20.5669 4.77622 19.1011 4.76417 17.6254C4.76417 16.6425 4.83271 15.7106 4.96104 14.8531C6.57396 15.7223 8.10083 16.1583 9.45271 16.5448L9.76625 16.6323C11.6475 17.1733 13.1408 17.8821 14.3381 18.8023C15.0308 19.3389 15.636 19.9587 16.1319 20.6456C16.67 21.3864 17.0987 22.2323 17.4108 23.1612C17.5508 23.5827 17.7025 23.8437 17.9985 23.8437C18.3004 23.8437 18.4477 23.5812 18.5892 23.1612C19.1458 21.4297 20.2178 19.9095 21.6619 18.8037C22.8577 17.8821 24.3525 17.1733 26.2338 16.6323L26.5487 16.5448C27.8992 16.1583 29.426 15.7223 31.0375 14.8531C31.1688 15.7121 31.2358 16.6425 31.2358 17.6239C31.2358 18.2919 31.1688 20.0506 30.5577 21.9756C30.2761 22.8819 29.8796 23.7484 29.3779 24.5539C28.8399 25.4177 28.1502 26.177 27.3421 26.7954C26.2877 27.5946 25.0598 28.1604 23.5883 28.5279C22.079 28.9042 20.2517 29.0894 17.9985 29.0923ZM32.1327 7.86478C29.3488 4.8752 24.8556 3.50436 17.9985 3.49707C11.1444 3.50436 6.65125 4.87374 3.86729 7.86332C1.79792 10.0814 0.5 13.1512 0.5 17.3162C0.5 19.6189 1.06875 25.4829 5.6975 28.5104C8.46833 30.3216 12.0471 31.4942 17.9985 31.5029C23.9529 31.4942 27.5302 30.3216 30.3025 28.5104C34.9298 25.4829 35.5 19.6175 35.5 17.3162C35.5 13.1629 34.1919 10.0712 32.1313 7.86186L32.1327 7.86478Z" fill="black"/>
</g>
<defs>
<clipPath id="clip0_214_2085">
<rect width="35" height="35" fill="white" transform="translate(0.5)"/>
</clipPath>
</defs>
</svg>
