<svg width="36" height="35" viewBox="0 0 36 35" fill="none" xmlns="http://www.w3.org/2000/svg">
<g clip-path="url(#clip0_214_2089)">
<path fill-rule="evenodd" clip-rule="evenodd" d="M17.9952 33.7494C8.92185 33.7456 1.56836 26.4696 1.56836 17.4983C1.56836 8.52276 8.92603 1.24698 17.9952 1.25098C27.077 1.25098 34.4305 8.52694 34.4305 17.4983C34.4305 26.4736 27.0728 33.7494 17.9952 33.7494ZM4.52207 25.293L4.81622 25.0642C3.96644 23.5077 3.63979 22.47 3.26792 21.3181C3.23523 21.2322 3.2149 21.1748 3.17804 21.1258C3.15352 21.191 3.16587 21.2486 3.16987 21.3219C3.40682 22.5802 3.97879 24.1656 4.52207 25.293ZM18.224 2.86465L20.4587 15.8601L18.122 17.2286L18.0444 2.86883C18.0444 2.69724 17.9301 2.69724 17.9055 2.86883L16.5858 16.4893L15.6055 15.9215L17.7053 2.86901C9.56736 2.91785 3.14118 9.45025 3.14118 17.5228C3.14118 20.0719 3.94193 22.752 5.09385 24.8394L15.348 16.3135L16.3324 16.8771L4.82022 25.1499C4.5424 25.346 4.62411 25.4401 4.93043 25.2727L17.7868 17.8455V20.5174L5.37148 25.2561C7.96966 29.5009 12.5779 32.2053 17.9542 32.2053C23.3183 32.2053 28.0041 29.4969 30.6023 25.2603L18.2075 20.5255V17.8536L30.5738 24.9865C30.8554 25.1417 30.9373 25.056 30.6717 24.8681L19.6621 16.8815L20.6466 16.3177L30.8926 24.8518C32.0693 22.752 32.8453 20.068 32.8453 17.4983C32.8453 9.52779 26.219 3.08127 18.224 2.86465ZM33.6421 14.5567C33.6704 14.6345 33.6949 14.6998 33.7318 14.7447C33.7563 14.6793 33.7359 14.6221 33.7318 14.5486C32.3796 7.16239 25.9739 1.64318 18.0279 1.64318C9.1343 1.64318 1.94005 8.85378 1.94005 17.7432C1.94005 19.843 2.47534 21.845 3.20255 23.6791C3.53756 24.5246 4.60777 26.4531 4.86924 26.833C4.92644 26.9145 4.95095 26.9553 5.01632 27.0045C5.01232 26.9268 5.00833 26.89 4.96729 26.7961C4.92226 26.7184 4.01129 24.9821 3.48436 23.6911C3.03495 22.5801 2.47534 20.3661 2.47534 17.8002C2.47534 9.17626 9.47348 2.17811 18.0973 2.17811C22.6077 2.1821 26.8482 4.38408 29.4462 7.23575C31.4196 9.40123 32.4409 10.8557 33.6421 14.5567ZM5.02849 25.3827L4.67314 25.5136C6.98134 29.9257 11.8224 33.1328 17.9952 33.1328C26.7541 33.1369 33.7563 26.0487 33.7563 17.4983C33.7563 15.4065 33.1516 14.1239 32.8126 13.1965C32.5637 12.502 32.0282 11.4356 31.7913 10.9986C31.7422 10.9127 31.7097 10.876 31.6444 10.823C31.6482 10.9005 31.6525 10.9455 31.7014 11.0314C31.8855 11.3949 32.2937 12.3101 32.5837 13.2292C32.9759 14.4507 33.221 15.8192 33.221 17.4985C33.221 20.166 32.3837 22.8951 31.1499 25.0682C31.2195 25.248 31.1537 25.338 30.9457 25.3952C28.2532 29.7258 23.4531 32.5608 17.9911 32.5568C12.8599 32.5568 8.75825 29.8072 7.46325 28.3816C6.40938 27.2212 5.62914 26.3594 5.02849 25.3827ZM17.1823 16.8364L17.8605 17.2326L17.9464 6.68847C17.9464 6.47603 17.8812 6.46786 17.8647 6.6803L17.1823 16.8364ZM18.3669 17.633L27.4893 22.9725C27.6528 23.0665 27.6854 23.0093 27.5306 22.9073L19.0616 17.2326L18.3669 17.633ZM16.978 17.2653L14.6862 19.1406C14.5596 19.2467 14.6168 19.2957 14.7679 19.2102L17.6275 17.625L16.978 17.2653Z" fill="black"/>
</g>
<defs>
<clipPath id="clip0_214_2089">
<rect width="35" height="35" fill="white" transform="translate(0.5)"/>
</clipPath>
</defs>
</svg>
