<svg width="86" height="31" viewBox="0 0 86 31" fill="none" xmlns="http://www.w3.org/2000/svg">
<path fill-rule="evenodd" clip-rule="evenodd" d="M20.6341 5C14.9163 5.19077 10.4062 9.94095 10.5015 15.6725C10.5968 21.4032 15.2619 26 20.9842 26C26.7057 26 31.3709 21.404 31.4661 15.6725C31.5614 9.94095 27.0521 5.19077 21.3328 5H20.6341ZM35.3123 5C29.593 5.19077 25.0837 9.94095 25.1789 15.6725C25.2742 21.4032 29.9393 26 35.6616 26C41.3832 26 46.0483 21.404 46.1436 15.6725C46.2389 9.94095 41.7296 5.19077 36.0103 5H35.3123ZM49.989 5C44.2704 5.19077 39.7611 9.94095 39.8556 15.6725C39.9517 21.4032 44.6168 26 50.3391 26C56.0607 26 60.7258 21.404 60.8211 15.6725C60.9171 9.94095 56.407 5.19077 50.6877 5H49.989ZM64.6672 5C58.9479 5.19077 54.4386 9.94095 54.5339 15.6725C54.6291 21.4032 59.2943 26 65.0166 26C70.7381 26 75.4032 21.404 75.4985 15.6725C75.5938 9.94095 71.0845 5.19077 65.3652 5H64.6672Z" stroke="black" stroke-width="3.18578"/>
</svg>
