<svg width="392" height="521" viewBox="0 0 392 521" fill="none" xmlns="http://www.w3.org/2000/svg">
<g style="mix-blend-mode:soft-light">
<path d="M-254.022 120.407C-212.236 58.7079 -141.047 23.7735 -74.2841 8.75068C-20.238 -3.41066 59.7435 -9.16847 95.4495 40.6564C114.6 66.3895 113.51 101.128 91.5448 127.211C35.8759 196.485 -79.3456 243.552 -92.4177 338.846C-102.731 406.815 -55.6878 467.441 12.0789 476.671C27.0469 478.867 43.4194 477.408 58.2556 474.07C95.3461 465.724 128.862 441.492 140.55 404.369C134.085 410.274 124.785 413.479 115.248 415.625C74.9782 424.687 36.6203 397.712 30.7438 356.753C11.1415 338.91 4.94552 311.374 11.3598 285.452C24.5584 240.2 67.0287 216.179 109.418 206.641C218.57 182.08 343.419 261.916 376.788 365.676C417.625 487.783 372.441 603.655 277.537 671.742C238.378 700.582 161.068 738.006 77.9327 754.488C-11.561 772.4 -180.874 767.104 -202.849 649.654C-211.083 608.112 -184.879 581.075 -152.027 573.683C-94.8018 560.806 -42.6168 604.698 -17.4016 652.432C7.81358 700.167 60.2675 710.618 113.73 700.813C168.253 690.77 222.249 658.592 251.977 627.423C343.149 527.907 334.976 417.366 300.705 329.387C269.877 251.76 173.215 183.384 72.1143 223.936C37.99 240.516 21.085 264.348 15.0155 286.855C9.18443 310.421 15.4869 333.481 29.314 350.398C28.5231 317.196 50.595 286.638 84.5063 279.007C122.656 270.423 160.3 294.22 168.879 332.346C174.598 357.763 165.826 383.104 146.193 399.761C136.757 441.941 98.4187 469.483 58.1491 478.544C42.2532 482.121 26.9404 483.341 11.9724 481.146C-59.2118 471.572 -106.732 408.828 -96.8949 338.741C-83.9546 237.913 30.922 194.261 78.3261 117.946C120.457 52.8322 16.0764 54.0661 -18.8946 61.9352C-100.97 78.1783 -145.854 126.109 -176.196 194.134C-185.338 212.881 -200.839 233.059 -220.974 237.59C-231.571 239.975 -243.36 237.064 -254.459 227.322C-276.657 207.838 -283.832 166.058 -254.022 120.407Z" fill="white"/>
</g>
</svg>
