<svg width="100" height="100" viewBox="0 0 100 100" fill="none" xmlns="http://www.w3.org/2000/svg">
<path d="M79.1503 22.5939C78.3536 22.5939 77.593 22.7546 76.8934 23.0455V22.033C76.8934 18.464 74.1292 15.5603 70.7311 15.5603C69.9565 15.5604 69.1895 15.7136 68.4743 16.0111V14.1359C68.4745 10.566 65.7103 7.6623 62.3124 7.6623C58.914 7.6623 56.1499 10.566 56.1499 14.1359V14.6508C55.4352 14.3527 54.6685 14.1992 53.8941 14.1992C50.4958 14.1992 47.731 17.1029 47.731 20.6726V33.9257C47.0161 33.6281 46.2495 33.4748 45.4751 33.4747C42.0767 33.4747 39.3121 36.3784 39.3121 39.9474V40.4624C38.5972 40.1646 37.8305 40.0111 37.056 40.0109C33.6586 40.0109 30.8937 42.9153 30.8937 46.4845V69.6329L25.7668 65.5952C22.6051 63.105 19.5687 63.8801 17.9291 65.2993C15.9471 67.0151 15.4596 69.9067 16.7687 72.1749L25.6508 87.5578C26.7982 89.5445 28.7125 90.9477 30.8937 91.4787V95.5527C30.8937 96.6315 31.7681 97.5059 32.8468 97.5059H57.8636C58.9423 97.5059 59.8167 96.6315 59.8167 95.5527C59.8167 94.474 58.9423 93.5996 57.8636 93.5996H34.8V89.7598C34.8 88.6809 33.9255 87.8067 32.8468 87.8067C31.2791 87.8067 29.8179 86.9629 29.0338 85.6047L20.1523 70.2217C19.7076 69.4518 20.0135 68.6614 20.4857 68.2526C21.1953 67.6383 22.239 67.7887 23.3498 68.6637L31.6384 75.1915C31.9267 75.418 32.2727 75.559 32.6372 75.5983C33.0016 75.6377 33.3698 75.5739 33.6998 75.4141C34.0296 75.2538 34.3077 75.004 34.5022 74.6931C34.6968 74.3823 34.7999 74.023 34.8 73.6563V46.4845C34.8 45.0929 35.8337 43.9171 37.0568 43.9171C38.2796 43.9171 39.3126 45.0929 39.3126 46.4845V66.7571C39.3126 67.836 40.1871 68.7102 41.2658 68.7102C42.3447 68.7102 43.2189 67.836 43.2189 66.7571V39.9476C43.2189 38.556 44.2521 37.3812 45.4749 37.3812C46.6978 37.3812 47.7318 38.556 47.7318 39.9476V66.7571C47.7318 67.836 48.606 68.7102 49.6849 68.7102C50.763 68.7102 51.638 67.836 51.638 66.7571V47.8454C51.638 46.4538 52.671 45.2782 53.8939 45.2782C55.1167 45.2782 56.1501 46.454 56.1501 47.8454V66.7571C56.1501 67.836 57.0243 68.7102 58.1032 68.7102C59.1821 68.7102 60.0564 67.836 60.0564 66.7571V54.879C60.0564 53.4874 61.0899 52.3126 62.313 52.3126C63.536 52.3126 64.569 53.4874 64.569 54.879L64.5683 78.6102C64.5683 82.2211 62.445 85.6903 58.7425 88.1285C58.4724 88.3064 58.2507 88.5486 58.0973 88.8333C57.9439 89.118 57.8636 89.4364 57.8636 89.7598V93.5996H57.6614C56.5825 93.5996 55.7083 94.474 55.7083 95.5527C55.7083 96.6315 56.5825 97.5059 57.6614 97.5059H59.8167C60.8948 97.5059 61.7698 96.6315 61.7698 95.5527V90.7791C66.0452 87.6342 68.4745 83.2496 68.4745 78.6102V71.6942H76.654C77.7321 71.6942 78.6071 70.8198 78.6071 69.7411V64.9673C82.8825 61.8218 85.3118 57.438 85.3118 52.7985L85.3124 29.0665C85.3124 25.4974 82.5475 22.5939 79.1503 22.5939ZM81.4053 52.7985C81.4053 56.4087 79.2821 59.8786 75.5796 62.3169C75.3094 62.4947 75.0877 62.7369 74.9343 63.0216C74.7809 63.3063 74.7006 63.6247 74.7007 63.9481V67.7879H68.4743L68.4751 54.879C68.4751 51.3101 65.7103 48.4063 62.312 48.4063C61.5163 48.4063 60.7558 48.5673 60.0562 48.8571V47.8454C60.0562 44.2757 57.2919 41.372 53.8939 41.372C53.0974 41.372 52.3366 41.5329 51.637 41.8236V20.6726C51.637 19.281 52.6708 18.1054 53.8939 18.1054C55.1169 18.1054 56.1497 19.2812 56.1497 20.6726V36.5288C56.1497 37.6075 57.0241 38.482 58.1028 38.482C59.1816 38.482 60.056 37.6075 60.056 36.5288V14.1359C60.056 12.7443 61.0892 11.5685 62.312 11.5685C63.5358 11.5685 64.5688 12.7443 64.5688 14.1359V36.5288C64.5688 37.6075 65.4433 38.482 66.522 38.482C67.6001 38.482 68.4751 37.6075 68.4751 36.5288V22.033C68.4751 20.6414 69.5081 19.4666 70.7309 19.4666C71.9538 19.4666 72.9878 20.6414 72.9878 22.033L72.9872 36.5288C72.9872 37.6075 73.8614 38.482 74.9403 38.482C76.019 38.482 76.8934 37.6075 76.8934 36.5288L76.894 29.0665C76.894 27.6749 77.9272 26.5001 79.1501 26.5001C80.3729 26.5001 81.4061 27.6748 81.4061 29.0665L81.4053 52.7985ZM26.7523 37.381C27.831 37.381 28.7054 36.5068 28.7054 35.4279C28.7054 34.3492 27.831 33.4747 26.7523 33.4747H16.9531C15.8744 33.4747 15 34.3492 15 35.4279C15 36.5068 15.8744 37.381 16.9531 37.381H26.7523ZM28.9015 22.3498C29.283 22.731 29.7826 22.9211 30.2824 22.9211C30.7822 22.9211 31.2826 22.731 31.6632 22.3496C32.4263 21.5867 32.4263 20.35 31.6632 19.5871L24.7351 12.658C23.9721 11.8959 22.7353 11.8959 21.9724 12.658C21.2096 13.4209 21.2096 14.6576 21.9724 15.4207L28.9015 22.3498ZM41.2656 14.4006C42.3445 14.4006 43.2187 13.5262 43.2187 12.4474V4.95312C43.2187 3.87422 42.3445 3 41.2656 3C40.1869 3 39.3125 3.87422 39.3125 4.95312V12.4474C39.3125 13.5262 40.1869 14.4006 41.2656 14.4006Z" fill="black"/>
</svg>
