<svg width="28" height="28" viewBox="0 0 28 28" fill="none" xmlns="http://www.w3.org/2000/svg">
<path fill-rule="evenodd" clip-rule="evenodd" d="M11.8615 2.625H16.1385C17.5758 2.625 18.7087 2.625 19.6198 2.69967C20.5485 2.7755 21.3255 2.933 22.0313 3.29233C23.1838 3.87983 24.1207 4.81711 24.7077 5.96983C25.067 6.6745 25.2245 7.4515 25.3003 8.38017C25.375 9.29133 25.375 10.4242 25.375 11.8615V16.1385C25.375 17.5758 25.375 18.7087 25.3003 19.6198C25.2572 20.1437 25.1883 20.6185 25.0728 21.0607L25.1452 21.154L25.0192 21.2508C24.9387 21.5194 24.8345 21.7802 24.7077 22.0302C24.1203 23.183 23.183 24.1203 22.0302 24.7077C21.3255 25.067 20.5485 25.2245 19.6198 25.3003C18.7087 25.375 17.5758 25.375 16.1385 25.375H11.8615C10.4242 25.375 9.29133 25.375 8.38017 25.3003C7.4515 25.2245 6.6745 25.067 5.96983 24.7077C4.81693 24.1204 3.87963 23.1831 3.29233 22.0302C2.933 21.3255 2.7755 20.5485 2.69967 19.6198C2.625 18.7087 2.625 17.5758 2.625 16.1385V11.8615C2.625 10.4242 2.625 9.29133 2.69967 8.38017C2.7755 7.4515 2.933 6.6745 3.29233 5.96983C3.87963 4.81693 4.81693 3.87963 5.96983 3.29233C6.6745 2.933 7.4515 2.7755 8.38017 2.69967C9.29133 2.625 10.4242 2.625 11.8615 2.625ZM23.625 16.1C23.625 17.3927 23.625 18.3633 23.5795 19.1427L23.2062 18.662L23.1828 18.6317C22.7488 18.0763 22.3907 17.6155 22.0687 17.2667C21.735 16.9073 21.3803 16.6017 20.9347 16.4127C20.2566 16.1278 19.5012 16.0845 18.795 16.2902C18.3295 16.4243 17.9433 16.6892 17.57 17.0088C17.2608 17.2737 16.9143 17.619 16.5107 18.0297L14.3418 15.421L14.3185 15.393C13.8845 14.8715 13.5252 14.4387 13.202 14.1108C12.8683 13.7725 12.516 13.4843 12.0785 13.3105C11.4115 13.0456 10.675 13.0119 9.98667 13.2148C9.53517 13.3478 9.15833 13.601 8.79433 13.909C8.44433 14.2042 8.04533 14.6032 7.56583 15.0827L7.54017 15.1083L4.38783 18.2607C4.37641 17.5405 4.37213 16.8202 4.375 16.1V11.9C4.375 10.416 4.375 9.35433 4.44383 8.5225C4.51033 7.70117 4.63867 7.18083 4.85217 6.76433C5.27143 5.94057 5.94083 5.27077 6.76433 4.851C7.18083 4.63867 7.70117 4.51033 8.5225 4.44267C9.35433 4.37617 10.416 4.375 11.9 4.375H16.1C17.584 4.375 18.6457 4.375 19.4763 4.44383C20.2977 4.51033 20.818 4.63867 21.2357 4.85217C22.0594 5.27143 22.7292 5.94083 23.149 6.76433C23.3613 7.18083 23.4897 7.70117 23.5573 8.5225C23.6238 9.35433 23.625 10.416 23.625 11.9V16.1ZM4.85217 21.2357C4.73946 21.0102 4.65407 20.7721 4.59783 20.5263L4.70283 20.4213L8.77683 16.3462C9.29017 15.8328 9.6355 15.4887 9.92367 15.246C10.2037 15.0092 10.3623 14.9287 10.4813 14.8937C10.7942 14.8013 11.129 14.8165 11.4322 14.9368C11.5477 14.9835 11.6982 15.078 11.956 15.3393C12.2197 15.6077 12.5323 15.9833 12.9967 16.541L15.7827 19.8928L15.792 19.9045L18.9607 23.5888C18.214 23.6238 17.2935 23.625 16.1 23.625H11.9C10.416 23.625 9.35433 23.625 8.5225 23.5562C7.70117 23.4897 7.18083 23.3613 6.76433 23.1478C5.94057 22.7286 5.27194 22.0592 4.85217 21.2357ZM21.2357 23.149C21.1563 23.1887 21.0735 23.226 20.986 23.261L20.5578 22.7628L17.6435 19.3725C18.109 18.9 18.4345 18.5722 18.7087 18.3377C18.9992 18.0892 19.1637 18.0052 19.2838 17.9702C19.6047 17.8768 19.9488 17.8967 20.2568 18.0262C20.3723 18.0752 20.5252 18.1778 20.7853 18.4567C21.0502 18.7425 21.3628 19.1438 21.8237 19.7365L23.0848 21.3558C22.6622 22.1251 22.0179 22.7507 21.2357 23.149ZM17.2083 10.5C17.2083 10.1132 17.362 9.74229 17.6355 9.4688C17.909 9.19531 18.2799 9.04167 18.6667 9.04167C19.0534 9.04167 19.4244 9.19531 19.6979 9.4688C19.9714 9.74229 20.125 10.1132 20.125 10.5C20.125 10.8868 19.9714 11.2577 19.6979 11.5312C19.4244 11.8047 19.0534 11.9583 18.6667 11.9583C18.2799 11.9583 17.909 11.8047 17.6355 11.5312C17.362 11.2577 17.2083 10.8868 17.2083 10.5ZM18.6667 7.29167C18.2453 7.29167 17.8281 7.37465 17.4389 7.53589C17.0496 7.69712 16.696 7.93344 16.398 8.23137C16.1001 8.52929 15.8638 8.88297 15.7026 9.27222C15.5413 9.66148 15.4583 10.0787 15.4583 10.5C15.4583 10.9213 15.5413 11.3385 15.7026 11.7278C15.8638 12.117 16.1001 12.4707 16.398 12.7686C16.696 13.0666 17.0496 13.3029 17.4389 13.4641C17.8281 13.6253 18.2453 13.7083 18.6667 13.7083C19.5176 13.7083 20.3336 13.3703 20.9353 12.7686C21.537 12.167 21.875 11.3509 21.875 10.5C21.875 9.6491 21.537 8.83304 20.9353 8.23137C20.3336 7.62969 19.5176 7.29167 18.6667 7.29167Z" fill="#58529B"/>
</svg>
