<svg width="58" height="28" viewBox="0 0 58 28" fill="none" xmlns="http://www.w3.org/2000/svg">
<path d="M17.4369 15.8513H2.37762C1.85224 15.8513 1.66818 15.6167 1.87252 15.2174C3.01283 13.0011 6.76283 5.71192 6.85983 5.51839C6.97386 5.29083 7.25014 5.0126 7.75983 5.0126H17.8653C18.9138 5.0126 19.0923 4.56477 19.0923 3.75588V1.34677C19.0923 1.02273 19.3123 0.807327 19.699 0.807327H38.2076C38.705 0.807327 38.925 0.967943 38.925 1.29199V3.0717C38.925 3.77289 38.7892 4.90508 40.3887 4.90508H55.6828C56.3696 4.90508 56.548 5.35759 56.1844 6.0743C54.831 8.74256 51.5008 15.0692 51.3971 15.2838C51.266 15.5566 50.8587 15.7967 50.208 15.7967H40.169C39.3406 15.7967 38.5135 16.336 38.5135 17.1454V19.2013C38.5135 19.5757 38.2835 19.8408 37.8741 19.8408H19.9148C19.3592 19.8408 19.1472 19.5334 19.1472 19.1234V17.2528C19.1472 16.6062 18.7058 15.8513 17.4369 15.8513Z" fill="#E9CF98"/>
<path d="M37.5201 15.369L39.6295 17.5174C39.6295 17.5174 39.7801 17.0462 40.3522 16.9296L37.9899 14.7761C37.9899 14.7761 37.6104 14.986 37.5201 15.369ZM17.4863 16.8995C17.4863 16.8995 18.3301 16.9294 18.3301 18.0186L20.2881 15.1917L19.7459 14.809L17.4863 16.8995ZM38.2987 6.19536L40.5228 4.07664C40.5228 4.07664 40.2213 4.04055 39.919 3.56131L37.7136 5.7537L38.2987 6.19536ZM37.3369 1.8663L39.3917 0.153713C39.3917 0.153713 39.618 0.282167 39.7122 0.485233L37.5632 2.4194L37.3369 1.8663ZM18.3829 0.773748C18.3829 0.419041 18.72 0.000574112 19.272 0.000574112L20.8309 1.88407C20.8309 1.88407 20.3641 1.88406 20.291 2.05235C20.2168 2.22064 20.1433 2.58076 20.1433 2.58076L18.3829 0.773748ZM17.71 4.1662C17.71 4.1662 18.3762 4.06299 18.3762 3.36704L19.9215 5.14394L18.9366 5.83972L17.71 4.1662Z" fill="white"/>
<path d="M29.1354 -0.00039804L29.0645 0.809806H37.9694C38.2617 0.809806 38.4259 0.881606 38.5361 1.0957L39.5222 0.238941C39.5222 0.238941 39.2742 -0.00039804 38.8231 -0.00039804H29.1354Z" fill="url(#paint0_linear_214_1965)"/>
<path d="M19.2703 -0.000116169C19.0329 -0.000116169 18.7587 0.114693 18.6133 0.292515L19.2523 0.970703C19.2523 0.970703 19.3799 0.810088 19.8913 0.810088H29.0641L29.1351 -0.000116169H19.2703Z" fill="url(#paint1_linear_214_1965)"/>
<path d="M18.3821 0.773859V3.24317C18.3821 3.63079 18.3027 3.72578 18.3027 3.72578L19.0078 4.45801C19.0078 4.45801 19.1086 4.20521 19.1086 4.04982V1.60313C19.1086 1.44868 19.1228 1.22356 19.1228 1.22356L18.4608 0.422328C18.4608 0.422328 18.3821 0.562379 18.3821 0.773859Z" fill="url(#paint2_linear_214_1965)"/>
<path d="M38.9391 1.14814C38.9391 1.14814 38.9199 1.43534 38.9199 1.58979C38.9199 1.74424 38.9391 3.83005 38.9391 3.98487C38.9391 4.13932 39.1692 4.42578 39.1692 4.42578L40.0128 3.69617C40.0128 3.69617 39.8126 3.63053 39.8126 3.24292V0.773603C39.8126 0.562124 39.6357 0.422072 39.6357 0.422072L38.9391 1.14814Z" fill="url(#paint3_linear_214_1965)"/>
<path d="M17.3877 4.21731C17.1233 4.21731 8.03894 4.22759 7.55489 4.22759C6.85252 4.22759 6.43945 4.53032 6.43945 4.53032L7.01726 5.29004C7.01726 5.29004 7.24838 5.01162 7.75846 5.01162H18.0092C18.3662 5.01162 18.6344 4.8538 18.6344 4.8538L17.9646 4.06754C17.9646 4.06754 17.6357 4.21731 17.3877 4.21731Z" fill="url(#paint4_linear_214_1965)"/>
<path d="M1.56952 15.2835L0.52201 16.0015C0.52201 16.0015 0.438972 16.2983 0.595477 16.5327C0.752365 16.7665 0.991907 16.8027 0.991907 16.8027L2.3553 15.851C2.3553 15.851 1.58368 15.8155 1.90473 15.2569C2.22577 14.6982 2.20836 14.4879 2.20836 14.4879C2.20836 14.4879 1.83374 14.5479 1.56952 15.2835Z" fill="url(#paint5_linear_214_1965)"/>
<path d="M4.44574 8.25321C3.6104 9.93345 0.80479 15.3311 0.706639 15.5239C0.608297 15.7159 0.509766 16.0518 0.509766 16.0518L1.59095 15.2832L6.65709 5.41946C6.65709 5.41946 5.28126 6.57203 4.44574 8.25321Z" fill="url(#paint6_linear_214_1965)"/>
<path d="M2.37593 15.8741L0.986328 16.8511C0.986328 16.8511 16.8148 16.8893 17.2147 16.8893C17.614 16.8893 17.7817 16.9639 17.7817 16.9639L18.4946 16.1722C18.4946 16.1722 17.8137 15.8741 17.4354 15.8741H2.37593Z" fill="url(#paint7_linear_214_1965)"/>
<path d="M18.1875 17.3966C18.1875 17.3966 18.3333 17.6828 18.3333 17.9111V19.9566C18.3333 20.2492 18.45 20.5029 18.45 20.5029L19.1455 19.7023V17.252C19.1455 16.861 18.9249 16.5321 18.9249 16.5321L18.1875 17.3966Z" fill="url(#paint8_linear_214_1965)"/>
<path d="M38.5098 16.9993V19.4498L39.6013 20.3828C39.6013 20.3828 39.6283 20.1341 39.6283 19.8421V17.7957C39.6283 17.5676 39.696 17.424 39.696 17.424L38.7417 16.4915C38.7417 16.4915 38.5098 16.6076 38.5098 16.9993Z" fill="url(#paint9_linear_214_1965)"/>
<path d="M37.6939 19.8581H29.1133V20.9961H38.6083C38.931 20.9961 39.3074 20.7863 39.3789 20.733L38.3029 19.7358C38.3029 19.7358 38.2319 19.8581 37.6939 19.8581Z" fill="url(#paint10_linear_214_1965)"/>
<path d="M18.7793 20.8547C18.7793 20.8547 19.0003 21.0078 19.6179 21.0078C20.2349 21.0078 29.1146 20.9968 29.1146 20.9968V19.8588H19.9496C19.7838 19.8588 19.6728 19.8287 19.6728 19.8287L18.7793 20.8547Z" fill="url(#paint11_linear_214_1965)"/>
<path d="M21.2433 1.8603C20.7463 1.8603 20.25 2.1303 20.25 2.66975V5.31221C20.25 5.85091 19.9186 6.06688 19.5325 6.06688H8.5446C8.09823 6.06688 7.75289 6.24881 7.55448 6.61586C7.39205 6.91747 4.64804 12.2923 3.76124 14.0294C3.56895 14.4062 3.73694 14.6352 4.23037 14.6352H19.5882C20.25 14.6352 20.3606 15.2287 20.3606 15.8215V17.8749C20.3606 18.2532 20.7465 18.6846 21.188 18.6846H28.914V1.8603H21.2433Z" fill="url(#paint12_linear_214_1965)"/>
<path d="M39.2344 16.0995L40.1191 16.9883C40.1191 16.9883 40.3399 16.8688 41.3723 16.8688H50.8073C51.0034 16.8688 51.2738 16.7725 51.2738 16.7725L46.2863 15.7882C46.2863 15.7882 40.5121 15.7921 40.2419 15.7882C40.2318 15.7878 40.2216 15.7877 40.2115 15.7877C39.626 15.7877 39.2344 16.0995 39.2344 16.0995Z" fill="url(#paint13_linear_214_1965)"/>
<path d="M39.5664 4.74719C39.5664 4.74719 39.9977 4.88799 40.3497 4.88799H55.2056C55.6577 4.88799 55.9216 4.9209 55.9216 4.9209L57.1222 4.22158C57.1222 4.22158 56.7368 4.11406 56.3515 4.11406H40.9231C40.5376 4.11406 40.3769 4.02599 40.3769 4.02599L39.5664 4.74719Z" fill="url(#paint14_linear_214_1965)"/>
<path d="M56.3593 5.29911C56.3593 5.29911 56.4273 5.66747 56.2989 5.91784C56.1709 6.16802 51.6806 14.7987 51.4778 15.1951C51.2746 15.5913 50.8164 15.7373 50.8164 15.7373L51.3282 16.7373C51.3282 16.7373 51.5094 16.6027 51.6165 16.4667C51.7231 16.3314 57.248 5.34417 57.4189 4.9588C57.5892 4.57305 57.4394 4.43356 57.4394 4.43356L56.3593 5.29911Z" fill="url(#paint15_linear_214_1965)"/>
<path d="M50.3405 15.8116C49.7508 15.8116 46.4336 15.8362 46.4336 15.8362L51.1513 16.7725C51.1513 16.7725 51.4464 16.6534 51.5939 16.4121C51.7416 16.1721 51.5933 16.1003 51.4217 16.2442C51.25 16.3891 50.9552 16.1491 51.1022 15.9808C51.2501 15.8117 51.397 15.2835 51.397 15.2835C51.397 15.2835 50.9305 15.8116 50.3405 15.8116Z" fill="url(#paint16_linear_214_1965)"/>
<path d="M6.45317 15.0691C3.36363 15.2706 2.37695 15.8415 2.37695 15.8415H17.1305C18.8083 15.8415 18.6168 16.0657 18.6074 16.0758L19.8085 14.8344C19.8085 14.8344 16.8904 14.8344 15.0365 14.8011C14.8008 14.797 14.5363 14.795 14.2476 14.795C12.2661 14.795 9.15011 14.8937 6.45317 15.0691Z" fill="url(#paint17_linear_214_1965)"/>
<path d="M41.2523 14.8007C39.9398 14.834 37.873 14.834 37.873 14.834L39.2504 16.1016C39.2504 16.1016 39.3922 15.8048 40.6075 15.8048C41.8236 15.8048 50.5867 15.7755 50.5867 15.7755C50.5867 15.7755 50.7346 15.3073 48.1542 15.1274C46.1215 14.9855 43.0542 14.7973 41.5714 14.7973C41.465 14.7972 41.3586 14.7984 41.2523 14.8007Z" fill="url(#paint18_linear_214_1965)"/>
<path d="M38.1309 6.19966C38.1309 6.19966 40.1981 6.19966 41.511 6.23313C42.8239 6.2666 50.7818 5.91395 52.9705 5.71238C55.1591 5.51118 55.8573 4.94051 55.8573 4.94051C55.8573 4.94051 41.9432 5.01306 40.7275 5.01306C39.5126 5.01306 39.6821 4.77765 39.6821 4.77765L38.1309 6.19966Z" fill="url(#paint19_linear_214_1965)"/>
<path d="M19 16.5684C19 16.5684 19.1475 17.0363 19.1475 17.3966V19.0174C19.1475 19.4495 19.2952 19.666 19.2952 19.666L20.5482 18.4409C20.5482 18.4409 20.3611 18.009 20.3611 17.6847V15.8573C20.3611 15.4348 20.2532 15.0911 20.2532 15.0911L19 16.5684Z" fill="url(#paint20_linear_214_1965)"/>
<path d="M37.3865 15.847C37.3865 16.2696 37.3574 17.4005 37.3574 17.7251C37.3574 18.0484 37.2812 18.4409 37.2812 18.4409L38.5341 19.666C38.5341 19.666 38.682 19.4493 38.682 19.0174V17.3966C38.682 17.0363 38.8293 16.5684 38.8293 16.5684L37.4875 15.057C37.4224 15.3156 37.3885 15.5808 37.3865 15.847Z" fill="url(#paint21_linear_214_1965)"/>
<path d="M19.6992 19.81L28.8395 19.8818L28.8764 19.8811V18.6848L20.9153 18.6567L19.6992 19.81Z" fill="url(#paint22_linear_214_1965)"/>
<path d="M28.9137 18.6845H28.877V19.8809L38.2753 19.7743L36.7644 18.6565L28.9137 18.6845Z" fill="url(#paint23_linear_214_1965)"/>
<path d="M19.823 0.803643C19.5649 0.803643 19.3262 0.939579 19.3262 0.939579L20.5377 2.10449C20.5377 2.10449 20.657 1.8515 21.5107 1.8515H28.9136V0.803643H19.823Z" fill="url(#paint24_linear_214_1965)"/>
<path d="M28.9141 0.803863V1.85172H36.3169C37.1706 1.85172 37.3474 2.21484 37.3474 2.21484L38.5585 1.0505C38.5585 1.0505 38.263 0.803863 38.0049 0.803863H28.9141Z" fill="url(#paint25_linear_214_1965)"/>
<path d="M19.0951 1.8212V3.93655C19.0951 4.18748 18.9824 4.48479 18.9824 4.48479L20.1688 5.80078C20.1688 5.80078 20.249 5.6914 20.249 5.14335C20.249 4.59492 20.2968 2.4489 20.2968 2.4489L19.1108 1.14862C19.1108 1.14862 19.0951 1.49248 19.0951 1.8212Z" fill="url(#paint26_linear_214_1965)"/>
<path d="M37.3965 2.47415V5.10427C37.3965 5.65251 37.6588 5.80078 37.6588 5.80078L39.1087 4.37335C39.1087 4.37335 38.9196 4.07473 38.9196 3.82455C38.9196 3.57361 38.9074 2.04427 38.9074 1.71536C38.9074 1.38646 38.9221 1.08224 38.9221 1.08224L37.3965 2.47415Z" fill="url(#paint27_linear_214_1965)"/>
<path d="M18.1152 5.04143H7.94311C7.64827 5.04143 7.16881 5.14951 7.02148 5.29386L7.94311 6.23047C7.94311 6.23047 8.20082 6.05059 8.82761 6.05059H19.4051C19.7003 6.05059 19.9948 5.94195 19.9948 5.94195L18.8158 4.75367C18.8158 4.75367 18.5206 5.04143 18.1152 5.04143Z" fill="url(#paint28_linear_214_1965)"/>
<path d="M49.7969 14.6748C49.7969 14.6748 50.3665 14.4654 50.5446 15.1265C50.5446 15.1265 50.6869 15.3358 51.0784 14.7786C51.4698 14.2221 55.1728 6.77845 55.136 6.673C55.1003 6.56903 54.3527 6.42954 54.3527 6.42954L49.7969 14.6748Z" fill="url(#paint29_linear_214_1965)"/>
<path d="M54.4594 6.5002C54.6379 6.60417 54.8157 6.74365 54.5665 7.26515C54.3176 7.78609 51.4697 13.2137 50.8651 14.2569C50.26 15.3002 50.7932 15.7178 50.7932 15.7178C50.7932 15.7178 51.2566 15.5085 51.3957 15.283C51.5361 15.0568 55.884 6.63876 56.1834 6.0735C56.4827 5.50806 56.2751 5.28181 56.2751 5.28181L54.4594 6.5002Z" fill="url(#paint30_linear_214_1965)"/>
<path d="M28.9141 1.8603V18.6846H36.5262C36.9672 18.6846 37.3537 18.5228 37.3537 18.0365V15.5273C37.3537 15.0421 37.6843 14.6655 38.071 14.6655H49.5542C49.9571 14.6655 50.3191 14.435 50.529 14.0558C51.4673 12.3602 54.0515 7.44308 54.2471 7.04668C54.4858 6.56276 54.3381 6.28247 53.7848 6.28247H38.5673C37.9053 6.28247 37.408 5.79762 37.408 5.20432V2.45397C37.408 2.07645 37.1874 1.86048 36.6911 1.86048L28.9141 1.8603Z" fill="url(#paint31_linear_214_1965)"/>
<path d="M2.25195 15.373L3.72517 14.5C3.72517 14.5 3.55642 14.4282 3.8216 13.9093C4.08716 13.3905 6.57459 8.43388 6.57459 8.43388L6.01956 8.31645L2.25195 15.373Z" fill="url(#paint32_linear_214_1965)"/>
<path d="M2.11893 14.7307C1.75024 15.3792 1.82448 15.6309 1.82448 15.6309L2.70879 15.0546C2.70879 15.0546 6.65222 7.59858 7.05765 6.73378C7.46326 5.86954 6.85886 5.51744 6.85886 5.51744C6.85886 5.51744 2.48762 14.0824 2.11893 14.7307Z" fill="url(#paint33_linear_214_1965)"/>
<path d="M2.71637 15.8713C2.65793 15.9096 2.11895 15.9747 2.0136 15.8713C1.90812 15.7691 1.73192 15.6889 1.87262 15.5741C2.01375 15.459 3.74714 14.452 3.74714 14.452C3.74714 14.452 3.5366 14.5663 5.31775 14.5663H19.5654C19.9405 14.5663 20.2917 14.8179 20.3389 14.9783C20.3858 15.139 20.2918 15.2073 20.1748 15.1849C20.0581 15.1617 19.753 15.0701 19.6827 14.9552C19.6125 14.841 19.7765 14.7494 18.7452 14.7494C17.7141 14.7494 9.84041 14.8643 8.05984 15.0243C6.27868 15.1849 3.93459 15.0701 2.71637 15.8713ZM55.3421 4.96966C55.4004 4.93204 55.9401 4.86714 56.0453 4.96966C56.1506 5.07276 56.3267 5.15288 56.186 5.26761C56.0453 5.38191 54.3113 6.38962 54.3113 6.38962C54.3113 6.38962 54.5215 6.27532 52.7408 6.27532H38.4927C38.1178 6.27532 37.7664 6.0239 37.7198 5.86322C37.6728 5.7024 37.7663 5.63348 37.8829 5.65674C38.0011 5.68 38.3053 5.77161 38.3758 5.88562C38.4458 6.00063 38.2816 6.09153 39.3131 6.09153C40.3446 6.09153 48.2173 5.97752 49.9992 5.81727C51.7796 5.65674 54.124 5.77161 55.3419 4.96966M7.31652 6.29456C7.31652 6.13245 7.40859 5.82646 7.33514 5.73686C7.26125 5.6464 7.48233 5.53842 7.62995 5.62802C7.77743 5.71834 8.09043 5.79013 8.12723 5.8625C8.16417 5.9343 8.1089 6.11407 7.9063 6.18644C7.7034 6.25823 7.51913 6.42049 7.20598 7.08632C6.89255 7.75344 5.1049 11.139 5.1049 11.139C5.1049 11.139 5.36321 10.599 5.25253 10.5804C5.14199 10.5626 4.88426 11.0131 4.88426 11.0131L7.31652 6.29456ZM19.6383 5.97594C19.4858 5.99101 19.4432 5.82775 19.5733 5.8065C19.7041 5.78511 19.8773 5.77491 20.0291 5.19107C20.1814 4.60724 20.0729 2.83591 20.051 2.51786C20.0291 2.19952 19.8774 1.81786 20.0949 1.64828C20.3116 1.47813 20.4637 1.83926 21.0282 1.83926C21.5925 1.83926 22.8736 1.79675 22.8736 1.79675C22.8736 1.79675 21.0717 1.92326 20.7673 1.96619C20.4636 2.00884 20.203 2.24188 20.2461 2.66633C20.29 3.09079 20.1814 5.27651 20.0949 5.5097C20.0077 5.74289 19.8555 5.95469 19.6383 5.97594ZM31.7953 1.80982C31.5561 1.82059 36.373 1.8651 36.6765 1.8651C36.9804 1.8651 37.3278 1.95528 37.3931 2.25193C37.4582 2.54945 37.412 3.52314 37.412 3.52314C37.412 3.52314 37.5617 2.27333 37.779 2.04014C37.996 1.80609 37.931 1.46722 37.6488 1.53011C37.3664 1.59444 35.1311 1.66278 31.7953 1.80982ZM38.2275 14.8172C38.076 14.7952 37.9028 14.775 37.8589 14.9019C37.8155 15.0283 38.0538 15.1131 37.8155 15.2396C37.5778 15.3669 37.4005 15.445 37.4005 15.3389C37.4005 15.2329 37.5233 14.6893 37.9783 14.6893C38.4333 14.6893 49.6603 14.6683 49.8347 14.6683C50.0073 14.6683 50.2241 14.6893 50.3104 14.8591C50.397 15.0286 50.5052 15.4516 50.5706 15.5789C50.6351 15.7059 50.5273 15.7059 50.3318 15.4516C50.137 15.1974 49.6394 15.092 49.2499 15.1131C48.8597 15.1342 38.2275 14.8172 38.2275 14.8172ZM50.6135 15.1767C50.6135 15.1767 50.5055 14.9443 50.4403 14.7952C50.3754 14.6476 50.1806 14.5847 50.1806 14.5847C50.1806 14.5847 50.3969 14.3299 50.6998 13.7802C51.0034 13.2305 52.4326 10.6054 52.584 10.2456C52.584 10.2456 52.2591 11.22 52.8871 10.415C52.8871 10.415 50.8517 14.1815 50.7216 14.4358C50.592 14.6901 50.6133 15.1767 50.6133 15.1767M20.4957 18.139C20.4957 18.139 20.5216 18.4434 20.3408 18.5698C20.1598 18.6963 20.0819 18.9239 20.2373 19.0254C20.3926 19.1265 20.496 19.0759 20.5995 18.9239C20.7031 18.7724 21.0659 18.6456 21.2987 18.6964C21.2989 18.6963 20.4957 18.7966 20.4957 18.139ZM31.6559 18.6812C31.6559 18.6812 36.0257 18.9062 36.2846 18.918L36.7246 18.9377C36.7246 18.9377 36.2609 18.8659 36.398 18.7203L31.6557 18.6812H31.6559ZM36.835 18.6457C36.835 18.6457 36.7058 18.8481 36.9126 18.9487C37.1202 19.0498 37.3276 19.1509 37.4569 18.9993C37.5861 18.8476 37.3534 18.4428 37.379 18.1646C37.379 18.1644 37.4826 18.5952 36.835 18.6457Z" fill="white"/>
<path d="M42.1642 19.0121H41.9222V19.4129H42.1642C42.2875 19.4129 42.324 19.3651 42.324 19.2864V19.1381C42.324 19.0368 42.2758 19.0121 42.1642 19.0121ZM42.1642 19.5427H41.9222V19.8724H41.775V18.8802H42.1642C42.3847 18.8802 42.4712 18.9761 42.4712 19.1382V19.2865C42.4712 19.3941 42.4331 19.4664 42.324 19.5143L42.597 19.8724H42.4228L42.1642 19.5427ZM42.1189 20.1745C42.6386 20.1745 42.9114 19.8263 42.9114 19.3991C42.9114 18.9718 42.6387 18.6184 42.1189 18.6184C41.5987 18.6184 41.3195 18.9718 41.3195 19.3991C41.3195 19.8263 41.5986 20.1745 42.1189 20.1745ZM42.1189 18.4873C42.6947 18.4873 43.0465 18.8942 43.0465 19.3974C43.0465 19.8935 42.6948 20.3064 42.1189 20.3064C41.5395 20.3064 41.1848 19.8935 41.1848 19.3974C41.1848 18.8942 41.5395 18.4873 42.1189 18.4873ZM12.497 25.0277H10.8892V23.0278H9.33746V27.9997H10.8892V25.8559H12.497V27.9997H14.0503V23.0275H12.497V25.0277ZM41.0431 27.1719V23.0273H39.491V27.9993H43.2645V27.1719H41.0431ZM49.8674 23.0273V23.8568H51.28V27.9997H52.8312V23.8568H54.2449V23.0275L49.8674 23.0273ZM3.73828 24.0626C3.73828 23.4413 4.12242 23.0273 4.69849 23.0273H7.81114V23.8558H5.57961C5.40616 23.8558 5.29201 23.9815 5.29201 24.1673V26.8599C5.29201 27.0468 5.40601 27.1721 5.57961 27.1721H7.81114V27.9994H4.69849C4.12242 27.9994 3.73828 27.5846 3.73828 26.964V24.0626ZM30.736 25.9824L32.0777 27.9994H30.4278L29.2398 25.9485V25.3004H29.8811C30.0539 25.3004 30.1689 25.1744 30.1689 24.9889V24.1669C30.1689 23.9812 30.0539 23.8564 29.8811 23.8564H28.7952V27.9994H27.2424V23.0275H30.7617C31.3393 23.0275 31.7216 23.4413 31.7216 24.0628L31.723 25.0675C31.7232 25.6151 31.3851 25.9824 30.8753 25.9824H30.736ZM36.117 27.1719C36.2887 27.1719 36.4042 27.047 36.4042 26.8607V24.167C36.4042 23.9816 36.2887 23.8558 36.117 23.8558H35.0343C34.8617 23.8558 34.7457 23.9816 34.7457 24.167V26.8607C34.7457 27.047 34.8617 27.1719 35.0343 27.1719H36.117ZM33.1935 24.0626C33.1935 23.4412 33.5762 23.0273 34.1526 23.0273H36.997C37.5724 23.0273 37.9574 23.4412 37.9574 24.0626V26.9641C37.9574 27.5847 37.5724 27.9994 36.997 27.9994H34.1526C33.5762 27.9994 33.1935 27.5847 33.1935 26.9641V24.0626ZM20.9575 23.0273H22.6223L23.6159 26.8712C23.6184 26.8873 23.6269 26.9019 23.6396 26.9122C23.6523 26.9225 23.6683 26.9277 23.6847 26.9269C23.7199 26.9269 23.7475 26.9061 23.754 26.8712L24.7199 23.0273H26.0229L24.8194 27.2941C24.6736 27.7799 24.4104 27.9994 23.8577 27.9994H23.0828C22.7274 27.9994 22.4376 27.8202 22.2634 27.2905L20.9575 23.0273ZM17.1718 27.0148C17.1718 27.1103 17.2291 27.171 17.3164 27.171H19.8675V27.9996H16.5787C16.0029 27.9996 15.619 27.5846 15.619 26.965V24.063C15.619 23.4416 16.0029 23.0275 16.5787 23.0275H19.8675V23.8568H17.3162C17.2289 23.8568 17.1715 23.9186 17.1715 24.0122V25.0267H19.5744V25.8558H17.1718V27.015V27.0148ZM45.8987 27.0148C45.8987 27.1103 45.9556 27.171 46.0413 27.171H48.5937V27.9996H45.3044C44.729 27.9996 44.3429 27.5846 44.3429 26.965V24.063C44.3429 23.4416 44.7288 23.0275 45.3044 23.0275H48.5936V23.8568H46.0413C45.9556 23.8566 45.8987 23.9183 45.8987 24.0122V25.0267H48.2999V25.8558H45.8987V27.015V27.0148Z" fill="black"/>
<defs>
<linearGradient id="paint0_linear_214_1965" x1="31.4757" y1="-2.28006" x2="38.3619" y2="4.76607" gradientUnits="userSpaceOnUse">
<stop stop-color="#E1E8F5"/>
<stop offset="0.899" stop-color="#92A5C1"/>
<stop offset="0.955" stop-color="#476886"/>
<stop offset="1" stop-color="#E1E8F5"/>
</linearGradient>
<linearGradient id="paint1_linear_214_1965" x1="21.322" y1="2.98639" x2="28.3665" y2="-4.22176" gradientUnits="userSpaceOnUse">
<stop stop-color="#E1E8F5"/>
<stop offset="0.039" stop-color="#476886"/>
<stop offset="0.09" stop-color="#92A5C1"/>
<stop offset="1" stop-color="#E1E8F5"/>
</linearGradient>
<linearGradient id="paint2_linear_214_1965" x1="17.8319" y1="3.25328" x2="20.1293" y2="1.0612" gradientUnits="userSpaceOnUse">
<stop stop-color="#E1E8F5"/>
<stop offset="0.157" stop-color="#C7D6EE"/>
<stop offset="1" stop-color="#E1E8F5"/>
</linearGradient>
<linearGradient id="paint3_linear_214_1965" x1="40.3768" y1="3.32024" x2="37.9443" y2="0.999209" gradientUnits="userSpaceOnUse">
<stop stop-color="#E1E8F5"/>
<stop offset="0.157" stop-color="#C7D6EE"/>
<stop offset="1" stop-color="#E1E8F5"/>
</linearGradient>
<linearGradient id="paint4_linear_214_1965" x1="9.48563" y1="7.69561" x2="17.3865" y2="-0.388819" gradientUnits="userSpaceOnUse">
<stop stop-color="#476886"/>
<stop offset="0.129" stop-color="#92A5C1"/>
<stop offset="1" stop-color="#E1E8F5"/>
</linearGradient>
<linearGradient id="paint5_linear_214_1965" x1="1.84051" y1="16.1213" x2="0.92091" y2="14.7775" gradientUnits="userSpaceOnUse">
<stop stop-color="#002334"/>
<stop offset="0.107" stop-color="white"/>
<stop offset="0.185" stop-color="#91AFC8"/>
<stop offset="0.242" stop-color="#002334"/>
<stop offset="0.534" stop-color="#5E738F"/>
<stop offset="0.758" stop-color="#002334"/>
<stop offset="1" stop-color="#002334"/>
</linearGradient>
<linearGradient id="paint6_linear_214_1965" x1="6.94547" y1="9.06693" x2="-0.282185" y2="12.8307" gradientUnits="userSpaceOnUse">
<stop stop-color="#91AFC8"/>
<stop offset="1" stop-color="#002334"/>
</linearGradient>
<linearGradient id="paint7_linear_214_1965" x1="9.9252" y1="17.5534" x2="9.39012" y2="14.4484" gradientUnits="userSpaceOnUse">
<stop stop-color="#A5B9CC"/>
<stop offset="1" stop-color="#002334"/>
</linearGradient>
<linearGradient id="paint8_linear_214_1965" x1="18.3717" y1="18.5169" x2="19.3014" y2="18.5169" gradientUnits="userSpaceOnUse">
<stop stop-color="#5E738F"/>
<stop offset="0.489" stop-color="#91AFC8"/>
<stop offset="1" stop-color="#91AFC8"/>
</linearGradient>
<linearGradient id="paint9_linear_214_1965" x1="39.4883" y1="18.4369" x2="38.3373" y2="18.4369" gradientUnits="userSpaceOnUse">
<stop stop-color="#5E738F"/>
<stop offset="0.32" stop-color="#91AFC8"/>
<stop offset="1" stop-color="#91AFC8"/>
</linearGradient>
<linearGradient id="paint10_linear_214_1965" x1="32.9642" y1="22.4738" x2="36.0055" y2="17.0837" gradientUnits="userSpaceOnUse">
<stop stop-color="#A5B9CC"/>
<stop offset="1" stop-color="#002334"/>
</linearGradient>
<linearGradient id="paint11_linear_214_1965" x1="22.9654" y1="18.6779" x2="26.0303" y2="24.1098" gradientUnits="userSpaceOnUse">
<stop stop-color="#002334"/>
<stop offset="0.775" stop-color="#A5B9CC"/>
<stop offset="1" stop-color="#A5B9CC"/>
</linearGradient>
<linearGradient id="paint12_linear_214_1965" x1="13.4296" y1="3.29705" x2="27.1168" y2="27.5546" gradientUnits="userSpaceOnUse">
<stop stop-color="#FFEFCF"/>
<stop offset="0.461" stop-color="#FFE4A6"/>
<stop offset="1" stop-color="#BC956E"/>
</linearGradient>
<linearGradient id="paint13_linear_214_1965" x1="43.2019" y1="18.6696" x2="47.0755" y2="14.2514" gradientUnits="userSpaceOnUse">
<stop stop-color="#5E738F"/>
<stop offset="0.607" stop-color="#91AFC8"/>
<stop offset="1" stop-color="#C7DFF4"/>
</linearGradient>
<linearGradient id="paint14_linear_214_1965" x1="46.2033" y1="0.85867" x2="51.3003" y2="9.89199" gradientUnits="userSpaceOnUse">
<stop stop-color="#E1E8F5"/>
<stop offset="0.815" stop-color="#7F97B4"/>
<stop offset="0.904" stop-color="#476886"/>
<stop offset="1" stop-color="#002334"/>
</linearGradient>
<linearGradient id="paint15_linear_214_1965" x1="50.8568" y1="16.2566" x2="59.1549" y2="1.54996" gradientUnits="userSpaceOnUse">
<stop stop-color="#8CA0B5"/>
<stop offset="0.14" stop-color="#E1E8F5"/>
<stop offset="0.815" stop-color="#7F97B4"/>
<stop offset="0.904" stop-color="#476886"/>
<stop offset="1" stop-color="#002334"/>
</linearGradient>
<linearGradient id="paint16_linear_214_1965" x1="48.5857" y1="16.4283" x2="51.596" y2="14.6499" gradientUnits="userSpaceOnUse">
<stop stop-color="#002334"/>
<stop offset="0.815" stop-color="#A5B9CC"/>
<stop offset="0.888" stop-color="#002334"/>
<stop offset="1" stop-color="#002334"/>
</linearGradient>
<linearGradient id="paint17_linear_214_1965" x1="7.16002" y1="11.5051" x2="16.8933" y2="21.4644" gradientUnits="userSpaceOnUse">
<stop stop-color="#D4BC7B"/>
<stop offset="0.332" stop-color="#7F5F39"/>
<stop offset="1" stop-color="#D4BC7B"/>
</linearGradient>
<linearGradient id="paint18_linear_214_1965" x1="47.0366" y1="12.5599" x2="40.0843" y2="19.6736" gradientUnits="userSpaceOnUse">
<stop stop-color="#D4BC7B"/>
<stop offset="0.332" stop-color="#7F5F39"/>
<stop offset="1" stop-color="#D4BC7B"/>
</linearGradient>
<linearGradient id="paint19_linear_214_1965" x1="51.5218" y1="1.13603" x2="40.2845" y2="12.6343" gradientUnits="userSpaceOnUse">
<stop stop-color="#D4BC7B"/>
<stop offset="0.332" stop-color="#7F5F39"/>
<stop offset="1" stop-color="#D4BC7B"/>
</linearGradient>
<linearGradient id="paint20_linear_214_1965" x1="19.2844" y1="17.3781" x2="20.7867" y2="17.3781" gradientUnits="userSpaceOnUse">
<stop stop-color="#D3BD8B"/>
<stop offset="1" stop-color="#7F5F39"/>
</linearGradient>
<linearGradient id="paint21_linear_214_1965" x1="38.5656" y1="17.3622" x2="37.0631" y2="17.3622" gradientUnits="userSpaceOnUse">
<stop stop-color="#D3BD8B"/>
<stop offset="1" stop-color="#7F5F39"/>
</linearGradient>
<linearGradient id="paint22_linear_214_1965" x1="23.4597" y1="17.8397" x2="26.1569" y2="22.62" gradientUnits="userSpaceOnUse">
<stop stop-color="#7F5F39"/>
<stop offset="0.646" stop-color="#D3BD8B"/>
<stop offset="0.888" stop-color="#FFE4A6"/>
<stop offset="1" stop-color="#FFE4A6"/>
</linearGradient>
<linearGradient id="paint23_linear_214_1965" x1="34.3871" y1="17.8439" x2="31.4406" y2="23.066" gradientUnits="userSpaceOnUse">
<stop stop-color="#7F5F39"/>
<stop offset="0.455" stop-color="#D3BD8B"/>
<stop offset="0.888" stop-color="#FFE4A6"/>
<stop offset="1" stop-color="#FFE4A6"/>
</linearGradient>
<linearGradient id="paint24_linear_214_1965" x1="21.9466" y1="3.50103" x2="28.2467" y2="-2.94538" gradientUnits="userSpaceOnUse">
<stop stop-color="#D4BC7B"/>
<stop offset="0.039" stop-color="#7F5F39"/>
<stop offset="0.107" stop-color="#D1AC75"/>
<stop offset="1" stop-color="#D4BC7B"/>
</linearGradient>
<linearGradient id="paint25_linear_214_1965" x1="35.9464" y1="3.58838" x2="29.5363" y2="-2.97065" gradientUnits="userSpaceOnUse">
<stop stop-color="#D4BC7B"/>
<stop offset="0.039" stop-color="#7F5F39"/>
<stop offset="0.107" stop-color="#D1AC75"/>
<stop offset="1" stop-color="#D4BC7B"/>
</linearGradient>
<linearGradient id="paint26_linear_214_1965" x1="18.7332" y1="4.28545" x2="21.0796" y2="2.04655" gradientUnits="userSpaceOnUse">
<stop stop-color="#FFE292"/>
<stop offset="0.157" stop-color="#D1AC75"/>
<stop offset="1" stop-color="#FFE292"/>
</linearGradient>
<linearGradient id="paint27_linear_214_1965" x1="39.2073" y1="4.26677" x2="36.7612" y2="1.93278" gradientUnits="userSpaceOnUse">
<stop stop-color="#FFE292"/>
<stop offset="0.157" stop-color="#D1AC75"/>
<stop offset="1" stop-color="#FFE292"/>
</linearGradient>
<linearGradient id="paint28_linear_214_1965" x1="10.5568" y1="8.52477" x2="17.8678" y2="1.0439" gradientUnits="userSpaceOnUse">
<stop stop-color="#7F5F39"/>
<stop offset="1" stop-color="#BD9B6A"/>
</linearGradient>
<linearGradient id="paint29_linear_214_1965" x1="51.2855" y1="9.54118" x2="54.3961" y2="12.724" gradientUnits="userSpaceOnUse">
<stop stop-color="#7F5F39"/>
<stop offset="1" stop-color="#D4BC7B"/>
</linearGradient>
<linearGradient id="paint30_linear_214_1965" x1="50.5052" y1="15.4536" x2="57.2861" y2="2.08911" gradientUnits="userSpaceOnUse">
<stop stop-color="#A78A5E"/>
<stop offset="0.764" stop-color="#7F5F39"/>
<stop offset="0.916" stop-color="#674C2B"/>
<stop offset="1" stop-color="#674C2B"/>
</linearGradient>
<linearGradient id="paint31_linear_214_1965" x1="46.0389" y1="17.7511" x2="26.5878" y2="-5.96817" gradientUnits="userSpaceOnUse">
<stop stop-color="#FFEFCF"/>
<stop offset="0.461" stop-color="#FFE4A6"/>
<stop offset="1" stop-color="#BC956E"/>
</linearGradient>
<linearGradient id="paint32_linear_214_1965" x1="1.67176" y1="14.5545" x2="8.42248" y2="7.64697" gradientUnits="userSpaceOnUse">
<stop stop-color="#7F5F39"/>
<stop offset="1" stop-color="#E9CF98"/>
</linearGradient>
<linearGradient id="paint33_linear_214_1965" x1="0.749768" y1="14.231" x2="9.8315" y2="4.93834" gradientUnits="userSpaceOnUse">
<stop stop-color="#7F5F39"/>
<stop offset="1" stop-color="#E4CB90"/>
</linearGradient>
</defs>
</svg>
