<svg width="36" height="35" viewBox="0 0 36 35" fill="none" xmlns="http://www.w3.org/2000/svg">
<g clip-path="url(#clip0_214_2426)">
<path fill-rule="evenodd" clip-rule="evenodd" d="M35.5 17.5C35.5 27.1875 27.6875 35 18 35C8.31251 35 0.5 27.1875 0.5 17.5C0.5 7.81251 8.31251 0 18 0C27.6875 0 35.5 7.81251 35.5 17.5ZM17.8611 13.3889C17.8889 13.4444 17.9167 13.5 18 13.5C18.0833 13.5 18.1111 13.4444 18.1389 13.3889C18.1528 13.3611 18.1667 13.3333 18.1875 13.3125L23 2.9375C21.4375 2.375 19.75 2.0625 18 2.0625C16.25 2.0625 14.5625 2.375 13 2.9375L17.8125 13.3125C17.8333 13.3333 17.8472 13.3611 17.8611 13.3889ZM2.625 17.5C2.625 25.9375 9.56252 32.9375 18 32.9375C26.4375 32.9375 33.375 25.9375 33.4375 17.5C33.4375 15.6875 33.125 14 32.5625 12.4375L23.5625 29.9375C23.4375 30.1875 23.3125 30.375 23 30.375C22.6875 30.375 22.5625 30.1875 22.4375 29.9375L18.1875 20.625C18.1667 20.6041 18.1528 20.5764 18.1389 20.5486C18.1111 20.4931 18.0833 20.4375 18 20.4375C17.9375 20.4375 17.875 20.5 17.8125 20.625L13.625 29.9375C13.5 30.1875 13.375 30.375 13.0625 30.375C12.75 30.375 12.625 30.1875 12.5 29.9375L3.5 12.4375C2.9375 14.0625 2.625 15.75 2.625 17.5ZM12.9375 24.75C12.8542 24.75 12.8264 24.6945 12.7986 24.6389C12.7848 24.6112 12.7709 24.5833 12.75 24.5625L4.875 9.43753C6.25 7.1875 8.25002 5.3125 10.5625 4L16.125 16C16.25 16.25 16.375 16.3125 16.5625 16.3125H19.4375C19.625 16.3125 19.75 16.25 19.875 16L25.375 4C27.6875 5.3125 29.6875 7.1875 31.0625 9.43753L23.25 24.5625C23.1875 24.6875 23.125 24.75 23.0625 24.75C22.9792 24.75 22.9514 24.6945 22.9236 24.6389C22.9097 24.6111 22.8958 24.5833 22.875 24.5625L19.875 17.9375C19.75 17.6875 19.625 17.625 19.4375 17.625H16.5625C16.375 17.625 16.25 17.6875 16.125 17.9375L13.125 24.5625C13.1042 24.5833 13.0903 24.6111 13.0764 24.6389C13.0486 24.6945 13.0208 24.75 12.9375 24.75Z" fill="black"/>
</g>
<defs>
<clipPath id="clip0_214_2426">
<rect width="35" height="35" fill="white" transform="translate(0.5)"/>
</clipPath>
</defs>
</svg>
