<svg width="48" height="30" viewBox="0 0 48 30" fill="none" xmlns="http://www.w3.org/2000/svg">
<path d="M47.9871 17.8902L21.497 14.9941H21.4906L14.2398 18.8127C14.2376 18.8134 14.2358 18.8147 14.2344 18.8166C14.2331 18.8184 14.2324 18.8206 14.2324 18.8228C14.2324 18.8251 14.2331 18.8273 14.2344 18.8291C14.2358 18.831 14.2376 18.8323 14.2398 18.833H46.2431L47.986 17.917C47.9895 17.917 47.9929 17.9157 47.9954 17.9133C47.998 17.9109 47.9996 17.9077 47.9998 17.9042C48 17.9024 47.9998 17.9006 47.9992 17.8989C47.9986 17.8972 47.9977 17.8957 47.9965 17.8943C47.9953 17.893 47.9938 17.892 47.9922 17.8913C47.9906 17.8906 47.9888 17.8902 47.9871 17.8902Z" fill="black"/>
<path d="M23.999 1.06139C27.6697 1.06225 31.1898 2.53089 33.7852 5.14437C36.3806 7.75785 37.8387 11.3022 37.839 14.9979C37.839 15.2339 37.8337 15.4677 37.822 15.7015L38.8873 15.8174C38.9022 15.546 38.9097 15.2736 38.9097 14.9979C38.9053 11.4497 37.6531 8.01772 35.3752 5.31037C33.0973 2.60301 29.9408 0.795214 26.4653 0.207478C22.9898 -0.380259 19.4199 0.290036 16.3884 2.09953C13.357 3.90902 11.0598 6.7408 9.9043 10.0928H11.041C12.033 7.43973 13.8046 5.15407 16.1197 3.54051C18.4347 1.92695 21.1833 1.06215 23.999 1.06139Z" fill="black"/>
<path d="M23.9993 28.937C22.1809 28.9379 20.3801 28.578 18.6998 27.878C17.0195 27.1779 15.4927 26.1514 14.2065 24.8571C12.9204 23.5628 11.9001 22.026 11.2041 20.3346C10.508 18.6432 10.1497 16.8303 10.1497 14.9995C10.1497 14.7624 10.1561 14.5275 10.1678 14.2926L9.10245 14.1768C9.08754 14.4492 9.08008 14.7234 9.08008 14.9995C9.08379 18.5485 10.3359 21.9814 12.6142 24.6895C14.8925 27.3976 18.0499 29.2057 21.5262 29.7931C25.0026 30.3806 28.5733 29.7094 31.6049 27.8987C34.6366 26.0879 36.9332 23.2546 38.0876 19.9013H36.9541C35.963 22.5547 34.1922 24.8409 31.8777 26.4552C29.5632 28.0696 26.815 28.9353 23.9993 28.937Z" fill="black"/>
<path d="M26.4985 14.9961H26.5038L33.7557 11.1883C33.757 11.1879 33.7583 11.1871 33.7593 11.1862C33.7604 11.1852 33.7612 11.184 33.7618 11.1827C33.7624 11.1814 33.7627 11.18 33.7628 11.1786C33.7628 11.1772 33.7626 11.1757 33.7621 11.1744C33.7616 11.1729 33.7608 11.1715 33.7597 11.1704C33.7586 11.1693 33.7572 11.1684 33.7557 11.168H1.74812L0.00732698 12.084C0.00519554 12.0847 0.00333969 12.0861 0.00202401 12.0879C0.000708326 12.0897 0 12.0919 0 12.0942C0 12.0964 0.000708326 12.0986 0.00202401 12.1005C0.00333969 12.1023 0.00519554 12.1037 0.00732698 12.1044L26.4985 14.9961Z" fill="black"/>
</svg>
