<svg width="58" height="30" viewBox="0 0 58 30" fill="none" xmlns="http://www.w3.org/2000/svg">
<g clip-path="url(#clip0_214_2079)">
<path d="M33.5465 15.2619L31.0182 20.1387H30.9656L30.8378 15.2619H28.723L28.6404 15.4374L28.8218 15.546C28.9968 15.6672 29.0458 15.7901 29.0685 16.1286L29.355 22.0466H31.7111L35.5135 15.2619H33.5465ZM26.0205 18.774C25.7838 19.4412 25.5979 19.8705 25.3231 20.1538C25.1073 20.3765 24.8226 20.5359 24.1669 20.5359C23.6527 20.5359 23.3661 20.3293 23.3661 19.9382C23.3625 19.6862 23.4323 19.3031 23.7071 18.5576C23.9447 17.8913 24.1306 17.462 24.4063 17.1787C24.6194 16.9561 24.9051 16.7957 25.5616 16.7957C26.0758 16.7957 26.3615 17.0024 26.3606 17.3916C26.366 17.6473 26.2962 18.0303 26.0205 18.774ZM25.9108 15.1781H25.6913C24.39 15.1781 23.6464 15.5229 23.036 16.1597C22.277 16.948 21.5642 19.0796 21.5778 20.2072C21.5923 21.3572 22.3495 22.1544 23.9411 22.1544H24.1741C25.4791 22.1544 26.2227 21.8097 26.8331 21.1728C27.5912 20.3827 28.2895 18.2521 28.2759 17.1253C28.2605 15.9762 27.5032 15.1781 25.9108 15.1781ZM19.5211 17.7248C19.4023 18.0143 19.2717 18.0837 19.1003 18.1523C18.9851 18.1969 18.7412 18.2129 18.5063 18.2129H17.5967L18.0918 16.8109H19.191C19.5201 16.8109 19.6544 16.9792 19.6589 17.1707C19.6607 17.2928 19.6036 17.5163 19.5211 17.7248ZM19.3578 15.2619H16.3752L16.3153 15.4374L16.4359 15.554C16.5629 15.677 16.5583 15.823 16.4468 16.1366L14.3628 22.0466H16.2672L17.0816 19.7004L17.7264 19.7013L18.4428 22.0466H20.3563L19.4567 19.6461C19.979 19.5632 20.2411 19.4163 20.5032 19.1874C20.8623 18.8649 21.1108 18.4124 21.3166 17.7461C21.6177 16.7797 21.4354 16.2274 21.2423 15.9442C20.9766 15.554 20.417 15.2619 19.3578 15.2619ZM39.3377 19.3254L39.8655 17.9065H37.4379L37.8142 16.8233H40.4441L41.0218 15.2574H36.0567L35.9878 15.4569L36.1066 15.5719C36.2345 15.6939 36.229 15.8391 36.1184 16.1544L34.0508 22.0439H38.6902L39.2507 20.4673H36.5428L36.9418 19.3254H39.3377ZM44.9086 17.7248C44.7898 18.0143 44.6574 18.0837 44.4887 18.1523C44.3708 18.1969 44.1305 18.2129 43.8956 18.2129H42.9869L43.4776 16.8109H44.5785C44.9059 16.8109 45.0419 16.9792 45.0446 17.1707C45.0482 17.2928 44.9893 17.5163 44.9086 17.7248ZM44.7426 15.2619H41.7609L41.7028 15.4374L41.8225 15.554C41.9504 15.677 41.9441 15.823 41.8343 16.1366L39.7486 22.0466H41.6557L42.4691 19.7013H43.113L43.8303 22.0466H45.742L44.8442 19.6461C45.3656 19.5632 45.6277 19.4163 45.8889 19.1874C46.2489 18.8649 46.4983 18.4124 46.7042 17.7461C47.0052 16.7797 46.823 16.2274 46.6307 15.9442C46.365 15.554 45.8046 15.2619 44.7426 15.2619ZM48.653 24.367C43.4213 27.0223 36.443 28.4849 29.0005 28.4849C21.5588 28.4849 14.5814 27.0223 9.34881 24.367C4.31665 21.8124 1.54347 18.4855 1.54347 15.0009C1.54347 11.5137 4.31665 8.18676 9.34881 5.63391C14.5814 2.97951 21.5588 1.51514 29.0005 1.51514C36.443 1.51514 43.4213 2.97951 48.653 5.63391C53.6861 8.18676 56.4565 11.5137 56.4565 15.0009C56.4565 18.4855 53.6861 21.8124 48.653 24.367ZM49.3613 4.28711C43.9128 1.52227 36.6825 0 29.0005 0C21.3184 0 14.0872 1.52227 8.64056 4.28711C5.41395 5.92518 0 9.49525 0 15.0009C0 20.5039 5.41395 24.0748 8.64056 25.7129C14.0862 28.4777 21.3166 30 29.0005 30C36.6834 30 43.9138 28.4777 49.3613 25.7129C52.5879 24.0748 58 20.5048 58 15.0009C58 9.49436 52.5879 5.92518 49.3613 4.28711ZM47.9203 22.9748C42.2914 25.8305 35.2895 26.9163 29.0005 26.9163C22.7105 26.9163 15.7104 25.8305 10.0797 22.9748C7.10071 21.4614 3.14045 18.6734 3.14045 15.0009C3.14045 11.3248 7.0998 8.53949 10.0797 7.02702C15.7104 4.17132 22.7105 3.08551 29.0005 3.08551C35.2895 3.08551 42.2914 4.16954 47.9203 7.02702C50.902 8.53949 54.8605 11.3248 54.8605 15.0009C54.8605 18.6752 50.9011 21.4614 47.9203 22.9748ZM48.2123 6.47031C42.4972 3.5674 35.3811 2.45665 29.0005 2.45665C22.6189 2.45665 15.5046 3.56829 9.78683 6.47031C6.57654 8.09857 2.50202 11.038 2.50202 15.0009C2.50202 18.9602 6.57654 21.9014 9.78683 23.5315C15.5046 26.4317 22.6207 27.5433 29.0005 27.5433C35.3811 27.5433 42.4972 26.4335 48.2123 23.5315C51.4244 21.9014 55.4989 18.9602 55.4989 15.0009C55.4989 11.038 51.4253 8.09857 48.2123 6.47031ZM14.585 16.1366L9.3733 17.8201L8.73668 19.5356H13.3326L13.9312 17.9189H10.7454L14.3619 16.7164L14.585 16.1366ZM35.3231 8.61966H36.0785C36.5927 8.61966 36.8765 8.78889 36.8829 9.17993C36.8874 9.43201 36.8185 9.77761 36.5519 10.5214C36.3161 11.1868 36.1275 11.5724 35.8599 11.8548C35.645 12.0775 35.3594 12.1764 34.7037 12.1764H34.0725L35.3231 8.61966ZM33.6672 7.8848L31.605 13.7948H34.6475C35.9515 13.7948 36.6961 13.5107 37.3 12.8747C38.0582 12.0873 38.751 10.0386 38.7283 8.91093C38.7057 7.7601 37.9493 7.01099 36.3578 7.01099H33.5937L33.5357 7.18557L33.6554 7.30048C33.7823 7.42429 33.7778 7.57037 33.6672 7.8848ZM45.148 9.44359H40.552L39.9535 11.0585H43.1384L39.5209 12.2645L39.2978 12.8426L44.5096 11.1591L45.148 9.44359ZM24.6067 13.7913H26.3388L27.8496 9.40261L28.7329 13.7913H30.4668L32.8301 7.00831L31.0182 7.01099L29.7559 10.6977L29.0349 7.01099H26.5927L26.5329 7.18557L26.6526 7.30048C26.7814 7.42429 26.775 7.57037 26.6653 7.8848L24.6067 13.7913ZM12.1882 13.7948L16.9011 13.7931L17.4706 12.1764H14.731L16.5411 7.01099H14.1778L14.1189 7.18557L14.2368 7.30048C14.3656 7.42429 14.3601 7.57037 14.2495 7.8848L12.1882 13.7948ZM22.2153 8.88599H22.277L22.3096 10.9347H21.0382L22.2153 8.88599ZM17.3899 13.7913H19.395L20.2638 12.2922H22.3396L22.3604 13.7913H24.1796L23.7869 7.01099H21.0636L21.0029 7.18557L21.0908 7.27197C21.2341 7.41004 21.1752 7.60867 20.6447 8.43527L17.3899 13.7913Z" fill="black"/>
</g>
<defs>
<clipPath id="clip0_214_2079">
<rect width="58" height="30" fill="white"/>
</clipPath>
</defs>
</svg>
