<svg width="50" height="25" viewBox="0 0 50 25" fill="none" xmlns="http://www.w3.org/2000/svg">
<path fill-rule="evenodd" clip-rule="evenodd" d="M25.0002 0C11.1933 0 0 5.59715 0 12.4995C0 19.4023 11.1933 25 25.0002 25C38.8062 25 50 19.4028 50 12.4995C49.9995 5.59765 38.8057 0 25.0002 0ZM22.6284 2.78202C25.4818 1.76034 33.9594 2.78202 37.2524 4.38378C38.3063 5.40747 32.5533 8.69631 25.7033 10.1219C15.9097 12.1221 20.5642 4.4721 22.6284 2.78202ZM5.80946 17.5928C3.65661 16.0382 -0.5589 11.5892 6.42434 6.96407C10.1132 4.78523 12.1768 4.29446 14.7236 3.76154C15.9538 3.49358 16.8318 3.8057 15.7338 4.74007C13.4066 7.18637 8.5757 15.2795 8.1372 17.0599C7.78492 18.2617 7.08283 18.5714 5.80946 17.5928ZM25.9213 22.7534C21.794 23.197 12.6163 21.819 12.4399 20.6197C12.6163 17.7268 27.0198 12.9235 29.6102 15.5921C30.7091 17.6822 28.6014 22.6194 25.9213 22.7534ZM46.9137 14.3451C45.8588 16.792 42.3023 19.5509 34.8374 21.4191C33.6944 21.6841 33.2995 20.9735 34.0457 20.3061C35.2764 19.5504 41.2048 9.4992 41.951 7.49649C42.3905 6.4728 43.2244 6.87475 43.752 7.27419C46.1239 8.83029 47.924 11.3659 46.9137 14.3451Z" fill="black"/>
</svg>
