<svg width="106" height="24" viewBox="0 0 106 24" fill="none" xmlns="http://www.w3.org/2000/svg">
<path d="M15.4886 9.05458C16.9972 9.65657 17.7516 10.7983 17.7516 12.4796C17.7516 14.0988 17.0706 15.3754 15.7086 16.3095C14.3676 17.2436 12.4817 17.7107 10.0511 17.7107H0.810547L4.20504 0.958984H12.6913C14.64 0.958984 16.1277 1.30149 17.1544 1.9865C18.2021 2.67152 18.7259 3.65752 18.7259 4.94451C18.7259 5.87862 18.443 6.70894 17.8773 7.43547C17.3115 8.14124 16.5153 8.68094 15.4886 9.05458ZM7.31665 7.84025H11.0254C11.9055 7.84025 12.6179 7.65342 13.1627 7.27978C13.7075 6.88538 13.9799 6.37681 13.9799 5.75407C13.9799 4.73693 13.2361 4.22836 11.7484 4.22836H8.03956L7.31665 7.84025ZM10.1454 14.4101C11.1093 14.4101 11.8636 14.2129 12.4084 13.8185C12.9741 13.4241 13.257 12.8948 13.257 12.2306C13.257 11.7116 13.0684 11.3276 12.6913 11.0785C12.3351 10.8294 11.7798 10.7048 11.0254 10.7048H6.75091L5.99657 14.4101H10.1454Z" fill="#2A00A3"/>
<path d="M27.3401 18.1777C25.0561 18.1777 23.3065 17.721 22.0912 16.8077C20.8968 15.8943 20.2996 14.5658 20.2996 12.8222C20.2996 12.2617 20.3625 11.6597 20.4882 11.0162L22.5312 0.958984H27.4344L26.2714 6.62591C27.5496 5.8371 29.0478 5.4427 30.766 5.4427C32.7147 5.4427 34.1814 5.87862 35.1663 6.75045C36.1511 7.62229 36.6435 8.8989 36.6435 10.5803C36.6435 12.1164 36.2663 13.4553 35.512 14.597C34.7577 15.7386 33.6786 16.6209 32.2747 17.2436C30.8708 17.8663 29.2259 18.1777 27.3401 18.1777ZM40.478 0.958984H45.3812L42.0181 17.7107H37.115L40.478 0.958984ZM27.7801 14.7526C28.8906 14.7526 29.8126 14.4205 30.546 13.7563C31.2794 13.0712 31.646 12.1994 31.646 11.1408C31.646 10.352 31.4156 9.74998 30.9546 9.33482C30.5145 8.91966 29.8755 8.71208 29.0373 8.71208C28.3668 8.71208 27.7277 8.84701 27.1201 9.11686C26.5124 9.38671 25.9886 9.77073 25.5485 10.2689L25.2971 11.6389C25.2342 11.9503 25.2028 12.2306 25.2028 12.4796C25.2028 13.2062 25.4228 13.7666 25.8628 14.161C26.3029 14.5554 26.942 14.7526 27.7801 14.7526Z" fill="#2A00A3"/>
<path d="M58.9365 9.30368L63.5882 17.7107H57.9308L54.882 11.3587H52.1161L50.8275 17.7107H45.9243L49.3188 0.958984H54.222L52.9019 7.4666H55.4478L61.3881 0.958984H66.7313L58.9365 9.30368Z" fill="#2A00A3"/>
<path d="M85.303 0.958984L82.4428 15.0951C81.8142 18.2088 80.6303 20.4715 78.8912 21.883C77.173 23.2945 74.8681 24.0003 71.9765 24.0003C70.3631 24.0003 68.8858 23.8031 67.5448 23.4087C66.2038 23.0143 65.0618 22.4435 64.1189 21.6962L66.4133 18.2088C67.1048 18.7901 67.9534 19.2467 68.9592 19.5789C69.9649 19.911 71.0231 20.0771 72.1337 20.0771C73.7261 20.0771 74.9205 19.7242 75.7167 19.0184C76.5339 18.3126 77.0997 17.2021 77.414 15.6868L77.5397 15.1574C76.0939 16.3199 74.3652 16.9011 72.3537 16.9011C70.5097 16.9011 69.0325 16.4133 67.922 15.4377C66.8324 14.4413 66.2876 13.0401 66.2876 11.2342C66.2876 10.5699 66.3609 9.8849 66.5076 9.17913L68.142 0.958984H73.0451L71.4422 8.86776C71.3584 9.26217 71.3165 9.65657 71.3165 10.051C71.3165 10.9228 71.5469 11.5871 72.0079 12.0437C72.4899 12.5004 73.2023 12.7287 74.1452 12.7287C75.3815 12.7287 76.4082 12.3655 77.2254 11.6389C78.0426 10.9124 78.5978 9.83301 78.8912 8.40071L80.3999 0.958984H85.303Z" fill="#2A00A3"/>
<path d="M105.999 0.958984L102.605 17.7107H97.7016L100.216 4.94451H93.207L90.6926 17.7107H85.7895L89.1839 0.958984H105.999Z" fill="#2A00A3"/>
</svg>
